<mxfile host="65bd71144e" pages="2">
    <diagram id="9k4l0HA6vqhyEQvR1lSF" name="Reference Data Architecture">
        <mxGraphModel dx="480" dy="275" grid="1" gridSize="10" guides="1" tooltips="1" connect="1" arrows="1" fold="1" page="1" pageScale="1" pageWidth="1169" pageHeight="827" math="0" shadow="0">
            <root>
                <mxCell id="0"/>
                <mxCell id="1" parent="0"/>
                <mxCell id="ZqkVbiy7oSc-8THJX2Gc-1" value="&lt;p style=&quot;margin-top: 6pt; margin-bottom: 0pt; margin-left: 0in; direction: ltr; unicode-bidi: embed; vertical-align: baseline; word-break: normal;&quot;&gt;&lt;font style=&quot;font-size: 20px;&quot;&gt;Sharing &amp;amp; Collaboration&lt;/font&gt;&lt;/p&gt;" style="rounded=0;whiteSpace=wrap;html=1;align=center;fontStyle=1;verticalAlign=top;strokeColor=#0A6ED1;fillColor=none;strokeWidth=2;fontSize=14;fontFamily=Arial;container=1;recursiveResize=0;collapsible=0;fontColor=#595959;" parent="1" vertex="1">
                    <mxGeometry x="40" y="40" width="350" height="200" as="geometry"/>
                </mxCell>
                <mxCell id="ZqkVbiy7oSc-8THJX2Gc-2" value="&lt;p style=&quot;margin-top: 0pt; margin-bottom: 0pt; margin-left: 0in; direction: ltr; unicode-bidi: embed; word-break: normal;&quot;&gt;&lt;font style=&quot;font-size: 15px;&quot;&gt;Discussions&lt;/font&gt;&lt;/p&gt;" style="rounded=0;whiteSpace=wrap;html=1;strokeColor=#0F828F;strokeWidth=2;fillColor=none;align=center;verticalAlign=middle;fontSize=11;fontFamily=Arial;container=1;recursiveResize=0;collapsible=0;fontColor=#595959;" parent="ZqkVbiy7oSc-8THJX2Gc-1" vertex="1">
                    <mxGeometry x="15" y="47.5" width="100" height="40" as="geometry"/>
                </mxCell>
                <mxCell id="ZqkVbiy7oSc-8THJX2Gc-3" style="edgeStyle=none;rounded=0;orthogonalLoop=1;jettySize=auto;html=1;entryX=0;entryY=0.5;entryDx=0;entryDy=0;dashed=1;startArrow=classic;startFill=1;endArrow=classic;endFill=1;strokeColor=#C0399F;strokeWidth=1;fontSize=16;" parent="ZqkVbiy7oSc-8THJX2Gc-2" edge="1">
                    <mxGeometry relative="1" as="geometry">
                        <mxPoint x="377" y="77" as="sourcePoint"/>
                        <mxPoint x="377" y="77" as="targetPoint"/>
                    </mxGeometry>
                </mxCell>
                <mxCell id="ZqkVbiy7oSc-8THJX2Gc-4" style="edgeStyle=orthogonalEdgeStyle;rounded=0;orthogonalLoop=1;jettySize=auto;html=1;exitX=0.5;exitY=1;exitDx=0;exitDy=0;fontFamily=Helvetica;fontSize=15;fontColor=#595959;strokeColor=#595959;strokeWidth=2;" parent="ZqkVbiy7oSc-8THJX2Gc-1" source="ZqkVbiy7oSc-8THJX2Gc-2" target="ZqkVbiy7oSc-8THJX2Gc-2" edge="1">
                    <mxGeometry relative="1" as="geometry"/>
                </mxCell>
                <mxCell id="ZqkVbiy7oSc-8THJX2Gc-7" value="&lt;p style=&quot;margin-top: 0pt; margin-bottom: 0pt; margin-left: 0in; direction: ltr; unicode-bidi: embed; word-break: normal;&quot;&gt;&lt;font style=&quot;font-size: 15px;&quot;&gt;Alerts&lt;/font&gt;&lt;/p&gt;" style="rounded=0;whiteSpace=wrap;html=1;strokeColor=#0F828F;strokeWidth=2;fillColor=none;align=center;verticalAlign=middle;fontSize=11;fontFamily=Arial;container=1;recursiveResize=0;collapsible=0;fontColor=#595959;" parent="ZqkVbiy7oSc-8THJX2Gc-1" vertex="1">
                    <mxGeometry x="125" y="47.5" width="100" height="40" as="geometry"/>
                </mxCell>
                <mxCell id="ZqkVbiy7oSc-8THJX2Gc-8" style="edgeStyle=none;rounded=0;orthogonalLoop=1;jettySize=auto;html=1;entryX=0;entryY=0.5;entryDx=0;entryDy=0;dashed=1;startArrow=classic;startFill=1;endArrow=classic;endFill=1;strokeColor=#C0399F;strokeWidth=1;fontSize=16;" parent="ZqkVbiy7oSc-8THJX2Gc-7" edge="1">
                    <mxGeometry relative="1" as="geometry">
                        <mxPoint x="377" y="77" as="sourcePoint"/>
                        <mxPoint x="377" y="77" as="targetPoint"/>
                    </mxGeometry>
                </mxCell>
                <mxCell id="ZqkVbiy7oSc-8THJX2Gc-9" value="&lt;p style=&quot;margin-top: 0pt; margin-bottom: 0pt; margin-left: 0in; direction: ltr; unicode-bidi: embed; word-break: normal;&quot;&gt;&lt;font style=&quot;font-size: 15px;&quot;&gt;Catalog&lt;/font&gt;&lt;/p&gt;" style="rounded=0;whiteSpace=wrap;html=1;strokeColor=#0F828F;strokeWidth=2;fillColor=none;align=center;verticalAlign=middle;fontSize=11;fontFamily=Arial;container=1;recursiveResize=0;collapsible=0;fontColor=#595959;" parent="ZqkVbiy7oSc-8THJX2Gc-1" vertex="1">
                    <mxGeometry x="235" y="47.5" width="100" height="40" as="geometry"/>
                </mxCell>
                <mxCell id="ZqkVbiy7oSc-8THJX2Gc-10" style="edgeStyle=none;rounded=0;orthogonalLoop=1;jettySize=auto;html=1;entryX=0;entryY=0.5;entryDx=0;entryDy=0;dashed=1;startArrow=classic;startFill=1;endArrow=classic;endFill=1;strokeColor=#C0399F;strokeWidth=1;fontSize=16;" parent="ZqkVbiy7oSc-8THJX2Gc-9" edge="1">
                    <mxGeometry relative="1" as="geometry">
                        <mxPoint x="377" y="77" as="sourcePoint"/>
                        <mxPoint x="377" y="77" as="targetPoint"/>
                    </mxGeometry>
                </mxCell>
                <mxCell id="ZqkVbiy7oSc-8THJX2Gc-11" value="&lt;p style=&quot;margin-top: 0pt; margin-bottom: 0pt; margin-left: 0in; direction: ltr; unicode-bidi: embed; word-break: normal;&quot;&gt;&lt;font style=&quot;font-size: 15px;&quot;&gt;Comments&lt;/font&gt;&lt;/p&gt;" style="rounded=0;whiteSpace=wrap;html=1;strokeColor=#0F828F;strokeWidth=2;fillColor=none;align=center;verticalAlign=middle;fontSize=11;fontFamily=Arial;container=1;recursiveResize=0;collapsible=0;fontColor=#595959;" parent="ZqkVbiy7oSc-8THJX2Gc-1" vertex="1">
                    <mxGeometry x="15" y="112.5" width="100" height="40" as="geometry"/>
                </mxCell>
                <mxCell id="ZqkVbiy7oSc-8THJX2Gc-12" style="edgeStyle=none;rounded=0;orthogonalLoop=1;jettySize=auto;html=1;entryX=0;entryY=0.5;entryDx=0;entryDy=0;dashed=1;startArrow=classic;startFill=1;endArrow=classic;endFill=1;strokeColor=#C0399F;strokeWidth=1;fontSize=16;" parent="ZqkVbiy7oSc-8THJX2Gc-11" edge="1">
                    <mxGeometry relative="1" as="geometry">
                        <mxPoint x="377" y="77" as="sourcePoint"/>
                        <mxPoint x="377" y="77" as="targetPoint"/>
                    </mxGeometry>
                </mxCell>
                <mxCell id="ZqkVbiy7oSc-8THJX2Gc-13" value="&lt;p style=&quot;margin-top: 0pt; margin-bottom: 0pt; margin-left: 0in; direction: ltr; unicode-bidi: embed; word-break: normal;&quot;&gt;&lt;font style=&quot;font-size: 15px;&quot;&gt;Export (xls, pdf, ppt)&lt;/font&gt;&lt;/p&gt;" style="rounded=0;whiteSpace=wrap;html=1;strokeColor=#0F828F;strokeWidth=2;fillColor=none;align=center;verticalAlign=middle;fontSize=11;fontFamily=Arial;container=1;recursiveResize=0;collapsible=0;fontColor=#595959;" parent="ZqkVbiy7oSc-8THJX2Gc-1" vertex="1">
                    <mxGeometry x="125" y="112.5" width="100" height="40" as="geometry"/>
                </mxCell>
                <mxCell id="ZqkVbiy7oSc-8THJX2Gc-14" style="edgeStyle=none;rounded=0;orthogonalLoop=1;jettySize=auto;html=1;entryX=0;entryY=0.5;entryDx=0;entryDy=0;dashed=1;startArrow=classic;startFill=1;endArrow=classic;endFill=1;strokeColor=#C0399F;strokeWidth=1;fontSize=16;" parent="ZqkVbiy7oSc-8THJX2Gc-13" edge="1">
                    <mxGeometry relative="1" as="geometry">
                        <mxPoint x="377" y="77" as="sourcePoint"/>
                        <mxPoint x="377" y="77" as="targetPoint"/>
                    </mxGeometry>
                </mxCell>
                <mxCell id="ZqkVbiy7oSc-8THJX2Gc-15" value="&lt;p style=&quot;margin-top: 0pt; margin-bottom: 0pt; margin-left: 0in; direction: ltr; unicode-bidi: embed; word-break: normal;&quot;&gt;&lt;font style=&quot;font-size: 15px;&quot;&gt;URL&amp;nbsp;&lt;/font&gt;&lt;/p&gt;&lt;p style=&quot;margin-top: 0pt; margin-bottom: 0pt; margin-left: 0in; direction: ltr; unicode-bidi: embed; word-break: normal;&quot;&gt;&lt;font style=&quot;font-size: 15px;&quot;&gt;sharing&lt;/font&gt;&lt;/p&gt;" style="rounded=0;whiteSpace=wrap;html=1;strokeColor=#0F828F;strokeWidth=2;fillColor=none;align=center;verticalAlign=middle;fontSize=11;fontFamily=Arial;container=1;recursiveResize=0;collapsible=0;fontColor=#595959;" parent="ZqkVbiy7oSc-8THJX2Gc-1" vertex="1">
                    <mxGeometry x="235" y="112.5" width="100" height="40" as="geometry"/>
                </mxCell>
                <mxCell id="ZqkVbiy7oSc-8THJX2Gc-16" style="edgeStyle=none;rounded=0;orthogonalLoop=1;jettySize=auto;html=1;entryX=0;entryY=0.5;entryDx=0;entryDy=0;dashed=1;startArrow=classic;startFill=1;endArrow=classic;endFill=1;strokeColor=#C0399F;strokeWidth=1;fontSize=16;" parent="ZqkVbiy7oSc-8THJX2Gc-15" edge="1">
                    <mxGeometry relative="1" as="geometry">
                        <mxPoint x="377" y="77" as="sourcePoint"/>
                        <mxPoint x="377" y="77" as="targetPoint"/>
                    </mxGeometry>
                </mxCell>
                <mxCell id="ZqkVbiy7oSc-8THJX2Gc-6" style="edgeStyle=orthogonalEdgeStyle;rounded=0;orthogonalLoop=1;jettySize=auto;html=1;exitX=0.5;exitY=1;exitDx=0;exitDy=0;" parent="1" source="ZqkVbiy7oSc-8THJX2Gc-1" target="ZqkVbiy7oSc-8THJX2Gc-1" edge="1">
                    <mxGeometry relative="1" as="geometry"/>
                </mxCell>
                <mxCell id="ZqkVbiy7oSc-8THJX2Gc-17" value="&lt;p style=&quot;margin-top: 6pt; margin-bottom: 0pt; margin-left: 0in; direction: ltr; unicode-bidi: embed; vertical-align: baseline; word-break: normal;&quot;&gt;&lt;font style=&quot;font-size: 20px;&quot;&gt;Augmented Analytics&lt;/font&gt;&lt;/p&gt;" style="rounded=0;whiteSpace=wrap;html=1;align=center;fontStyle=1;verticalAlign=top;strokeColor=#0A6ED1;fillColor=none;strokeWidth=2;fontSize=14;fontFamily=Arial;container=1;recursiveResize=0;collapsible=0;fontColor=#595959;" parent="1" vertex="1">
                    <mxGeometry x="410" y="40" width="350" height="200" as="geometry"/>
                </mxCell>
                <mxCell id="ZqkVbiy7oSc-8THJX2Gc-18" value="&lt;p style=&quot;margin-top: 0pt; margin-bottom: 0pt; margin-left: 0in; direction: ltr; unicode-bidi: embed; word-break: normal;&quot;&gt;&lt;font style=&quot;font-size: 15px;&quot;&gt;Intelligent Insights&lt;/font&gt;&lt;/p&gt;" style="rounded=0;whiteSpace=wrap;html=1;strokeColor=#0F828F;strokeWidth=2;fillColor=none;align=center;verticalAlign=middle;fontSize=11;fontFamily=Arial;container=1;recursiveResize=0;collapsible=0;fontColor=#595959;" parent="ZqkVbiy7oSc-8THJX2Gc-17" vertex="1">
                    <mxGeometry x="15" y="47.5" width="100" height="40" as="geometry"/>
                </mxCell>
                <mxCell id="ZqkVbiy7oSc-8THJX2Gc-19" style="edgeStyle=none;rounded=0;orthogonalLoop=1;jettySize=auto;html=1;entryX=0;entryY=0.5;entryDx=0;entryDy=0;dashed=1;startArrow=classic;startFill=1;endArrow=classic;endFill=1;strokeColor=#C0399F;strokeWidth=1;fontSize=16;" parent="ZqkVbiy7oSc-8THJX2Gc-18" edge="1">
                    <mxGeometry relative="1" as="geometry">
                        <mxPoint x="377" y="77" as="sourcePoint"/>
                        <mxPoint x="377" y="77" as="targetPoint"/>
                    </mxGeometry>
                </mxCell>
                <mxCell id="ZqkVbiy7oSc-8THJX2Gc-20" style="edgeStyle=orthogonalEdgeStyle;rounded=0;orthogonalLoop=1;jettySize=auto;html=1;exitX=0.5;exitY=1;exitDx=0;exitDy=0;fontFamily=Helvetica;fontSize=15;fontColor=#595959;strokeColor=#595959;strokeWidth=2;" parent="ZqkVbiy7oSc-8THJX2Gc-17" source="ZqkVbiy7oSc-8THJX2Gc-18" target="ZqkVbiy7oSc-8THJX2Gc-18" edge="1">
                    <mxGeometry relative="1" as="geometry"/>
                </mxCell>
                <mxCell id="ZqkVbiy7oSc-8THJX2Gc-21" value="&lt;p style=&quot;margin-top: 0pt; margin-bottom: 0pt; margin-left: 0in; direction: ltr; unicode-bidi: embed; word-break: normal;&quot;&gt;&lt;font style=&quot;font-size: 15px;&quot;&gt;Interactive&lt;/font&gt;&lt;/p&gt;&lt;p style=&quot;margin-top: 0pt; margin-bottom: 0pt; margin-left: 0in; direction: ltr; unicode-bidi: embed; word-break: normal;&quot;&gt;&lt;font style=&quot;font-size: 15px;&quot;&gt;NLP&lt;/font&gt;&lt;/p&gt;" style="rounded=0;whiteSpace=wrap;html=1;strokeColor=#0F828F;strokeWidth=2;fillColor=none;align=center;verticalAlign=middle;fontSize=11;fontFamily=Arial;container=1;recursiveResize=0;collapsible=0;fontColor=#595959;" parent="ZqkVbiy7oSc-8THJX2Gc-17" vertex="1">
                    <mxGeometry x="125" y="47.5" width="100" height="40" as="geometry"/>
                </mxCell>
                <mxCell id="ZqkVbiy7oSc-8THJX2Gc-22" style="edgeStyle=none;rounded=0;orthogonalLoop=1;jettySize=auto;html=1;entryX=0;entryY=0.5;entryDx=0;entryDy=0;dashed=1;startArrow=classic;startFill=1;endArrow=classic;endFill=1;strokeColor=#C0399F;strokeWidth=1;fontSize=16;" parent="ZqkVbiy7oSc-8THJX2Gc-21" edge="1">
                    <mxGeometry relative="1" as="geometry">
                        <mxPoint x="377" y="77" as="sourcePoint"/>
                        <mxPoint x="377" y="77" as="targetPoint"/>
                    </mxGeometry>
                </mxCell>
                <mxCell id="ZqkVbiy7oSc-8THJX2Gc-23" value="&lt;p style=&quot;margin-top: 0pt; margin-bottom: 0pt; margin-left: 0in; direction: ltr; unicode-bidi: embed; word-break: normal;&quot;&gt;&lt;font style=&quot;font-size: 15px;&quot;&gt;Automated&lt;/font&gt;&lt;/p&gt;&lt;p style=&quot;margin-top: 0pt; margin-bottom: 0pt; margin-left: 0in; direction: ltr; unicode-bidi: embed; word-break: normal;&quot;&gt;&lt;font style=&quot;font-size: 15px;&quot;&gt;Analytics&lt;/font&gt;&lt;/p&gt;" style="rounded=0;whiteSpace=wrap;html=1;strokeColor=#0F828F;strokeWidth=2;fillColor=none;align=center;verticalAlign=middle;fontSize=11;fontFamily=Arial;container=1;recursiveResize=0;collapsible=0;fontColor=#595959;" parent="ZqkVbiy7oSc-8THJX2Gc-17" vertex="1">
                    <mxGeometry x="235" y="47.5" width="100" height="40" as="geometry"/>
                </mxCell>
                <mxCell id="ZqkVbiy7oSc-8THJX2Gc-24" style="edgeStyle=none;rounded=0;orthogonalLoop=1;jettySize=auto;html=1;entryX=0;entryY=0.5;entryDx=0;entryDy=0;dashed=1;startArrow=classic;startFill=1;endArrow=classic;endFill=1;strokeColor=#C0399F;strokeWidth=1;fontSize=16;" parent="ZqkVbiy7oSc-8THJX2Gc-23" edge="1">
                    <mxGeometry relative="1" as="geometry">
                        <mxPoint x="377" y="77" as="sourcePoint"/>
                        <mxPoint x="377" y="77" as="targetPoint"/>
                    </mxGeometry>
                </mxCell>
                <mxCell id="ZqkVbiy7oSc-8THJX2Gc-25" value="&lt;p style=&quot;margin-top: 0pt; margin-bottom: 0pt; margin-left: 0in; direction: ltr; unicode-bidi: embed; word-break: normal;&quot;&gt;&lt;font style=&quot;font-size: 15px;&quot;&gt;Predictive&lt;/font&gt;&lt;/p&gt;&lt;p style=&quot;margin-top: 0pt; margin-bottom: 0pt; margin-left: 0in; direction: ltr; unicode-bidi: embed; word-break: normal;&quot;&gt;&lt;font style=&quot;font-size: 15px;&quot;&gt;Forecast&lt;/font&gt;&lt;/p&gt;" style="rounded=0;whiteSpace=wrap;html=1;strokeColor=#0F828F;strokeWidth=2;fillColor=none;align=center;verticalAlign=middle;fontSize=11;fontFamily=Arial;container=1;recursiveResize=0;collapsible=0;fontColor=#595959;" parent="ZqkVbiy7oSc-8THJX2Gc-17" vertex="1">
                    <mxGeometry x="15" y="112.5" width="100" height="40" as="geometry"/>
                </mxCell>
                <mxCell id="ZqkVbiy7oSc-8THJX2Gc-26" style="edgeStyle=none;rounded=0;orthogonalLoop=1;jettySize=auto;html=1;entryX=0;entryY=0.5;entryDx=0;entryDy=0;dashed=1;startArrow=classic;startFill=1;endArrow=classic;endFill=1;strokeColor=#C0399F;strokeWidth=1;fontSize=16;" parent="ZqkVbiy7oSc-8THJX2Gc-25" edge="1">
                    <mxGeometry relative="1" as="geometry">
                        <mxPoint x="377" y="77" as="sourcePoint"/>
                        <mxPoint x="377" y="77" as="targetPoint"/>
                    </mxGeometry>
                </mxCell>
                <mxCell id="ZqkVbiy7oSc-8THJX2Gc-27" value="&lt;p style=&quot;margin-top: 0pt; margin-bottom: 0pt; margin-left: 0in; direction: ltr; unicode-bidi: embed; word-break: normal;&quot;&gt;&lt;font style=&quot;font-size: 15px;&quot;&gt;Predictive&lt;/font&gt;&lt;/p&gt;&lt;p style=&quot;margin-top: 0pt; margin-bottom: 0pt; margin-left: 0in; direction: ltr; unicode-bidi: embed; word-break: normal;&quot;&gt;&lt;font style=&quot;font-size: 15px;&quot;&gt;Scenarios&lt;/font&gt;&lt;/p&gt;" style="rounded=0;whiteSpace=wrap;html=1;strokeColor=#0F828F;strokeWidth=2;fillColor=none;align=center;verticalAlign=middle;fontSize=11;fontFamily=Arial;container=1;recursiveResize=0;collapsible=0;fontColor=#595959;" parent="ZqkVbiy7oSc-8THJX2Gc-17" vertex="1">
                    <mxGeometry x="125" y="112.5" width="100" height="40" as="geometry"/>
                </mxCell>
                <mxCell id="ZqkVbiy7oSc-8THJX2Gc-28" style="edgeStyle=none;rounded=0;orthogonalLoop=1;jettySize=auto;html=1;entryX=0;entryY=0.5;entryDx=0;entryDy=0;dashed=1;startArrow=classic;startFill=1;endArrow=classic;endFill=1;strokeColor=#C0399F;strokeWidth=1;fontSize=16;" parent="ZqkVbiy7oSc-8THJX2Gc-27" edge="1">
                    <mxGeometry relative="1" as="geometry">
                        <mxPoint x="377" y="77" as="sourcePoint"/>
                        <mxPoint x="377" y="77" as="targetPoint"/>
                    </mxGeometry>
                </mxCell>
                <mxCell id="ZqkVbiy7oSc-8THJX2Gc-29" value="&lt;p style=&quot;margin-top: 0pt; margin-bottom: 0pt; margin-left: 0in; direction: ltr; unicode-bidi: embed; word-break: normal;&quot;&gt;&lt;font style=&quot;font-size: 15px;&quot;&gt;Automatic&lt;/font&gt;&lt;/p&gt;&lt;p style=&quot;margin-top: 0pt; margin-bottom: 0pt; margin-left: 0in; direction: ltr; unicode-bidi: embed; word-break: normal;&quot;&gt;&lt;font style=&quot;font-size: 15px;&quot;&gt;Grouping&lt;/font&gt;&lt;/p&gt;" style="rounded=0;whiteSpace=wrap;html=1;strokeColor=#0F828F;strokeWidth=2;fillColor=none;align=center;verticalAlign=middle;fontSize=11;fontFamily=Arial;container=1;recursiveResize=0;collapsible=0;fontColor=#595959;" parent="ZqkVbiy7oSc-8THJX2Gc-17" vertex="1">
                    <mxGeometry x="235" y="112.5" width="100" height="40" as="geometry"/>
                </mxCell>
                <mxCell id="ZqkVbiy7oSc-8THJX2Gc-30" style="edgeStyle=none;rounded=0;orthogonalLoop=1;jettySize=auto;html=1;entryX=0;entryY=0.5;entryDx=0;entryDy=0;dashed=1;startArrow=classic;startFill=1;endArrow=classic;endFill=1;strokeColor=#C0399F;strokeWidth=1;fontSize=16;" parent="ZqkVbiy7oSc-8THJX2Gc-29" edge="1">
                    <mxGeometry relative="1" as="geometry">
                        <mxPoint x="377" y="77" as="sourcePoint"/>
                        <mxPoint x="377" y="77" as="targetPoint"/>
                    </mxGeometry>
                </mxCell>
                <mxCell id="ZqkVbiy7oSc-8THJX2Gc-31" value="&lt;p style=&quot;margin-top: 6pt; margin-bottom: 0pt; margin-left: 0in; direction: ltr; unicode-bidi: embed; vertical-align: baseline; word-break: normal;&quot;&gt;&lt;font style=&quot;font-size: 20px;&quot;&gt;Accessebility&lt;/font&gt;&lt;/p&gt;" style="rounded=0;whiteSpace=wrap;html=1;align=center;fontStyle=1;verticalAlign=top;strokeColor=#0A6ED1;fillColor=none;strokeWidth=2;fontSize=14;fontFamily=Arial;container=1;recursiveResize=0;collapsible=0;fontColor=#595959;" parent="1" vertex="1">
                    <mxGeometry x="590" y="260" width="170" height="400" as="geometry"/>
                </mxCell>
                <mxCell id="ZqkVbiy7oSc-8THJX2Gc-32" value="&lt;p style=&quot;margin-top: 0pt; margin-bottom: 0pt; margin-left: 0in; direction: ltr; unicode-bidi: embed; word-break: normal;&quot;&gt;&lt;font style=&quot;font-size: 15px;&quot;&gt;MS Office&lt;/font&gt;&lt;/p&gt;" style="rounded=0;whiteSpace=wrap;html=1;strokeColor=#0F828F;strokeWidth=2;fillColor=none;align=center;verticalAlign=middle;fontSize=11;fontFamily=Arial;container=1;recursiveResize=0;collapsible=0;fontColor=#595959;" parent="ZqkVbiy7oSc-8THJX2Gc-31" vertex="1">
                    <mxGeometry x="35" y="194.5" width="100" height="40" as="geometry"/>
                </mxCell>
                <mxCell id="ZqkVbiy7oSc-8THJX2Gc-33" style="edgeStyle=none;rounded=0;orthogonalLoop=1;jettySize=auto;html=1;entryX=0;entryY=0.5;entryDx=0;entryDy=0;dashed=1;startArrow=classic;startFill=1;endArrow=classic;endFill=1;strokeColor=#C0399F;strokeWidth=1;fontSize=16;" parent="ZqkVbiy7oSc-8THJX2Gc-32" edge="1">
                    <mxGeometry relative="1" as="geometry">
                        <mxPoint x="377" y="77" as="sourcePoint"/>
                        <mxPoint x="377" y="77" as="targetPoint"/>
                    </mxGeometry>
                </mxCell>
                <mxCell id="ZqkVbiy7oSc-8THJX2Gc-34" style="edgeStyle=orthogonalEdgeStyle;rounded=0;orthogonalLoop=1;jettySize=auto;html=1;exitX=0.5;exitY=1;exitDx=0;exitDy=0;fontFamily=Helvetica;fontSize=15;fontColor=#595959;strokeColor=#595959;strokeWidth=2;" parent="ZqkVbiy7oSc-8THJX2Gc-31" source="ZqkVbiy7oSc-8THJX2Gc-32" target="ZqkVbiy7oSc-8THJX2Gc-32" edge="1">
                    <mxGeometry relative="1" as="geometry"/>
                </mxCell>
                <mxCell id="ZqkVbiy7oSc-8THJX2Gc-37" value="&lt;p style=&quot;margin-top: 0pt; margin-bottom: 0pt; margin-left: 0in; direction: ltr; unicode-bidi: embed; word-break: normal;&quot;&gt;&lt;font style=&quot;font-size: 15px;&quot;&gt;Mobile&lt;/font&gt;&lt;/p&gt;" style="rounded=0;whiteSpace=wrap;html=1;strokeColor=#0F828F;strokeWidth=2;fillColor=none;align=center;verticalAlign=middle;fontSize=11;fontFamily=Arial;container=1;recursiveResize=0;collapsible=0;fontColor=#595959;" parent="ZqkVbiy7oSc-8THJX2Gc-31" vertex="1">
                    <mxGeometry x="35" y="70" width="100" height="40" as="geometry"/>
                </mxCell>
                <mxCell id="ZqkVbiy7oSc-8THJX2Gc-38" style="edgeStyle=none;rounded=0;orthogonalLoop=1;jettySize=auto;html=1;entryX=0;entryY=0.5;entryDx=0;entryDy=0;dashed=1;startArrow=classic;startFill=1;endArrow=classic;endFill=1;strokeColor=#C0399F;strokeWidth=1;fontSize=16;" parent="ZqkVbiy7oSc-8THJX2Gc-37" edge="1">
                    <mxGeometry relative="1" as="geometry">
                        <mxPoint x="377" y="77" as="sourcePoint"/>
                        <mxPoint x="377" y="77" as="targetPoint"/>
                    </mxGeometry>
                </mxCell>
                <mxCell id="ZqkVbiy7oSc-8THJX2Gc-39" value="&lt;p style=&quot;margin-top: 0pt; margin-bottom: 0pt; margin-left: 0in; direction: ltr; unicode-bidi: embed; word-break: normal;&quot;&gt;&lt;font style=&quot;font-size: 15px;&quot;&gt;Embedding&lt;/font&gt;&lt;/p&gt;" style="rounded=0;whiteSpace=wrap;html=1;strokeColor=#0F828F;strokeWidth=2;fillColor=none;align=center;verticalAlign=middle;fontSize=11;fontFamily=Arial;container=1;recursiveResize=0;collapsible=0;fontColor=#595959;" parent="ZqkVbiy7oSc-8THJX2Gc-31" vertex="1">
                    <mxGeometry x="35" y="259.5" width="100" height="40" as="geometry"/>
                </mxCell>
                <mxCell id="ZqkVbiy7oSc-8THJX2Gc-40" style="edgeStyle=none;rounded=0;orthogonalLoop=1;jettySize=auto;html=1;entryX=0;entryY=0.5;entryDx=0;entryDy=0;dashed=1;startArrow=classic;startFill=1;endArrow=classic;endFill=1;strokeColor=#C0399F;strokeWidth=1;fontSize=16;" parent="ZqkVbiy7oSc-8THJX2Gc-39" edge="1">
                    <mxGeometry relative="1" as="geometry">
                        <mxPoint x="377" y="77" as="sourcePoint"/>
                        <mxPoint x="377" y="77" as="targetPoint"/>
                    </mxGeometry>
                </mxCell>
                <mxCell id="ZqkVbiy7oSc-8THJX2Gc-41" value="&lt;p style=&quot;margin-top: 0pt; margin-bottom: 0pt; margin-left: 0in; direction: ltr; unicode-bidi: embed; word-break: normal;&quot;&gt;&lt;font style=&quot;font-size: 15px;&quot;&gt;Search&lt;/font&gt;&lt;/p&gt;" style="rounded=0;whiteSpace=wrap;html=1;strokeColor=#0F828F;strokeWidth=2;fillColor=none;align=center;verticalAlign=middle;fontSize=11;fontFamily=Arial;container=1;recursiveResize=0;collapsible=0;fontColor=#595959;" parent="ZqkVbiy7oSc-8THJX2Gc-31" vertex="1">
                    <mxGeometry x="35" y="322" width="100" height="40" as="geometry"/>
                </mxCell>
                <mxCell id="ZqkVbiy7oSc-8THJX2Gc-42" style="edgeStyle=none;rounded=0;orthogonalLoop=1;jettySize=auto;html=1;entryX=0;entryY=0.5;entryDx=0;entryDy=0;dashed=1;startArrow=classic;startFill=1;endArrow=classic;endFill=1;strokeColor=#C0399F;strokeWidth=1;fontSize=16;" parent="ZqkVbiy7oSc-8THJX2Gc-41" edge="1">
                    <mxGeometry relative="1" as="geometry">
                        <mxPoint x="377" y="77" as="sourcePoint"/>
                        <mxPoint x="377" y="77" as="targetPoint"/>
                    </mxGeometry>
                </mxCell>
                <mxCell id="ZqkVbiy7oSc-8THJX2Gc-43" value="&lt;p style=&quot;margin-top: 0pt; margin-bottom: 0pt; margin-left: 0in; direction: ltr; unicode-bidi: embed; word-break: normal;&quot;&gt;&lt;font style=&quot;font-size: 15px;&quot;&gt;Browser&lt;/font&gt;&lt;/p&gt;" style="rounded=0;whiteSpace=wrap;html=1;strokeColor=#0F828F;strokeWidth=2;fillColor=none;align=center;verticalAlign=middle;fontSize=11;fontFamily=Arial;container=1;recursiveResize=0;collapsible=0;fontColor=#595959;" parent="ZqkVbiy7oSc-8THJX2Gc-31" vertex="1">
                    <mxGeometry x="35" y="135" width="100" height="40" as="geometry"/>
                </mxCell>
                <mxCell id="ZqkVbiy7oSc-8THJX2Gc-44" style="edgeStyle=none;rounded=0;orthogonalLoop=1;jettySize=auto;html=1;entryX=0;entryY=0.5;entryDx=0;entryDy=0;dashed=1;startArrow=classic;startFill=1;endArrow=classic;endFill=1;strokeColor=#C0399F;strokeWidth=1;fontSize=16;" parent="ZqkVbiy7oSc-8THJX2Gc-43" edge="1">
                    <mxGeometry relative="1" as="geometry">
                        <mxPoint x="377" y="77" as="sourcePoint"/>
                        <mxPoint x="377" y="77" as="targetPoint"/>
                    </mxGeometry>
                </mxCell>
                <mxCell id="ZqkVbiy7oSc-8THJX2Gc-57" value="&lt;p style=&quot;margin-top: 6pt; margin-bottom: 0pt; margin-left: 0in; direction: ltr; unicode-bidi: embed; vertical-align: baseline; word-break: normal;&quot;&gt;&lt;font style=&quot;font-size: 20px;&quot;&gt;Data Preperation&lt;/font&gt;&lt;/p&gt;" style="rounded=0;whiteSpace=wrap;html=1;align=center;fontStyle=1;verticalAlign=top;strokeColor=#0A6ED1;fillColor=none;strokeWidth=2;fontSize=14;fontFamily=Arial;container=1;recursiveResize=0;collapsible=0;fontColor=#595959;" parent="1" vertex="1">
                    <mxGeometry x="40" y="480" width="240" height="180" as="geometry"/>
                </mxCell>
                <mxCell id="ZqkVbiy7oSc-8THJX2Gc-58" value="&lt;p style=&quot;margin-top: 0pt; margin-bottom: 0pt; margin-left: 0in; direction: ltr; unicode-bidi: embed; word-break: normal;&quot;&gt;&lt;font style=&quot;font-size: 15px;&quot;&gt;Data Upload&lt;/font&gt;&lt;/p&gt;" style="rounded=0;whiteSpace=wrap;html=1;strokeColor=#0F828F;strokeWidth=2;fillColor=none;align=center;verticalAlign=middle;fontSize=11;fontFamily=Arial;container=1;recursiveResize=0;collapsible=0;fontColor=#595959;" parent="ZqkVbiy7oSc-8THJX2Gc-57" vertex="1">
                    <mxGeometry x="15" y="48" width="100" height="40" as="geometry"/>
                </mxCell>
                <mxCell id="ZqkVbiy7oSc-8THJX2Gc-59" style="edgeStyle=none;rounded=0;orthogonalLoop=1;jettySize=auto;html=1;entryX=0;entryY=0.5;entryDx=0;entryDy=0;dashed=1;startArrow=classic;startFill=1;endArrow=classic;endFill=1;strokeColor=#C0399F;strokeWidth=1;fontSize=16;" parent="ZqkVbiy7oSc-8THJX2Gc-58" edge="1">
                    <mxGeometry relative="1" as="geometry">
                        <mxPoint x="377" y="77" as="sourcePoint"/>
                        <mxPoint x="377" y="77" as="targetPoint"/>
                    </mxGeometry>
                </mxCell>
                <mxCell id="ZqkVbiy7oSc-8THJX2Gc-60" style="edgeStyle=orthogonalEdgeStyle;rounded=0;orthogonalLoop=1;jettySize=auto;html=1;exitX=0.5;exitY=1;exitDx=0;exitDy=0;fontFamily=Helvetica;fontSize=15;fontColor=#595959;strokeColor=#595959;strokeWidth=2;" parent="ZqkVbiy7oSc-8THJX2Gc-57" source="ZqkVbiy7oSc-8THJX2Gc-58" target="ZqkVbiy7oSc-8THJX2Gc-58" edge="1">
                    <mxGeometry relative="1" as="geometry"/>
                </mxCell>
                <mxCell id="ZqkVbiy7oSc-8THJX2Gc-61" value="&lt;p style=&quot;margin-top: 0pt; margin-bottom: 0pt; margin-left: 0in; direction: ltr; unicode-bidi: embed; word-break: normal;&quot;&gt;&lt;font style=&quot;font-size: 15px;&quot;&gt;Blending&lt;/font&gt;&lt;/p&gt;" style="rounded=0;whiteSpace=wrap;html=1;strokeColor=#0F828F;strokeWidth=2;fillColor=none;align=center;verticalAlign=middle;fontSize=11;fontFamily=Arial;container=1;recursiveResize=0;collapsible=0;fontColor=#595959;" parent="ZqkVbiy7oSc-8THJX2Gc-57" vertex="1">
                    <mxGeometry x="125" y="48" width="100" height="40" as="geometry"/>
                </mxCell>
                <mxCell id="ZqkVbiy7oSc-8THJX2Gc-62" style="edgeStyle=none;rounded=0;orthogonalLoop=1;jettySize=auto;html=1;entryX=0;entryY=0.5;entryDx=0;entryDy=0;dashed=1;startArrow=classic;startFill=1;endArrow=classic;endFill=1;strokeColor=#C0399F;strokeWidth=1;fontSize=16;" parent="ZqkVbiy7oSc-8THJX2Gc-61" edge="1">
                    <mxGeometry relative="1" as="geometry">
                        <mxPoint x="377" y="77" as="sourcePoint"/>
                        <mxPoint x="377" y="77" as="targetPoint"/>
                    </mxGeometry>
                </mxCell>
                <mxCell id="ZqkVbiy7oSc-8THJX2Gc-65" value="&lt;p style=&quot;margin-top: 0pt; margin-bottom: 0pt; margin-left: 0in; direction: ltr; unicode-bidi: embed; word-break: normal;&quot;&gt;&lt;font style=&quot;font-size: 15px;&quot;&gt;Data&lt;/font&gt;&lt;/p&gt;&lt;p style=&quot;margin-top: 0pt; margin-bottom: 0pt; margin-left: 0in; direction: ltr; unicode-bidi: embed; word-break: normal;&quot;&gt;&lt;font style=&quot;font-size: 15px;&quot;&gt;Transformation&lt;/font&gt;&lt;/p&gt;" style="rounded=0;whiteSpace=wrap;html=1;strokeColor=#0F828F;strokeWidth=2;fillColor=none;align=center;verticalAlign=middle;fontSize=11;fontFamily=Arial;container=1;recursiveResize=0;collapsible=0;fontColor=#595959;" parent="ZqkVbiy7oSc-8THJX2Gc-57" vertex="1">
                    <mxGeometry x="15" y="113" width="100" height="40" as="geometry"/>
                </mxCell>
                <mxCell id="ZqkVbiy7oSc-8THJX2Gc-66" style="edgeStyle=none;rounded=0;orthogonalLoop=1;jettySize=auto;html=1;entryX=0;entryY=0.5;entryDx=0;entryDy=0;dashed=1;startArrow=classic;startFill=1;endArrow=classic;endFill=1;strokeColor=#C0399F;strokeWidth=1;fontSize=16;" parent="ZqkVbiy7oSc-8THJX2Gc-65" edge="1">
                    <mxGeometry relative="1" as="geometry">
                        <mxPoint x="377" y="77" as="sourcePoint"/>
                        <mxPoint x="377" y="77" as="targetPoint"/>
                    </mxGeometry>
                </mxCell>
                <mxCell id="ZqkVbiy7oSc-8THJX2Gc-67" value="&lt;p style=&quot;margin-top: 0pt; margin-bottom: 0pt; margin-left: 0in; direction: ltr; unicode-bidi: embed; word-break: normal;&quot;&gt;&lt;font style=&quot;font-size: 15px;&quot;&gt;Calculations&lt;/font&gt;&lt;/p&gt;" style="rounded=0;whiteSpace=wrap;html=1;strokeColor=#0F828F;strokeWidth=2;fillColor=none;align=center;verticalAlign=middle;fontSize=11;fontFamily=Arial;container=1;recursiveResize=0;collapsible=0;fontColor=#595959;" parent="ZqkVbiy7oSc-8THJX2Gc-57" vertex="1">
                    <mxGeometry x="125" y="113" width="100" height="40" as="geometry"/>
                </mxCell>
                <mxCell id="ZqkVbiy7oSc-8THJX2Gc-68" style="edgeStyle=none;rounded=0;orthogonalLoop=1;jettySize=auto;html=1;entryX=0;entryY=0.5;entryDx=0;entryDy=0;dashed=1;startArrow=classic;startFill=1;endArrow=classic;endFill=1;strokeColor=#C0399F;strokeWidth=1;fontSize=16;" parent="ZqkVbiy7oSc-8THJX2Gc-67" edge="1">
                    <mxGeometry relative="1" as="geometry">
                        <mxPoint x="377" y="77" as="sourcePoint"/>
                        <mxPoint x="377" y="77" as="targetPoint"/>
                    </mxGeometry>
                </mxCell>
                <mxCell id="ZqkVbiy7oSc-8THJX2Gc-71" value="&lt;p style=&quot;margin-top: 6pt; margin-bottom: 0pt; margin-left: 0in; direction: ltr; unicode-bidi: embed; vertical-align: baseline; word-break: normal;&quot;&gt;&lt;font style=&quot;font-size: 20px;&quot;&gt;Content&lt;/font&gt;&lt;/p&gt;" style="rounded=0;whiteSpace=wrap;html=1;align=center;fontStyle=1;verticalAlign=top;strokeColor=#0A6ED1;fillColor=none;strokeWidth=2;fontSize=14;fontFamily=Arial;container=1;recursiveResize=0;collapsible=0;fontColor=#595959;" parent="1" vertex="1">
                    <mxGeometry x="320" y="480" width="240" height="180" as="geometry"/>
                </mxCell>
                <mxCell id="ZqkVbiy7oSc-8THJX2Gc-72" value="&lt;p style=&quot;margin-top: 0pt; margin-bottom: 0pt; margin-left: 0in; direction: ltr; unicode-bidi: embed; word-break: normal;&quot;&gt;&lt;font style=&quot;font-size: 15px;&quot;&gt;LoB&lt;/font&gt;&lt;/p&gt;&lt;p style=&quot;margin-top: 0pt; margin-bottom: 0pt; margin-left: 0in; direction: ltr; unicode-bidi: embed; word-break: normal;&quot;&gt;&lt;font style=&quot;font-size: 15px;&quot;&gt;specific&lt;/font&gt;&lt;/p&gt;" style="rounded=0;whiteSpace=wrap;html=1;strokeColor=#0F828F;strokeWidth=2;fillColor=none;align=center;verticalAlign=middle;fontSize=11;fontFamily=Arial;container=1;recursiveResize=0;collapsible=0;fontColor=#595959;" parent="ZqkVbiy7oSc-8THJX2Gc-71" vertex="1">
                    <mxGeometry x="15" y="48" width="100" height="40" as="geometry"/>
                </mxCell>
                <mxCell id="ZqkVbiy7oSc-8THJX2Gc-73" style="edgeStyle=none;rounded=0;orthogonalLoop=1;jettySize=auto;html=1;entryX=0;entryY=0.5;entryDx=0;entryDy=0;dashed=1;startArrow=classic;startFill=1;endArrow=classic;endFill=1;strokeColor=#C0399F;strokeWidth=1;fontSize=16;" parent="ZqkVbiy7oSc-8THJX2Gc-72" edge="1">
                    <mxGeometry relative="1" as="geometry">
                        <mxPoint x="377" y="77" as="sourcePoint"/>
                        <mxPoint x="377" y="77" as="targetPoint"/>
                    </mxGeometry>
                </mxCell>
                <mxCell id="ZqkVbiy7oSc-8THJX2Gc-74" style="edgeStyle=orthogonalEdgeStyle;rounded=0;orthogonalLoop=1;jettySize=auto;html=1;exitX=0.5;exitY=1;exitDx=0;exitDy=0;fontFamily=Helvetica;fontSize=15;fontColor=#595959;strokeColor=#595959;strokeWidth=2;" parent="ZqkVbiy7oSc-8THJX2Gc-71" source="ZqkVbiy7oSc-8THJX2Gc-72" target="ZqkVbiy7oSc-8THJX2Gc-72" edge="1">
                    <mxGeometry relative="1" as="geometry"/>
                </mxCell>
                <mxCell id="ZqkVbiy7oSc-8THJX2Gc-75" value="&lt;p style=&quot;margin-top: 0pt; margin-bottom: 0pt; margin-left: 0in; direction: ltr; unicode-bidi: embed; word-break: normal;&quot;&gt;&lt;font style=&quot;font-size: 15px;&quot;&gt;Templates&lt;/font&gt;&lt;/p&gt;" style="rounded=0;whiteSpace=wrap;html=1;strokeColor=#0F828F;strokeWidth=2;fillColor=none;align=center;verticalAlign=middle;fontSize=11;fontFamily=Arial;container=1;recursiveResize=0;collapsible=0;fontColor=#595959;" parent="ZqkVbiy7oSc-8THJX2Gc-71" vertex="1">
                    <mxGeometry x="125" y="48" width="100" height="40" as="geometry"/>
                </mxCell>
                <mxCell id="ZqkVbiy7oSc-8THJX2Gc-76" style="edgeStyle=none;rounded=0;orthogonalLoop=1;jettySize=auto;html=1;entryX=0;entryY=0.5;entryDx=0;entryDy=0;dashed=1;startArrow=classic;startFill=1;endArrow=classic;endFill=1;strokeColor=#C0399F;strokeWidth=1;fontSize=16;" parent="ZqkVbiy7oSc-8THJX2Gc-75" edge="1">
                    <mxGeometry relative="1" as="geometry">
                        <mxPoint x="377" y="77" as="sourcePoint"/>
                        <mxPoint x="377" y="77" as="targetPoint"/>
                    </mxGeometry>
                </mxCell>
                <mxCell id="ZqkVbiy7oSc-8THJX2Gc-77" value="&lt;p style=&quot;margin-top: 0pt; margin-bottom: 0pt; margin-left: 0in; direction: ltr; unicode-bidi: embed; word-break: normal;&quot;&gt;&lt;font style=&quot;font-size: 15px;&quot;&gt;Solution&lt;/font&gt;&lt;/p&gt;&lt;p style=&quot;margin-top: 0pt; margin-bottom: 0pt; margin-left: 0in; direction: ltr; unicode-bidi: embed; word-break: normal;&quot;&gt;&lt;font style=&quot;font-size: 15px;&quot;&gt;specific&lt;/font&gt;&lt;/p&gt;" style="rounded=0;whiteSpace=wrap;html=1;strokeColor=#0F828F;strokeWidth=2;fillColor=none;align=center;verticalAlign=middle;fontSize=11;fontFamily=Arial;container=1;recursiveResize=0;collapsible=0;fontColor=#595959;" parent="ZqkVbiy7oSc-8THJX2Gc-71" vertex="1">
                    <mxGeometry x="15" y="113" width="100" height="40" as="geometry"/>
                </mxCell>
                <mxCell id="ZqkVbiy7oSc-8THJX2Gc-78" style="edgeStyle=none;rounded=0;orthogonalLoop=1;jettySize=auto;html=1;entryX=0;entryY=0.5;entryDx=0;entryDy=0;dashed=1;startArrow=classic;startFill=1;endArrow=classic;endFill=1;strokeColor=#C0399F;strokeWidth=1;fontSize=16;" parent="ZqkVbiy7oSc-8THJX2Gc-77" edge="1">
                    <mxGeometry relative="1" as="geometry">
                        <mxPoint x="377" y="77" as="sourcePoint"/>
                        <mxPoint x="377" y="77" as="targetPoint"/>
                    </mxGeometry>
                </mxCell>
                <mxCell id="ZqkVbiy7oSc-8THJX2Gc-79" value="&lt;p style=&quot;margin-top: 0pt; margin-bottom: 0pt; margin-left: 0in; direction: ltr; unicode-bidi: embed; word-break: normal;&quot;&gt;&lt;font style=&quot;font-size: 15px;&quot;&gt;Industry&lt;/font&gt;&lt;/p&gt;&lt;p style=&quot;margin-top: 0pt; margin-bottom: 0pt; margin-left: 0in; direction: ltr; unicode-bidi: embed; word-break: normal;&quot;&gt;&lt;font style=&quot;font-size: 15px;&quot;&gt;specific&lt;/font&gt;&lt;/p&gt;" style="rounded=0;whiteSpace=wrap;html=1;strokeColor=#0F828F;strokeWidth=2;fillColor=none;align=center;verticalAlign=middle;fontSize=11;fontFamily=Arial;container=1;recursiveResize=0;collapsible=0;fontColor=#595959;" parent="ZqkVbiy7oSc-8THJX2Gc-71" vertex="1">
                    <mxGeometry x="125" y="113" width="100" height="40" as="geometry"/>
                </mxCell>
                <mxCell id="ZqkVbiy7oSc-8THJX2Gc-80" style="edgeStyle=none;rounded=0;orthogonalLoop=1;jettySize=auto;html=1;entryX=0;entryY=0.5;entryDx=0;entryDy=0;dashed=1;startArrow=classic;startFill=1;endArrow=classic;endFill=1;strokeColor=#C0399F;strokeWidth=1;fontSize=16;" parent="ZqkVbiy7oSc-8THJX2Gc-79" edge="1">
                    <mxGeometry relative="1" as="geometry">
                        <mxPoint x="377" y="77" as="sourcePoint"/>
                        <mxPoint x="377" y="77" as="targetPoint"/>
                    </mxGeometry>
                </mxCell>
                <mxCell id="ZqkVbiy7oSc-8THJX2Gc-81" value="&lt;p style=&quot;margin-top: 6pt; margin-bottom: 0pt; margin-left: 0in; direction: ltr; unicode-bidi: embed; vertical-align: baseline; word-break: normal;&quot;&gt;&lt;font style=&quot;font-size: 20px;&quot;&gt;Data Visualization&lt;/font&gt;&lt;/p&gt;" style="rounded=0;whiteSpace=wrap;html=1;align=center;fontStyle=1;verticalAlign=top;strokeColor=#0A6ED1;fillColor=none;strokeWidth=2;fontSize=14;fontFamily=Arial;container=1;recursiveResize=0;collapsible=0;fontColor=#595959;" parent="1" vertex="1">
                    <mxGeometry x="40" y="260" width="460" height="200" as="geometry"/>
                </mxCell>
                <mxCell id="ZqkVbiy7oSc-8THJX2Gc-82" value="&lt;p style=&quot;margin-top: 0pt; margin-bottom: 0pt; margin-left: 0in; direction: ltr; unicode-bidi: embed; word-break: normal;&quot;&gt;&lt;font style=&quot;font-size: 15px;&quot;&gt;Pagination&lt;/font&gt;&lt;/p&gt;" style="rounded=0;whiteSpace=wrap;html=1;strokeColor=#0F828F;strokeWidth=2;fillColor=none;align=center;verticalAlign=middle;fontSize=11;fontFamily=Arial;container=1;recursiveResize=0;collapsible=0;fontColor=#595959;" parent="ZqkVbiy7oSc-8THJX2Gc-81" vertex="1">
                    <mxGeometry x="15" y="47.5" width="100" height="40" as="geometry"/>
                </mxCell>
                <mxCell id="ZqkVbiy7oSc-8THJX2Gc-83" style="edgeStyle=none;rounded=0;orthogonalLoop=1;jettySize=auto;html=1;entryX=0;entryY=0.5;entryDx=0;entryDy=0;dashed=1;startArrow=classic;startFill=1;endArrow=classic;endFill=1;strokeColor=#C0399F;strokeWidth=1;fontSize=16;" parent="ZqkVbiy7oSc-8THJX2Gc-82" edge="1">
                    <mxGeometry relative="1" as="geometry">
                        <mxPoint x="377" y="77" as="sourcePoint"/>
                        <mxPoint x="377" y="77" as="targetPoint"/>
                    </mxGeometry>
                </mxCell>
                <mxCell id="ZqkVbiy7oSc-8THJX2Gc-84" style="edgeStyle=orthogonalEdgeStyle;rounded=0;orthogonalLoop=1;jettySize=auto;html=1;exitX=0.5;exitY=1;exitDx=0;exitDy=0;fontFamily=Helvetica;fontSize=15;fontColor=#595959;strokeColor=#595959;strokeWidth=2;" parent="ZqkVbiy7oSc-8THJX2Gc-81" source="ZqkVbiy7oSc-8THJX2Gc-82" target="ZqkVbiy7oSc-8THJX2Gc-82" edge="1">
                    <mxGeometry relative="1" as="geometry"/>
                </mxCell>
                <mxCell id="ZqkVbiy7oSc-8THJX2Gc-85" value="&lt;p style=&quot;margin-top: 0pt; margin-bottom: 0pt; margin-left: 0in; direction: ltr; unicode-bidi: embed; word-break: normal;&quot;&gt;&lt;font style=&quot;font-size: 15px;&quot;&gt;GeoMaps&lt;/font&gt;&lt;/p&gt;" style="rounded=0;whiteSpace=wrap;html=1;strokeColor=#0F828F;strokeWidth=2;fillColor=none;align=center;verticalAlign=middle;fontSize=11;fontFamily=Arial;container=1;recursiveResize=0;collapsible=0;fontColor=#595959;" parent="ZqkVbiy7oSc-8THJX2Gc-81" vertex="1">
                    <mxGeometry x="125" y="47.5" width="100" height="40" as="geometry"/>
                </mxCell>
                <mxCell id="ZqkVbiy7oSc-8THJX2Gc-86" style="edgeStyle=none;rounded=0;orthogonalLoop=1;jettySize=auto;html=1;entryX=0;entryY=0.5;entryDx=0;entryDy=0;dashed=1;startArrow=classic;startFill=1;endArrow=classic;endFill=1;strokeColor=#C0399F;strokeWidth=1;fontSize=16;" parent="ZqkVbiy7oSc-8THJX2Gc-85" edge="1">
                    <mxGeometry relative="1" as="geometry">
                        <mxPoint x="377" y="77" as="sourcePoint"/>
                        <mxPoint x="377" y="77" as="targetPoint"/>
                    </mxGeometry>
                </mxCell>
                <mxCell id="ZqkVbiy7oSc-8THJX2Gc-87" value="&lt;p style=&quot;margin-top: 0pt; margin-bottom: 0pt; margin-left: 0in; direction: ltr; unicode-bidi: embed; word-break: normal;&quot;&gt;&lt;font style=&quot;font-size: 15px;&quot;&gt;Data&lt;/font&gt;&lt;/p&gt;&lt;p style=&quot;margin-top: 0pt; margin-bottom: 0pt; margin-left: 0in; direction: ltr; unicode-bidi: embed; word-break: normal;&quot;&gt;&lt;font style=&quot;font-size: 15px;&quot;&gt;Exploration&lt;/font&gt;&lt;/p&gt;" style="rounded=0;whiteSpace=wrap;html=1;strokeColor=#0F828F;strokeWidth=2;fillColor=none;align=center;verticalAlign=middle;fontSize=11;fontFamily=Arial;container=1;recursiveResize=0;collapsible=0;fontColor=#595959;" parent="ZqkVbiy7oSc-8THJX2Gc-81" vertex="1">
                    <mxGeometry x="15" y="112.5" width="100" height="40" as="geometry"/>
                </mxCell>
                <mxCell id="ZqkVbiy7oSc-8THJX2Gc-88" style="edgeStyle=none;rounded=0;orthogonalLoop=1;jettySize=auto;html=1;entryX=0;entryY=0.5;entryDx=0;entryDy=0;dashed=1;startArrow=classic;startFill=1;endArrow=classic;endFill=1;strokeColor=#C0399F;strokeWidth=1;fontSize=16;" parent="ZqkVbiy7oSc-8THJX2Gc-87" edge="1">
                    <mxGeometry relative="1" as="geometry">
                        <mxPoint x="377" y="77" as="sourcePoint"/>
                        <mxPoint x="377" y="77" as="targetPoint"/>
                    </mxGeometry>
                </mxCell>
                <mxCell id="ZqkVbiy7oSc-8THJX2Gc-89" value="&lt;p style=&quot;margin-top: 0pt; margin-bottom: 0pt; margin-left: 0in; direction: ltr; unicode-bidi: embed; word-break: normal;&quot;&gt;&lt;font style=&quot;font-size: 15px;&quot;&gt;Conditional&lt;/font&gt;&lt;/p&gt;&lt;p style=&quot;margin-top: 0pt; margin-bottom: 0pt; margin-left: 0in; direction: ltr; unicode-bidi: embed; word-break: normal;&quot;&gt;&lt;font style=&quot;font-size: 15px;&quot;&gt;Formatting&lt;/font&gt;&lt;/p&gt;" style="rounded=0;whiteSpace=wrap;html=1;strokeColor=#0F828F;strokeWidth=2;fillColor=none;align=center;verticalAlign=middle;fontSize=11;fontFamily=Arial;container=1;recursiveResize=0;collapsible=0;fontColor=#595959;" parent="ZqkVbiy7oSc-8THJX2Gc-81" vertex="1">
                    <mxGeometry x="125" y="112.5" width="100" height="40" as="geometry"/>
                </mxCell>
                <mxCell id="ZqkVbiy7oSc-8THJX2Gc-90" style="edgeStyle=none;rounded=0;orthogonalLoop=1;jettySize=auto;html=1;entryX=0;entryY=0.5;entryDx=0;entryDy=0;dashed=1;startArrow=classic;startFill=1;endArrow=classic;endFill=1;strokeColor=#C0399F;strokeWidth=1;fontSize=16;" parent="ZqkVbiy7oSc-8THJX2Gc-89" edge="1">
                    <mxGeometry relative="1" as="geometry">
                        <mxPoint x="377" y="77" as="sourcePoint"/>
                        <mxPoint x="377" y="77" as="targetPoint"/>
                    </mxGeometry>
                </mxCell>
                <mxCell id="ZqkVbiy7oSc-8THJX2Gc-91" value="&lt;p style=&quot;margin-top: 0pt; margin-bottom: 0pt; margin-left: 0in; direction: ltr; unicode-bidi: embed; word-break: normal;&quot;&gt;&lt;font style=&quot;font-size: 15px;&quot;&gt;Charts &amp;amp; Tables&lt;/font&gt;&lt;/p&gt;" style="rounded=0;whiteSpace=wrap;html=1;strokeColor=#0F828F;strokeWidth=2;fillColor=none;align=center;verticalAlign=middle;fontSize=11;fontFamily=Arial;container=1;recursiveResize=0;collapsible=0;fontColor=#595959;" parent="ZqkVbiy7oSc-8THJX2Gc-81" vertex="1">
                    <mxGeometry x="235" y="47.5" width="100" height="40" as="geometry"/>
                </mxCell>
                <mxCell id="ZqkVbiy7oSc-8THJX2Gc-92" style="edgeStyle=none;rounded=0;orthogonalLoop=1;jettySize=auto;html=1;entryX=0;entryY=0.5;entryDx=0;entryDy=0;dashed=1;startArrow=classic;startFill=1;endArrow=classic;endFill=1;strokeColor=#C0399F;strokeWidth=1;fontSize=16;" parent="ZqkVbiy7oSc-8THJX2Gc-91" edge="1">
                    <mxGeometry relative="1" as="geometry">
                        <mxPoint x="377" y="77" as="sourcePoint"/>
                        <mxPoint x="377" y="77" as="targetPoint"/>
                    </mxGeometry>
                </mxCell>
                <mxCell id="ZqkVbiy7oSc-8THJX2Gc-93" value="&lt;p style=&quot;margin-top: 0pt; margin-bottom: 0pt; margin-left: 0in; direction: ltr; unicode-bidi: embed; word-break: normal;&quot;&gt;&lt;font style=&quot;font-size: 15px;&quot;&gt;Drill-down &amp;amp; filtering&lt;/font&gt;&lt;/p&gt;" style="rounded=0;whiteSpace=wrap;html=1;strokeColor=#0F828F;strokeWidth=2;fillColor=none;align=center;verticalAlign=middle;fontSize=11;fontFamily=Arial;container=1;recursiveResize=0;collapsible=0;fontColor=#595959;" parent="ZqkVbiy7oSc-8THJX2Gc-81" vertex="1">
                    <mxGeometry x="345" y="47.5" width="100" height="40" as="geometry"/>
                </mxCell>
                <mxCell id="ZqkVbiy7oSc-8THJX2Gc-94" style="edgeStyle=none;rounded=0;orthogonalLoop=1;jettySize=auto;html=1;entryX=0;entryY=0.5;entryDx=0;entryDy=0;dashed=1;startArrow=classic;startFill=1;endArrow=classic;endFill=1;strokeColor=#C0399F;strokeWidth=1;fontSize=16;" parent="ZqkVbiy7oSc-8THJX2Gc-93" edge="1">
                    <mxGeometry relative="1" as="geometry">
                        <mxPoint x="377" y="77" as="sourcePoint"/>
                        <mxPoint x="377" y="77" as="targetPoint"/>
                    </mxGeometry>
                </mxCell>
            </root>
        </mxGraphModel>
    </diagram>
    <diagram name="analytical-app" id="K7J4D8FXTObvrmuIXcOY">
        <mxGraphModel dx="480" dy="2975" grid="1" gridSize="10" guides="1" tooltips="1" connect="1" arrows="1" fold="1" page="1" pageScale="1" pageWidth="1600" pageHeight="900" background="none" math="0" shadow="0">
            <root>
                <mxCell id="VQPdTUdnhyxC5OtxLJdK-0"/>
                <mxCell id="VQPdTUdnhyxC5OtxLJdK-1" parent="VQPdTUdnhyxC5OtxLJdK-0"/>
                <mxCell id="VQPdTUdnhyxC5OtxLJdK-2" value="&lt;p style=&quot;margin-top: 6pt ; margin-bottom: 0pt ; margin-left: 0in ; direction: ltr ; unicode-bidi: embed ; vertical-align: baseline ; word-break: normal ; font-size: 14px&quot;&gt;&lt;br&gt;&lt;/p&gt;" style="rounded=0;whiteSpace=wrap;html=1;align=left;fontStyle=1;verticalAlign=top;strokeColor=#0A6ED1;fillColor=none;strokeWidth=2;fontSize=14;fontFamily=Arial;container=0;recursiveResize=0;collapsible=0;fontColor=#595959;" parent="VQPdTUdnhyxC5OtxLJdK-1" vertex="1">
                    <mxGeometry x="220" y="-2640" width="830" height="700" as="geometry"/>
                </mxCell>
                <mxCell id="VQPdTUdnhyxC5OtxLJdK-24" value="&lt;span style=&quot;caret-color: rgba(0, 0, 0, 0); color: rgba(0, 0, 0, 0); font-family: monospace; font-size: 0px; font-style: normal; font-variant-caps: normal; font-weight: 400; letter-spacing: normal; text-align: start; text-indent: 0px; text-transform: none; word-spacing: 0px; -webkit-text-stroke-width: 0px; background-color: rgb(248, 249, 250); text-decoration: none; float: none; display: inline !important;&quot;&gt;%3CmxGraphModel%3E%3Croot%3E%3CmxCell%20id%3D%220%22%2F%3E%3CmxCell%20id%3D%221%22%20parent%3D%220%22%2F%3E%3CmxCell%20id%3D%222%22%20value%3D%22%26lt%3Bp%20style%3D%26quot%3Bcaret-color%3A%20rgb(0%2C%200%2C%200)%3B%20color%3A%20rgb(0%2C%200%2C%200)%3B%20margin-top%3A%200pt%3B%20margin-bottom%3A%200pt%3B%20margin-left%3A%200in%3B%20direction%3A%20ltr%3B%20unicode-bidi%3A%20embed%3B%20word-break%3A%20normal%3B%26quot%3B%26gt%3B%26lt%3Bspan%20style%3D%26quot%3Bcolor%3A%20rgb(89%2C%2089%2C%2089)%3B%20font-size%3A%2016px%3B%20font-weight%3A%20700%3B%26quot%3B%26gt%3BSAP%20Data%20Warehouse%26amp%3Bnbsp%3BCloud%26lt%3B%2Fspan%26gt%3B%26lt%3Bbr%26gt%3B%26lt%3B%2Fp%26gt%3B%22%20style%3D%22rounded%3D0%3BwhiteSpace%3Dwrap%3Bhtml%3D1%3BstrokeColor%3D%23B3B3B3%3BstrokeWidth%3D2%3BfillColor%3Dnone%3Balign%3Dleft%3BverticalAlign%3Dtop%3BfontSize%3D11%3BfontFamily%3DArial%3Bcontainer%3D1%3BrecursiveResize%3D0%3Bcollapsible%3D0%3BfontColor%3D%23595959%3B%22%20vertex%3D%221%22%20parent%3D%221%22%3E%3CmxGeometry%20x%3D%22600%22%20y%3D%22560%22%20width%3D%22400%22%20height%3D%22435%22%20as%3D%22geometry%22%2F%3E%3C%2FmxCell%3E%3CmxCell%20id%3D%223%22%20style%3D%22edgeStyle%3Dnone%3Brounded%3D0%3BorthogonalLoop%3D1%3BjettySize%3Dauto%3Bhtml%3D1%3BentryX%3D0%3BentryY%3D0.5%3BentryDx%3D0%3BentryDy%3D0%3Bdashed%3D1%3BstartArrow%3Dclassic%3BstartFill%3D1%3BendArrow%3Dclassic%3BendFill%3D1%3BstrokeColor%3D%23C0399F%3BstrokeWidth%3D1%3BfontSize%3D16%3B%22%20edge%3D%221%22%20parent%3D%222%22%3E%3CmxGeometry%20relative%3D%221%22%20as%3D%22geometry%22%3E%3CmxPoint%20x%3D%22377%22%20y%3D%2277%22%20as%3D%22sourcePoint%22%2F%3E%3CmxPoint%20x%3D%22377%22%20y%3D%2277%22%20as%3D%22targetPoint%22%2F%3E%3C%2FmxGeometry%3E%3C%2FmxCell%3E" style="rounded=0;whiteSpace=wrap;html=1;strokeColor=#B3B3B3;strokeWidth=2;fillColor=none;align=left;verticalAlign=top;fontSize=11;fontFamily=Arial;container=1;recursiveResize=0;collapsible=0;fontColor=#595959;" parent="VQPdTUdnhyxC5OtxLJdK-1" vertex="1">
                    <mxGeometry x="240" y="-2370" width="400" height="294" as="geometry"/>
                </mxCell>
                <mxCell id="VQPdTUdnhyxC5OtxLJdK-25" style="edgeStyle=none;rounded=0;orthogonalLoop=1;jettySize=auto;html=1;entryX=0;entryY=0.5;entryDx=0;entryDy=0;dashed=1;startArrow=classic;startFill=1;endArrow=classic;endFill=1;strokeColor=#C0399F;strokeWidth=1;fontSize=16;" parent="VQPdTUdnhyxC5OtxLJdK-24" edge="1">
                    <mxGeometry relative="1" as="geometry">
                        <mxPoint x="377" y="110" as="sourcePoint"/>
                        <mxPoint x="377" y="110" as="targetPoint"/>
                    </mxGeometry>
                </mxCell>
                <mxCell id="VQPdTUdnhyxC5OtxLJdK-26" value="Enriched Vacany Data" style="shape=image;verticalLabelPosition=bottom;verticalAlign=top;imageAspect=0;image=data:image/svg+xml,PHN2ZyB4bWxucz0iaHR0cDovL3d3dy53My5vcmcvMjAwMC9zdmciIHZpZXdCb3g9IjAgMCA0MC45NjkgNDcuOTA3Ij48ZGVmcz48c3R5bGU+LmNscy0xe2ZpbGw6IzU5NTk1OTt9PC9zdHlsZT48L2RlZnM+PHRpdGxlPmRhdGFiYXNlPC90aXRsZT48ZyBpZD0iTGF5ZXJfMiIgZGF0YS1uYW1lPSJMYXllciAyIj48ZyBpZD0iZGF0YWJhc2UiPjxwYXRoIGNsYXNzPSJjbHMtMSIgZD0iTTE3LjA2MiwxMS45MDZsLTguNTMxLDUuMjVWMjcuMzc1TDAsMjIuMjE5VjEyTDguNTMxLDYuODQ0Wk0wLDI1LjY4OCw4LjUzMSwzMC43NVY0MS4wNjNMMCwzNS45MDdaTTIwLjUzMSwxMC4yMTksMTEuOTA2LDUuMTU2LDIwLjUzMSwwbDguNTMyLDUuMTU2Wm0wLDMuNDY5LDguNTMyLDUuMDYyVjI5LjA2M2wtOC41MzIsNS4wNjItOC42MjUtNS4wNjJWMTguNzVabTAsMjQsOC41MzItNS4xNTZWNDIuNzVsLTguNTMyLDUuMTU3TDExLjkwNiw0Mi43NVYzMi41MzJaTTQwLjk2OSwxMlYyMi4yMTlsLTguNTMxLDUuMTU2VjE3LjE1NkwyMy45MDYsMTJsOC41MzItNS4xNTZaTTMyLjQzOCwzMC43NWw4LjUzMS01LjA2MlYzNS45MDdsLTguNTMxLDUuMTU2WiIvPjwvZz48L2c+PC9zdmc+;labelBackgroundColor=none;fontSize=10;fontColor=#000000;aspect=fixed;" parent="VQPdTUdnhyxC5OtxLJdK-24" vertex="1">
                    <mxGeometry x="277.98" y="75" width="46" height="50" as="geometry"/>
                </mxCell>
                <mxCell id="VQPdTUdnhyxC5OtxLJdK-27" value="HR Data" style="shape=image;verticalLabelPosition=bottom;verticalAlign=top;imageAspect=0;aspect=fixed;image=data:image/svg+xml,PHN2ZyB4bWxucz0iaHR0cDovL3d3dy53My5vcmcvMjAwMC9zdmciIHZpZXdCb3g9IjAgMCAzOC42IDQ4Ij48ZGVmcz48c3R5bGU+LmNscy0xe2ZpbGw6IzU5NTk1OTt9PC9zdHlsZT48L2RlZnM+PHRpdGxlPmRhdGEtc3RvcmU8L3RpdGxlPjxnIGlkPSJMYXllcl8yIiBkYXRhLW5hbWU9IkxheWVyIDIiPjxnIGlkPSJkYXRhLXN0b3JlIj48cGF0aCBjbGFzcz0iY2xzLTEiIGQ9Ik0xOS4zNSw0OHEtOC41MjIsMC0xMy44MzYtMi4yQTkuOTU5LDkuOTU5LDAsMCwxLDEuNSw0My4yLDUuMDEyLDUuMDEyLDAsMCwxLDAsMzkuN1Y4LjRBNS4zNjYsNS4zNjYsMCwwLDEsMS41LDQuOCw5Ljk4LDkuOTgsMCwwLDEsNS41MTQsMi4yUTEwLjgyNywwLDE5LjM1LDBxOC40MjMsMCwxMy43MzUsMi4yQTExLjUsMTEuNSwwLDAsMSwzNy4yLDQuOGE1LjU4Myw1LjU4MywwLDAsMSwxLjQsMy42VjM5LjdhNS40NjUsNS40NjUsMCwwLDEtMS40LDMuNSwxMS40ODcsMTEuNDg3LDAsMCwxLTQuMTEyLDIuNlEyNy43NzEsNDgsMTkuMzUsNDhaTTE5LjMsMy40cS03LjksMC0xMiwxLjdUMy4yLDguNGEyLjQsMi40LDAsMCwwLDEuMSwxLjcsMTAuNDE0LDEwLjQxNCwwLDAsMCwzLDEuNiwyOS4zNDIsMjkuMzQyLDAsMCwwLDUuNCwxLjI1LDQ1Ljk2Myw0NS45NjMsMCwwLDAsNi42LjQ1LDQ1Ljk4NCw0NS45ODQsMCwwLDAsNi42LS40NSwyOS4zODEsMjkuMzgxLDAsMCwwLDUuNC0xLjI1LDEwLjQ0MSwxMC40NDEsMCwwLDAsMy0xLjYsMi40MDYsMi40MDYsMCwwLDAsMS4xLTEuN3EwLTEuNi00LjEtMy4zVDE5LjMsMy40Wk0zLjIsMTMuNHY1LjUzQTIuMzA3LDIuMzA3LDAsMCwwLDQuMywyMC42YTEzLjUzNiwxMy41MzYsMCwwLDAsMywxLjY3NCwyOS4wMjYsMjkuMDI2LDAsMCwwLDUuNCwxLjI2N0E0NS4zNjksNDUuMzY5LDAsMCwwLDE5LjMsMjRhNDUuMzg5LDQ1LjM4OSwwLDAsMCw2LjYtLjQ1NiwyOS4wNjUsMjkuMDY1LDAsMCwwLDUuNC0xLjI2NywxMy41ODIsMTMuNTgyLDAsMCwwLDMtMS42NzQsMi4zMSwyLjMxLDAsMCwwLDEuMS0xLjY3M2wuMDkyLTUuNTNhMTMuMTgsMTMuMTgsMCwwLDEtMi42NTgsMS4zNSwyMi42NzUsMjIuNjc1LDAsMCwxLTMuMzU5Ljk1LDQzLjYyNCw0My42MjQsMCwwLDEtMTAuMTI4LDEuMSw0NS43LDQ1LjcsMCwwLDEtNS40MTctLjMsNDUuOTU0LDQ1Ljk1NCwwLDAsMS00LjcxMy0uOCwyMi42NCwyMi42NCwwLDAsMS0zLjM1OS0uOTVBMTMuMTI4LDEzLjEyOCwwLDAsMSwzLjIsMTMuNFptMCwxMC40djUuNGEyLjQsMi40LDAsMCwwLDEuMSwxLjcsMTIuMjc4LDEyLjI3OCwwLDAsMCwzLDEuNywyNi45ODgsMjYuOTg4LDAsMCwwLDUuNCwxLjIsNTEuNTU3LDUxLjU1NywwLDAsMCw2LjYuNCw1MS41OCw1MS41OCwwLDAsMCw2LjYtLjQsMjcuMDE5LDI3LjAxOSwwLDAsMCw1LjQtMS4yLDEyLjMxNiwxMi4zMTYsMCwwLDAsMy0xLjcsMi40MDYsMi40MDYsMCwwLDAsMS4xLTEuN2wuMDkyLTUuNGEyMS43ODEsMjEuNzgxLDAsMCwxLTYuNzcsMi41LDQ0LjUyOCw0NC41MjgsMCwwLDEtOS4zNzUuOSw0NS43LDQ1LjcsMCwwLDEtNS40MTctLjMsNDUuOTU0LDQ1Ljk1NCwwLDAsMS00LjcxMy0uOCwzMy42NzQsMzMuNjc0LDAsMCwxLTMuMzU5LTEuMDVBMTcuNjI1LDE3LjYyNSwwLDAsMSwzLjIsMjMuOFptMCwxMC40djUuNTI5QTIuMzA2LDIuMzA2LDAsMCwwLDQuMyw0MS40YTEzLjUzNiwxMy41MzYsMCwwLDAsMywxLjY3NCwyOS4wMjYsMjkuMDI2LDAsMCwwLDUuNCwxLjI2Nyw0NS4zNjksNDUuMzY5LDAsMCwwLDYuNi40NTYsNDUuMzg5LDQ1LjM4OSwwLDAsMCw2LjYtLjQ1NiwyOS4wNjUsMjkuMDY1LDAsMCwwLDUuNC0xLjI2NywxMy41ODIsMTMuNTgyLDAsMCwwLDMtMS42NzQsMi4zMDksMi4zMDksMCwwLDAsMS4xLTEuNjc0VjM0LjJhMTguODI2LDE4LjgyNiwwLDAsMS02LDIuNCwzOC4yODgsMzguMjg4LDAsMCwxLTQuNy43NXEtMi41LjI1MS01LjQuMjV0LTUuNC0uMjVhMzguMjI3LDM4LjIyNywwLDAsMS00LjctLjc1QTE4LjgwOCwxOC44MDgsMCwwLDEsMy4yLDM0LjJaIi8+PC9nPjwvZz48L3N2Zz4=;labelBackgroundColor=none;fontSize=10;fontColor=#000000;" parent="VQPdTUdnhyxC5OtxLJdK-24" vertex="1">
                    <mxGeometry x="79.98000000000002" y="195" width="39" height="48" as="geometry"/>
                </mxCell>
                <mxCell id="VQPdTUdnhyxC5OtxLJdK-28" value="Finacial Data" style="shape=image;verticalLabelPosition=bottom;verticalAlign=top;imageAspect=0;aspect=fixed;image=data:image/svg+xml,PHN2ZyB4bWxucz0iaHR0cDovL3d3dy53My5vcmcvMjAwMC9zdmciIHZpZXdCb3g9IjAgMCAzOC42IDQ4Ij48ZGVmcz48c3R5bGU+LmNscy0xe2ZpbGw6IzU5NTk1OTt9PC9zdHlsZT48L2RlZnM+PHRpdGxlPmRhdGEtc3RvcmU8L3RpdGxlPjxnIGlkPSJMYXllcl8yIiBkYXRhLW5hbWU9IkxheWVyIDIiPjxnIGlkPSJkYXRhLXN0b3JlIj48cGF0aCBjbGFzcz0iY2xzLTEiIGQ9Ik0xOS4zNSw0OHEtOC41MjIsMC0xMy44MzYtMi4yQTkuOTU5LDkuOTU5LDAsMCwxLDEuNSw0My4yLDUuMDEyLDUuMDEyLDAsMCwxLDAsMzkuN1Y4LjRBNS4zNjYsNS4zNjYsMCwwLDEsMS41LDQuOCw5Ljk4LDkuOTgsMCwwLDEsNS41MTQsMi4yUTEwLjgyNywwLDE5LjM1LDBxOC40MjMsMCwxMy43MzUsMi4yQTExLjUsMTEuNSwwLDAsMSwzNy4yLDQuOGE1LjU4Myw1LjU4MywwLDAsMSwxLjQsMy42VjM5LjdhNS40NjUsNS40NjUsMCwwLDEtMS40LDMuNSwxMS40ODcsMTEuNDg3LDAsMCwxLTQuMTEyLDIuNlEyNy43NzEsNDgsMTkuMzUsNDhaTTE5LjMsMy40cS03LjksMC0xMiwxLjdUMy4yLDguNGEyLjQsMi40LDAsMCwwLDEuMSwxLjcsMTAuNDE0LDEwLjQxNCwwLDAsMCwzLDEuNiwyOS4zNDIsMjkuMzQyLDAsMCwwLDUuNCwxLjI1LDQ1Ljk2Myw0NS45NjMsMCwwLDAsNi42LjQ1LDQ1Ljk4NCw0NS45ODQsMCwwLDAsNi42LS40NSwyOS4zODEsMjkuMzgxLDAsMCwwLDUuNC0xLjI1LDEwLjQ0MSwxMC40NDEsMCwwLDAsMy0xLjYsMi40MDYsMi40MDYsMCwwLDAsMS4xLTEuN3EwLTEuNi00LjEtMy4zVDE5LjMsMy40Wk0zLjIsMTMuNHY1LjUzQTIuMzA3LDIuMzA3LDAsMCwwLDQuMywyMC42YTEzLjUzNiwxMy41MzYsMCwwLDAsMywxLjY3NCwyOS4wMjYsMjkuMDI2LDAsMCwwLDUuNCwxLjI2N0E0NS4zNjksNDUuMzY5LDAsMCwwLDE5LjMsMjRhNDUuMzg5LDQ1LjM4OSwwLDAsMCw2LjYtLjQ1NiwyOS4wNjUsMjkuMDY1LDAsMCwwLDUuNC0xLjI2NywxMy41ODIsMTMuNTgyLDAsMCwwLDMtMS42NzQsMi4zMSwyLjMxLDAsMCwwLDEuMS0xLjY3M2wuMDkyLTUuNTNhMTMuMTgsMTMuMTgsMCwwLDEtMi42NTgsMS4zNSwyMi42NzUsMjIuNjc1LDAsMCwxLTMuMzU5Ljk1LDQzLjYyNCw0My42MjQsMCwwLDEtMTAuMTI4LDEuMSw0NS43LDQ1LjcsMCwwLDEtNS40MTctLjMsNDUuOTU0LDQ1Ljk1NCwwLDAsMS00LjcxMy0uOCwyMi42NCwyMi42NCwwLDAsMS0zLjM1OS0uOTVBMTMuMTI4LDEzLjEyOCwwLDAsMSwzLjIsMTMuNFptMCwxMC40djUuNGEyLjQsMi40LDAsMCwwLDEuMSwxLjcsMTIuMjc4LDEyLjI3OCwwLDAsMCwzLDEuNywyNi45ODgsMjYuOTg4LDAsMCwwLDUuNCwxLjIsNTEuNTU3LDUxLjU1NywwLDAsMCw2LjYuNCw1MS41OCw1MS41OCwwLDAsMCw2LjYtLjQsMjcuMDE5LDI3LjAxOSwwLDAsMCw1LjQtMS4yLDEyLjMxNiwxMi4zMTYsMCwwLDAsMy0xLjcsMi40MDYsMi40MDYsMCwwLDAsMS4xLTEuN2wuMDkyLTUuNGEyMS43ODEsMjEuNzgxLDAsMCwxLTYuNzcsMi41LDQ0LjUyOCw0NC41MjgsMCwwLDEtOS4zNzUuOSw0NS43LDQ1LjcsMCwwLDEtNS40MTctLjMsNDUuOTU0LDQ1Ljk1NCwwLDAsMS00LjcxMy0uOCwzMy42NzQsMzMuNjc0LDAsMCwxLTMuMzU5LTEuMDVBMTcuNjI1LDE3LjYyNSwwLDAsMSwzLjIsMjMuOFptMCwxMC40djUuNTI5QTIuMzA2LDIuMzA2LDAsMCwwLDQuMyw0MS40YTEzLjUzNiwxMy41MzYsMCwwLDAsMywxLjY3NCwyOS4wMjYsMjkuMDI2LDAsMCwwLDUuNCwxLjI2Nyw0NS4zNjksNDUuMzY5LDAsMCwwLDYuNi40NTYsNDUuMzg5LDQ1LjM4OSwwLDAsMCw2LjYtLjQ1NiwyOS4wNjUsMjkuMDY1LDAsMCwwLDUuNC0xLjI2NywxMy41ODIsMTMuNTgyLDAsMCwwLDMtMS42NzQsMi4zMDksMi4zMDksMCwwLDAsMS4xLTEuNjc0VjM0LjJhMTguODI2LDE4LjgyNiwwLDAsMS02LDIuNCwzOC4yODgsMzguMjg4LDAsMCwxLTQuNy43NXEtMi41LjI1MS01LjQuMjV0LTUuNC0uMjVhMzguMjI3LDM4LjIyNywwLDAsMS00LjctLjc1QTE4LjgwOCwxOC44MDgsMCwwLDEsMy4yLDM0LjJaIi8+PC9nPjwvZz48L3N2Zz4=;labelBackgroundColor=none;fontSize=10;fontColor=#000000;" parent="VQPdTUdnhyxC5OtxLJdK-24" vertex="1">
                    <mxGeometry x="180.5" y="195" width="39" height="48" as="geometry"/>
                </mxCell>
                <mxCell id="VQPdTUdnhyxC5OtxLJdK-29" value="Workflow Data" style="shape=image;verticalLabelPosition=bottom;verticalAlign=top;imageAspect=0;aspect=fixed;image=data:image/svg+xml,PHN2ZyB4bWxucz0iaHR0cDovL3d3dy53My5vcmcvMjAwMC9zdmciIHZpZXdCb3g9IjAgMCAzOC42IDQ4Ij48ZGVmcz48c3R5bGU+LmNscy0xe2ZpbGw6IzU5NTk1OTt9PC9zdHlsZT48L2RlZnM+PHRpdGxlPmRhdGEtc3RvcmU8L3RpdGxlPjxnIGlkPSJMYXllcl8yIiBkYXRhLW5hbWU9IkxheWVyIDIiPjxnIGlkPSJkYXRhLXN0b3JlIj48cGF0aCBjbGFzcz0iY2xzLTEiIGQ9Ik0xOS4zNSw0OHEtOC41MjIsMC0xMy44MzYtMi4yQTkuOTU5LDkuOTU5LDAsMCwxLDEuNSw0My4yLDUuMDEyLDUuMDEyLDAsMCwxLDAsMzkuN1Y4LjRBNS4zNjYsNS4zNjYsMCwwLDEsMS41LDQuOCw5Ljk4LDkuOTgsMCwwLDEsNS41MTQsMi4yUTEwLjgyNywwLDE5LjM1LDBxOC40MjMsMCwxMy43MzUsMi4yQTExLjUsMTEuNSwwLDAsMSwzNy4yLDQuOGE1LjU4Myw1LjU4MywwLDAsMSwxLjQsMy42VjM5LjdhNS40NjUsNS40NjUsMCwwLDEtMS40LDMuNSwxMS40ODcsMTEuNDg3LDAsMCwxLTQuMTEyLDIuNlEyNy43NzEsNDgsMTkuMzUsNDhaTTE5LjMsMy40cS03LjksMC0xMiwxLjdUMy4yLDguNGEyLjQsMi40LDAsMCwwLDEuMSwxLjcsMTAuNDE0LDEwLjQxNCwwLDAsMCwzLDEuNiwyOS4zNDIsMjkuMzQyLDAsMCwwLDUuNCwxLjI1LDQ1Ljk2Myw0NS45NjMsMCwwLDAsNi42LjQ1LDQ1Ljk4NCw0NS45ODQsMCwwLDAsNi42LS40NSwyOS4zODEsMjkuMzgxLDAsMCwwLDUuNC0xLjI1LDEwLjQ0MSwxMC40NDEsMCwwLDAsMy0xLjYsMi40MDYsMi40MDYsMCwwLDAsMS4xLTEuN3EwLTEuNi00LjEtMy4zVDE5LjMsMy40Wk0zLjIsMTMuNHY1LjUzQTIuMzA3LDIuMzA3LDAsMCwwLDQuMywyMC42YTEzLjUzNiwxMy41MzYsMCwwLDAsMywxLjY3NCwyOS4wMjYsMjkuMDI2LDAsMCwwLDUuNCwxLjI2N0E0NS4zNjksNDUuMzY5LDAsMCwwLDE5LjMsMjRhNDUuMzg5LDQ1LjM4OSwwLDAsMCw2LjYtLjQ1NiwyOS4wNjUsMjkuMDY1LDAsMCwwLDUuNC0xLjI2NywxMy41ODIsMTMuNTgyLDAsMCwwLDMtMS42NzQsMi4zMSwyLjMxLDAsMCwwLDEuMS0xLjY3M2wuMDkyLTUuNTNhMTMuMTgsMTMuMTgsMCwwLDEtMi42NTgsMS4zNSwyMi42NzUsMjIuNjc1LDAsMCwxLTMuMzU5Ljk1LDQzLjYyNCw0My42MjQsMCwwLDEtMTAuMTI4LDEuMSw0NS43LDQ1LjcsMCwwLDEtNS40MTctLjMsNDUuOTU0LDQ1Ljk1NCwwLDAsMS00LjcxMy0uOCwyMi42NCwyMi42NCwwLDAsMS0zLjM1OS0uOTVBMTMuMTI4LDEzLjEyOCwwLDAsMSwzLjIsMTMuNFptMCwxMC40djUuNGEyLjQsMi40LDAsMCwwLDEuMSwxLjcsMTIuMjc4LDEyLjI3OCwwLDAsMCwzLDEuNywyNi45ODgsMjYuOTg4LDAsMCwwLDUuNCwxLjIsNTEuNTU3LDUxLjU1NywwLDAsMCw2LjYuNCw1MS41OCw1MS41OCwwLDAsMCw2LjYtLjQsMjcuMDE5LDI3LjAxOSwwLDAsMCw1LjQtMS4yLDEyLjMxNiwxMi4zMTYsMCwwLDAsMy0xLjcsMi40MDYsMi40MDYsMCwwLDAsMS4xLTEuN2wuMDkyLTUuNGEyMS43ODEsMjEuNzgxLDAsMCwxLTYuNzcsMi41LDQ0LjUyOCw0NC41MjgsMCwwLDEtOS4zNzUuOSw0NS43LDQ1LjcsMCwwLDEtNS40MTctLjMsNDUuOTU0LDQ1Ljk1NCwwLDAsMS00LjcxMy0uOCwzMy42NzQsMzMuNjc0LDAsMCwxLTMuMzU5LTEuMDVBMTcuNjI1LDE3LjYyNSwwLDAsMSwzLjIsMjMuOFptMCwxMC40djUuNTI5QTIuMzA2LDIuMzA2LDAsMCwwLDQuMyw0MS40YTEzLjUzNiwxMy41MzYsMCwwLDAsMywxLjY3NCwyOS4wMjYsMjkuMDI2LDAsMCwwLDUuNCwxLjI2Nyw0NS4zNjksNDUuMzY5LDAsMCwwLDYuNi40NTYsNDUuMzg5LDQ1LjM4OSwwLDAsMCw2LjYtLjQ1NiwyOS4wNjUsMjkuMDY1LDAsMCwwLDUuNC0xLjI2NywxMy41ODIsMTMuNTgyLDAsMCwwLDMtMS42NzQsMi4zMDksMi4zMDksMCwwLDAsMS4xLTEuNjc0VjM0LjJhMTguODI2LDE4LjgyNiwwLDAsMS02LDIuNCwzOC4yODgsMzguMjg4LDAsMCwxLTQuNy43NXEtMi41LjI1MS01LjQuMjV0LTUuNC0uMjVhMzguMjI3LDM4LjIyNywwLDAsMS00LjctLjc1QTE4LjgwOCwxOC44MDgsMCwwLDEsMy4yLDM0LjJaIi8+PC9nPjwvZz48L3N2Zz4=;labelBackgroundColor=none;fontSize=10;fontColor=#000000;" parent="VQPdTUdnhyxC5OtxLJdK-24" vertex="1">
                    <mxGeometry x="277.98" y="195" width="39" height="48" as="geometry"/>
                </mxCell>
                <mxCell id="VQPdTUdnhyxC5OtxLJdK-30" style="edgeStyle=orthogonalEdgeStyle;rounded=0;orthogonalLoop=1;jettySize=auto;html=1;exitX=0.5;exitY=0;exitDx=0;exitDy=0;fontColor=#FFFFFF;strokeColor=#595959;endArrow=block;endFill=1;strokeWidth=2;dashed=1;endSize=3;fontSize=10;entryX=0;entryY=0.5;entryDx=0;entryDy=0;" parent="VQPdTUdnhyxC5OtxLJdK-24" edge="1">
                    <mxGeometry relative="1" as="geometry">
                        <mxPoint x="275.98" y="100" as="targetPoint"/>
                        <mxPoint x="99.48000000000002" y="195" as="sourcePoint"/>
                        <Array as="points">
                            <mxPoint x="99" y="175"/>
                            <mxPoint x="200" y="175"/>
                            <mxPoint x="200" y="100"/>
                        </Array>
                    </mxGeometry>
                </mxCell>
                <mxCell id="VQPdTUdnhyxC5OtxLJdK-31" style="edgeStyle=orthogonalEdgeStyle;rounded=0;orthogonalLoop=1;jettySize=auto;html=1;exitX=0.5;exitY=0;exitDx=0;exitDy=0;fontColor=#FFFFFF;strokeColor=#595959;endArrow=none;endFill=0;strokeWidth=2;dashed=1;endSize=3;fontSize=10;" parent="VQPdTUdnhyxC5OtxLJdK-24" source="VQPdTUdnhyxC5OtxLJdK-29" edge="1">
                    <mxGeometry relative="1" as="geometry">
                        <mxPoint x="200" y="175" as="targetPoint"/>
                        <mxPoint x="234.98000000000002" y="143" as="sourcePoint"/>
                        <Array as="points">
                            <mxPoint x="297" y="175"/>
                        </Array>
                    </mxGeometry>
                </mxCell>
                <mxCell id="z5PdbuuOb7pppBxWRpVs-1" value="" style="group;aspect=fixed;" vertex="1" connectable="0" parent="VQPdTUdnhyxC5OtxLJdK-24">
                    <mxGeometry x="10.480000000000018" y="5.5" width="49" height="46.06" as="geometry"/>
                </mxCell>
                <mxCell id="z5PdbuuOb7pppBxWRpVs-2" value="" style="shape=image;verticalLabelPosition=bottom;verticalAlign=top;imageAspect=0;image=data:image/png,iVBORw0KGgoAAAANSUhEUgAAATsAAAEgCAYAAADLzdSfAAAAAXNSR0IArs4c6QAAAARnQU1BAACxjwv8YQUAAAAJcEhZcwAAFiUAABYlAUlSJPAAAGnZSURBVHhe7d13l13XeSb4LSKjEAqFnAiQIAmCOQcxyQq2Zctyt+x22+129/KsmbVmzT8zH6G/w/Ss6Z5eq9vumXaU2u0gy5ZkSqIkJlHMCYwgkTNQKGSQmv17Tx2wWLxVdVMVquruRzq8VRe37j33nL2f/bxxf+4XGamgoKBgluOq4ceCgoKCWY1CdgUFBT2BQnYFBQU9gUJ2BQUFPYFCdgUFBT2BQnYFBQU9gUJ2BQUFPYFCdgUFBT2BQnYFBQU9gUJ2BQUFPYFCdgUFBT2BQnYFBQU9gUJ2BQUFPYFCdgUFBT2BQnYFBQU9gUJ2BQUFPYFCdgUFBT2BQnYFBQU9gUJ2BQUFPYFCdgUFBT2BQnYFBQU9gUJ2BQUFPYFCdgUFBT2BQnYFBQU9gUJ2BQUFPYFCdgUFBT2BQnYFBQU9gUJ2BQUFPYFCdgUFBT2BQnYFBQU9gUJ2BQUFPYFCdgUFBT2BQnYFBQU9gc/9ImP454KCQD0kPvr4F+mj/OPHHvPh6fzf+LfR+Fz+31V56Zzzuc+lOVf5OR+fy8/n3wsKpgMK2RV8Bpc++jhdzCx38OT5tP/EuXTgxPl04OS5NHTuo3Tm/EfDr/o0Fs2/Kq1euiCtW7EgbR5YlNYsW5D6++al+XOL8VAwPVDIruAyLlFwmehOZVI7de5Semv/UBw78/HuwdPpyKkLafDspeFXfxpLF85NW1cvSjesW5Ju2bwsXbeuL129clFavnheWpAJj9IrKLiSKGRXcBlHhy6kQ1nNvblvKL2+dzCruqzosrI7ceZSOnnmYjp38aN04VLj4TJvzufS0kVzU38mt5VL5mfiW5x2bFySbtywNB9LUt+CucOvLCi4MihkV5BN1o8ziX2c3jt4Jr2x71T62Xsn0rPvHk+nsoo7PYbZOhHW9S9IN21cmu7ftiI9vH0g/74wLZ4/pyi8giuGQnYF6dDg+bTn6NkguSffOpb2ZTV3OD93Mas4pm074MNb0TcvzNq7rulPt29Zlm6/enl+fs7wKwoKphaF7HoY57OaO3vho/T2gdPp5Q9PpmfeOR5kJzjRLaxZNj9tW9uXHtm+Mn3l1tVp5dL5ofBKlLZgqlFCZT2M40MX0mt7TqWnMsF9/5XD6c29Q5Fi0k0IaLyDTHcPphd2ncwK8lzXP6OgoBkUsutBXMyKjj9udzZdn3//RJDQ63tPpYPZdO02D527+HE6fOpCRHOfz5/z/uEzWU1+HOktxagomEoUsutBCDoguley2vrpzmNp5/5TEaCYTPAB/jwTq1SWE2cupvOZBAsKphKF7HoIKiGQ2uFT54PomJbvHTqdjg5d7LqiGw25e4Ig7x8+HSpPmktBwVSikF0PQWT19LlL6YNsSv5459H08oeD6cyF9lJLWgWiFRDZfexceubd4+mDI2ej/KygYKpQyK6HMJSJ7r1DZyJpmLo6fPJ8utTFyOt48CnUo6TlVzLJ7jl2NvL7SrCiYKpQyK6HcPz0xfT8rhPppUw2fr6YiWaqqUYEGNnuO34ugheF7AqmCoXsegD8dMcyyQhKIJoPjpyJgv4rYUZeyEpS3e3hwQvpw2zKKkMrKJgKFLLrAahppaTePVQFB3QyuZBNyCsJTQWkuyC9goKpQCG7HgAlhVhe3X0qHckKTzH/lQ4OiMaqwxUZLiiYChSy6wEMnrmUXvzgZJSESSaeDqDs3tg7VJRdwZShkN0sxvlsvjJZdx05E2ZsBCWusPlaY+j8pTg3vkRR4slOai4oKGQ3iyHaKQigNpWCEpSYJlyXzuZzUVVxLBMwtVnIrmCyUchuFgO56TKs2F/UsxtuOu3oli+em9b3L4hj1dL50Ym4VTgXWSfOa29WnfyKBQWTiUJ2sxins6n45r5TmewGx2yn3ipspjPQNz9tGlgUx9rlC9LC+e0PI+clwbiQXcFko/Szm4Xgl0Mir2dF9//9dHd69p3jUarVqgmL2LRb12L96lWL0pqllZJbtmhuWjzcZr3+LGVoPuPkGTl059OhU+fDdOaP8/xYo+zB61ekh25Yme7bpsHn8uFnCwq6j0J2DVBfEg9+8ns8M/z7aEQbyvwfj3VTSg8jf59KaMgpgVjrpm89uy8qJtrBonlXxd4Rj+5YmR7evjL2lLh2Td/wv34aupjwvVFp0lzeyIfHAyfPh6mqLK3Rtbvt6mXpzq3L0y/tWJUevGFg+NmCgu6jkF0DcJaboHLBbCdIofiZD+zSx59VKVqNL1k4Ny3PisduWrrxrlwyL35etmje8KumDs5dOyWdh59482jUw7aCxdksRXJ3ZKV1Ryaia7Ky25KPVUvmx/aIjaDsKwgvK7mjWdUdytcM0b138HTk0+05di7qYke3eb9ubV/avn5J+vU716Yv3bJ6+NmCgu6jkF1GfQnMQ00lTVjK6H1F8/uHIpqpNdGxoYtBhKPLOe2oxbzbsGJhPhZkcuhL16xZnDbm3200U28a7TFbhYHJUHz190DO33npYHQ22blvKIinGVRKVCv1BWl9/h5fv2t9+o271qX5WeG1GoRg3iI/RPeTnceyujwZZrVeeiObDwhybF65KP3OAxvjswoKJguF7DI+zpfABOR7Yn5pMFnnpiE4zSappbEK1xEBdde3MCu8rIhEKym61ZkAVy2bnyc0ElwYDn17Msydc1UQX7fhVto/AlH/t5/uST98/UikdjBrm4FNcijU+67tD5Nyx4al6YasuoKkWzxfLZ1cK4rYdRQVRnbITzJxrfD6FsyJxeJ/+eKW9Huf3xTPFRRMBnqa7OqvjugQ2oeZJBCEXbZ2HT4TSbidYGkmv+XZ7GOm3bh+abpl89Iw2xCKTWfmZZLsJukhF8rp7QND6f95/IP4Ls3CWaylsjIh/+rta9LXsspaNG9OWpBVXTeAgC0iP3zjSPruy4cjUlxv7DM3y93/41evTf/TF7aEsrzqCvg5C2Y/5vy7jOGfexImHKL7aTb5vv/q4fTqbr3WzqXT5yTgdrYO4FJE6r2YliY8xchM9tYLM5F0c2tB30VVwtv7T6eXPjgZiqoZMK0R751blqdfv3Nd7OgvpYQC7RbxMOP5AbkBKGTKTuQ2/i1/Bt+gDbVxv88tKOg2eprsEA7zVNdcRPejN4+kfcfOBxl1SnTgLRTdM49jb9ZMogiIPwsRzptbmYcUJh8eWunEl3fh4kfp3djoeihUlPrTZsCU5HN8aPvK9LVMdhtWLErzM/l1c0Nrpr6Azccf50Ug/06BClj42acgWHvMuiYLsqIsKOg2enoJRTqv761MK+2PhrIC89xkwKT23tSMTr3ffflQ+rMn96b//uz+aI8uN63TtkvUElL9MKvHoUwmzWJjNl2/cNOqIBzEx6ycLGwcWJge3j4QG2ZvWrkocvZcG3W8g+cEgPxWUNB99CTZUVKUmy393jkwlJ5790Tam1WX6GEXBN2Y8N72fLAPA4ITLeVXe/a9E1V6RjZzj5++EEm4HPytulOZzEF2+X0k804EqpIpLRp637YVadvaxeGj8/xk5QcOLJkf5uqNG5aEL3Nl/t1SwLSlqK90n72C2YueVXbnMukwYdVlhh8tm5pTCWQrbw8xPZ5N6L9+7kCY0kgQ4fG/tcq73pNp6D2ZiRNBkERqzJZVi9K1a/vS6qULumq6jgfR6fuvW5HV3cL4Pcgu34PSEKBgstCbyi4fUjJEXPdnshN1paamEs4Bofnstw6cvpwE/FxWeQr3BTPqyT+RwpM6I71EoMX3OpGPZkhDyseOrLBEiNcuWxBR4qmKhK5eNj+i09JxBC58B77NQnYFk4UeNWNT7MPwXCYYFRLTAUw4uWgScP/m5wciWKI9E8Lj1B8PTF4+P+TdikJd178gPbJ9Zbp507JIHJ5KLM3EWjcT4MdTg1uUXcFkoifz7AQK/u6Fg+kfXzoUOWmipFOBudlEnJMntUdBAI9ikUrQEBp1M2/OVWnxgjnpxvVL0r3b+iOpVyG+SKbgQSPlhSB0Nnnxgyrw8fyuk8P/0hjz51ZpIL9006r0+w9tymbs4vjMbuT8qUAZmXztdJ0zMpPeMvr8/yHfg+++ciit6JsX6vKB61ek267+dEMA34/LgfLz2KoKFwkeK1+Qb3K+exFpNtXv4P74u/qaeHTU922yfJoFk4feJLs8Wf786b3pr7OCkgrSbIpGJzBnEAqSQVoqLVRcmDPy8BCESc0c1cWXP211nvwK5QUPrl/XFzWqjXLQbKjz5FvH0lNvHw9TmEIcD+p2lbQp8FeipaqjW0EJgRFBkrpqAzEgcFHX/j7VI5/+DOY7cr6Uv7tzaER2zHL5j69kQrePBhXbClxHZnMjOLf+vrmhNOfP/YTw3SPXpc6DXDhvTtyTvvw6/1a/rmDmoOfIjuIQdf3jJz5Mf/HMvlAKzTjz20FM9KwOqBYEo+ZUkwCTRoskBfcIRoRW6sXFS78IsjiezwlZIL91yxdGnS2/2nWZ8EQvvd9IYjqTyZFCevz1I+nNvaci2jsekKbWSg9cP5AeuG5FqMZGoIBFeJ2Hg6KKx3z9/Bvx5vHchep3EHRRInY2fx9ACvOuuipty+fPR4fkEV59/kxvLgU+Si3aH7lxZbpza3/8Ww3k9nQm8afePpaezoQuqNQKBvK1r6K+n4VzWb5oXlqSFx7EV5OYe+Re1b36FmQijPuWj0WZ7Gq1SKnmrxe/y030ft7Hzw7PU7UCP1PlDy1ojJ4jO5MVofzHxz9If/LTPWF2DVtcXQcFIAhw25Zl6dbhpNlNAwtj4M+JSVINfuZrpJrknxEJoquTkKlOJLAiqyJNBuTCUXsjJ47v8xdZqX77xUNZqSKN8cvc7sjn81v3boiqhatXLsoTunESr/cN8s3KSoRY8ON4fm+Pg5mQpYnITTx48txlX+FH+bsgbd8JkJoz/cKOVelf3L8hrV+xMBRtff6DZ9UdX0rPvJsV6b6h9OVbVkeUdiQ6JbuKgBoTjbPz70jOK+rL6t4greFbNExq7lv1bxYIi05Ncn5ekUkVmVOJfnbPPK9OesHcylQuuHLoObKj5CiP//zDD9NfZmU3GTD4FdUjNz43OWXXI7qVCyO9YzxQnlQSUhE80SYJmZgoTCrktHX1olCG+s0hat/pj57Ynf7Hc/uDdCjFRjCpKRNqTtG982Je1pOQQjw1TF4+dyi/l+TkU5mQ+Ms+ObIaHk7APpNVHTIe6zNrSCT+xr3rI8dOqkv9mVwK5/Lx4zePpleyqfrFm1ale7PZPhKdkt1kwELm2lHu8zL5Lc2EVjU1rdTf0vyz3xFdVQtd3T/kaHEJhXj596vi90KGk4ueIzupJruPnU1//tTeCFJMBqzmOp5UPdrWxKBnJiFBamE8uB3uiGoIqlN6ClKRAE3x+ZlpqWifQ1/FAfL+j/+0K33z2X2hEBFgIyzJE1FeHeLRUgnphKIZljP8l6ovnsykIirMJOUPzB8ZSg0Rjzx8zC/yo3PN/x8XUlwotgez6cyErkvCfF/fx2dKuXnohoHPdCyejmRH8dXXztXzs1tbK0CP9XPuO7VHDTKp+RB1wuFHHMhjhXvDfelmnXTBZ9FztbEnsyo5lk2yV/PE0qduMqA1kgl997X9oZ4QHQe3wT8RYvIMTxSqIRzjWcXxD/EbhWmV/41a8G9SVo4MXkjPZjPwzWwGjsc5Gm9en5UmUzhUXZ58NdGB5OoXd9lfdjCiu8xXSo5Pk3ITROG3Q8AILkgvf+AEPBdQqUG5mORUbq1i6s9nevPz6bqyapT6RbpMel2QPfrOVxq+M4Kvid81sfC4Pq6Thcl1Y+ZT26co5HzeTHbX9eipqjGsyp2qQcTZ9MHhM/EduS78XSw0LnBGiQB3jqKbJwHbM5FokSR9pC6/6hShDrJCpAbkpjGPTAMT6siQ6OfE6RgiwYITysMQ5WhQUFq4q8AwYRFat+A89584H4nPo9/W1eHHQ3KzUd34vsgPoSM27epFzr/3yuFwPfy/P9mT/q/vvp/+Q1bn6qX/8eXD6bn3jqe39w8FIfKbFnSOniM7g44/TASx29C0U+TU5jQUzJJMTsyZbqzItVlEESE+PzN3+euY5vrDjQWfThkwp69etTjOzXvUYBr7e4pCZNSk7CLPBZTnHTl1PlTOZwrh8gly7Gv7PlawZKbDvaoVoCAUpRxKL18PSs+1p/LePng6ujr/9K1j6XuvHk5/8/yB9Fc/25/+4ul96R9eOhimvCaoe7MCLCTYGnqO7CiMw3lgIb1uQ5ukmzZWJVCIhfN5soHs+LDGG/i4VnCCGqTqPkN22fQ6dTaTUTaHTSKmfrdxNk9wppvzNPFHolJ2mezy9dMwtFdhTB44cS6U3493HkvffuFg+tOs9P7zjz5M//f3309/9tTerAYPRW7i+9nkde8LmkfPkV1k+OdB5bHbEDCQ1mFfBX61yfaxcO6fOHMpAgtIfCwwpTnAlWXZFCjyw0bceUpOO/o9x8+mC1l5jCajboFaZBrza7n+I2NjIssWiJEk3GtwNeIahf+v8v1RgKLf7pGcRP7Un+w8mv7+xYPpv2fF95fPfEKA/H0U+mSM7dmAHiS74cnWbTstQ3dfO3JJBJ4K+AZW933H+XXGJjv+OZv/IDuEIudsJA0fGboQaR/8SaK5kwmm3IUG/kAEzCeplK3g08Bdxiyfp8CaHeN0yfmTJ/ekP35id/rbFw6kp7N5qwltlRI0ufdwpqLnyI45Rz3wYXUL3kp9JTORuuNs7xRMSyafzadF5fjVRmcJ+RXJ8YVRq2OBatJSCeEhPopzpOrkRxOJ5Teqk4EnCwIpyHWkEq3PZ/R5FXwWbk+ov/yf2iWjDb/UnCrYsTvyR9VIM4eNDSqxoBfJLttvJvyc4dSHbkCwQN4Y1bQK2S2odstvBVV+XVV5QP1Iw1ATKvUDQVCkI2moej0f5KVPlWc1gu+L7FQvUFA16s9kJglMeB/viW5wDhIf73AJffdWDhPveP4cCczNIn9UHKpOLr/XiPMYfTj3/P/Lx2yFQIcxYl/gZ989Ed1ykJ0c0n/MZKee+EBWg9V+x8NVOsP3vBfRc0nFwvn2gv12lv4/eP3o8LOdgR9MB95/+cDG9G8e3RyTsVWELzEPXukfzBHpH8zKrasWpXuuXZHWLJ8fNZx8gUDJieb9J2Vv2ZxBkPn/DSGn7l8/vDkqJyIIMBzx9B6aDpgYtl6kEpm4Ir6UryqBsVSq7yiC6r2oZdHiZrBj45J019b+OI/RNb5jgcJ979Dp2MfXxFZK57xN9moR+PQXHzpb9farn/U9qxxB9caze7i7b9wBxuOG/gXRcl/ATOWNLAGpS5KbJ0pun43oObLjxKViSP3vvHho+NnOsG55tdHz1+9el377vg2XCWk81JcdQSE6q69gg41y5FjxzUgSVlHwrx/eFCkt8tBqIuWrE90UqRuv7M3LdRH5X7+8Nd2/bUX0ratNeIpOBNYeHHxAiMdkoP5EkhXCj1VAz2ynYqXbeG2zpU5qhaPAfvgzmiG7iBZnwqNyPVIzTG4/a6AwmuQtGCLUdR9A39NrHXxaQY/5b/xZPOb/VL8PP+aDwq6em9mwnacNlGQJaBmmew7yU9ZmHEQgLb+uF9wHhey6AIm61NNXbl2Tvnr7mqbIjknBtGA6quSgXCg6kVW1qYrtT2Xy++Xb1qT/+ZeuDjOUiqoHpfbrXvvfsqpjvjQClUY96SLybx7ZnG7fsizIslZhke2fVQ8F+e7B02HzhVLLr/E65q8a30bwHl6LGKv3HP6HCaAKxN/5G/zYzCSL/LR8rkxgzQfqCgUNB/yb/42ECCZSq0kw/i4f/J4e5Vgy+/lCuQgox7piwd9Wv1fk+Il6nJkwBlTbWLQE0ASpkN22NX1BfMZHdKhu9gbOYBSy6wIQ3V1bl6dHb1yZHrtp1bgmHcVgkppYJpQyoafeOpZe/OBkqDpJpmCQIoV/dvf6UGXU0EioYZVr9a1n90XGfSMwQyUR33ttfxTh78ire6/DIoPEajIbzAuKBScWl3ztQzHn3+OIvMCKBMPnle9duAuyYtTdxXuN5z6YjqCs5VneuXVZ1Cmrj/a7ZO6I0jex+MxUFLLrAm7etDTdl00EJqe9V8cjO4rE5yMq5MYPpTEBpcbPVPuUFI7za/3aHWvTHzyyKa/AnyY7eXEK5/nbpCI0Qn82MbWWUoCvddI1eTXvdRjuVR3rp5Ueletnj9QcgvP8SKU3mA8mtNrqMKnzUf0+c5J7ZSJYBDWqkHtph7ebNy+Nfol6Djbre52J6LlGAMwbbYuU3NjophuwMmptzgFsL9SRq6PJhb4oA0pChrxuuz9//2R0F37pg8F08ASHe9VdpIagB9OVGuNvYVKOhAAG09PBnG0EhEl1aqvk3LQh6nW4N0xok55yZsJpkEA5r8lmnmvO/2ph0DTh2rWL09bVlZ9LNNvrOPgFi1xPZnndOss9irSm/DvSqIfBdFITlCg3wNGhanN46SueE7CQOgUUHsw2lddzZMcU4Z54JROOPKRugC/EZDBJRpMd8Pkwj3727on0ozeOxA5iPjvK1vLAa2QGCRRYaa28tjkcXXomm/6dg0NBemNtGsQfc3s2rxHm2mULwyld0BrcSz7MOumZ7wshIkP3hnLW3ea6dUsi8qldE9IQgMF2iMT9n66w/4naXAr14OD5WAi0oDKE/Tyb0HNkZ8V12PdA6U030IjsKDpqziqKjN49eCZ6xCnkfierMc0xmUuGk4mEiKgM0U0mK0Vxy6Zl0YqdchydKsAEZsqqnuBfagSt4JmwlCE10sulWO3CWBFpptrkT/J5acDKBHTPbYakZVWk0uTrPZDvHfcBYpS2Uys+j6pDajNxutCfMYjs+IpFuI3FOsWJ8oXZovB6juxqUFl24+oGxlJ2fDpMVLv+f+elg7Hr/8GTF8IfVKs5A2r9QFYKedJsz+bm7VcvT/dduyI22dHE0vuZZKOjZa9lZSqocWiw8h81ghXapjo3b1wW3XBn20o9nRCNFvJitTqPBeNApNMiQ1XrVm3BsuCoSbYIUntU33SBc6nqcC8lPQP59TbkMW0oz5Zx03MBCuCI/vf/+F764x/vDmd1p4POnhASdutNbDRc5OjmT7PT1z+9ejg9m01XQ8bAidU+VvyrwtQ0OUwGpWYmi12tmEt8SWMlf9od7ZvP7Ev7T5xLhzPhjYQByuw12f63r1wTm9hcKcghNLGljERQ4JIAQVUbO/K6+9lRP8VvVE8yasjvFJZHCpVaqnxj01d5+D58YlwYAmNSfASkdJZRMqeRpwoY6S8WwG6MxU5hbFKlX7tzbaQ9GZdUq0tcq9KZip4lu//yow+jrMZAFBzoBKPJzmY0HMDfzyT3xBtHIsFV14pwgmdCs4cEgpPsKSrGdKXe6mTe+rHRPqs1/msmahsG2f+hTlepgRCoutvzef3+w5vSvVkpXimo7RVlZmojZT/zD7nmdcmYEUhVnLlwKcjQ78vlfw37GBE+4mcehhmZv5tgQXRJyf82XXPEaleG7yQKH/l/+TtHFDe61ZxNbx+QX3kmgkyujeTyK8l3FhjjRwNai6W9hY2fedkEn+lVFz1JdhJUKSPJuIiIr6IT1GTHP8b8tPE2f9rPsprTTaTy92RzNa+SnNsitxXZLQxlR6m0air8px/sSv/lhx+GcuAXHAmrs+DGXdcsT1+/a120YZ9sUHDUrEkt4l2RVzaL8gSWmuEaO+xSFgvM8Gvq0Xc6E93Z/F2oG0OSyVfXGLs+iA4B9i+qyM6145OsXlclKtf78k53s8v4893VrRorgkzGId+u6g9kWN3Xz97bqUK1qMxPv5LV3SPbV0Yysus+k9GbZJcnpsaIctSsrMyLTlCT3d3X9Edk7jsvHox9XFUfSP/gwBa9Q2xU3Egz1mrZjin277/7XvoP39/1KdOvBsUjyfm+fE6PZRNWpHCyQaXxHzLXRIo/PGK/iLOX1Urkr+Xj0rAZ67ypnhp+dxiNnm1sxlbqojJjrwrzKvykA9WxJStmm39TxtMZdXKy4ABSs0AgNurOeGTqysOUpqQOeMRlmjK41hqpqmW+dfPy9OVbVuXF89P7+c409GSAAr/bSNrKKku+06TQ2AB7+YKI0vG1iZBSMCYeB3VscMNJndWI1bHeLIcPykRuhehqUrDLlk4XjeYBhSO/TmrE5pWLQ/10G5ScjsYmI3Ljm5RO81o+5DC+fXAoP382TFcqjl/qk/KuityRma+O4Pj1qDoTO37PP/jdwe0gRQcxyFVEoFSiR1s/Oo/4eYQiyu8c7y1tZLr59OrvjrTrPD91z3xlmit4ziGPr96VznVz4fLlmBL4uFqtI+W1yxemVVnpVQvPzDRne5LsrKwc+/KK1KHKd+sEYV7lQ9qBbhMOaSN2wKfqECECsjN+pxMvnP15AIomS59pBBPFZ/O7GKR+7zYQiqRU6TuizT9442iVP5iJjlkmqkeYMStdD2YoxTn6YH5SYsjNxGoF/ga5IT6fiXTfymYhYkUcNZlMN7IbCxY/CxO/7tWrF6ctWbVKbUHYghm+71SatXg1apLzmLMFpPxB93MyxtNUoCfNWKvkSx+czGRxIj3+2pGoZugEqhNuWNeXHrphZXrkxoFMbNUkZnp1exXUwQOR/NGPPoxdqRpBF5bfvn9DOJeZd4i4U6gDpaBMuirYUDUioI4tGM4pv6Qyf/J3rw8mu8exLkMdnfX3deG9TiaIz8QO318mNOVafo+ebMN/Oxry2HwekpfCgyjUfiIPymmmONmpZa4V6o8/kmlLNe/JzyktpJZZJOpzp2L2un93X7M8/NHqv2dqjXVPkp0JU5tef/Xc/vSjrEo6wbr+vBJnc9Gm2P/snnVV65ysJgiKbqsKxGI3sT9/el+yB0Ej6Ej8bx+9Ovws/ITIt1NY4SVDu2YvZEX57qHTsfRTrPZ6lWvos5g62tKbpKKkrgOFN9ZlMPqQpHuC9BCpyLX6U4oNmXLea3zgd6rW6xvBR8hjiyTe/PlbVy1O165ZHJNURJFJaGOf6Y6XPzwZ9c6CTJ+/fiCukS4tVSL5UOwR7B64FiP9npMF41k/RWWHv//QpvTw9iuXytQJetNnlw+DhE/C4DGJOwFzqQ7X24OCOYLkJsN8krbB7OYbe2t/4/Om5EwSqQM6KLcbnQxfWVZWHOaaDtjqTyQVq9T5gdcOJ0ObmJvVBmfiq2pIq7Kp8ENlghnv8Bobdsvc97u/U0XiPaqC9eHWRCuQarVpkOsN7uPI5drP/HwRFMlKkCLk76NIKUeNFlwOamW64vU8JrkGEPb29UvjmvjO8+eqsqki+1wngjR8eNwyk1mS5p3ljuqFaHy71zMRPVtBQXHwfijE1ySzEyAT7ydypXecnycLdRrHeCSNiKy+N21aGufWLukiDOT25NvH0+OvH05yxPhsRJ8fuXFVfFeNQTUWVT7FZ2ky1mTfDuQWKrNakcmPWkSo/J7MUuQt5QQ5ckUgM2buWOrmQlZDJ7J5vO+EKOdQBDPy+ha+wumcRvFiVm0qbpA+NVXnXSJo5ri2XTfka+JbC8pEuk++V5MJ15iLgEp2P2YiepbszEWrFYVEufAEmQjtwt+KujKXJpPsBFYkoTJp9MIbCYoFESCIB64biAYC7ZCOWkn+OCal5FfEou6TD8xEc6zN5irFQX1Uyna420cH5OrvXDsEXVVL1Gkmld+vTtehAqWdRMVJPg9RS/tTAFO4pr5QJPnc66RefkC+QZFb383v+SPiM33elYZzR+ByMy0wlK7mAr6772z/lLopwaL5VQCmDsT49gjJ308WkK+k+UJ2MwwGOPm/M6s6zmDmDbOtHSA6f6uW1WCYTLITdYw+eIfPhC9rJJANZ/y1a/rSHVuXhUnZDuTHvZGviyoQez3UviM9z0w+EUOf5Wu2S2ztwERHbBSfc7lm7eL4jtRmXXKlMmO00PM7ImDK7j1+NnZS47OlliTPItHpYNYaQ0xtEW3BMwsJhet684PW19r4QnDutQAMokbqFinHZMF5aPhZyG4GwaBx8HNIn5CCYpJ0agrUvee8N3NsMkBxIWfF2n4eCYOe2qG8apOvFYj0yuKnDhAAc7guceMH9P61yV5fw6mEz/PZzoHqc/BJUpjOkWlK8SFiZWpibyN5jz8P6bnvIrvUHpeAA8l4X6rJt5rq7wYqSKhO1TdSeioVNyetyUTHVTDyujucr13y+C8RvjE3J//s/vFTdhszneymfxx+EsHkMomVcXH6dgo+rsOnbF3X/DaB3UT+OqFQ+M1qB34roHzey4qH4qUOJSXftGFpEMh0BJNWmg2n+W/cvS5az3/97vXpjquXZ1U0NyZ+IyA66Ruap37z2X3pr5/bHwEBipYp6ftfCQisUNIir85BzTMXC5N7rFOy8RHl/dD2gfTFm1eFAp/pZV2Thd4muzwXqBcKqCtkl5WCSXQ6P04WmDragzdKwCVGKrITrZz41oaTf9h0spmy62HLPZNFqZv36MQHN9moFY5zpHIsXFJNtLX6g4c3pa/evjY2GWL2NgLzFvEJYGiX9bfPH0jfenZ/eubd45HqQvlNJap62XNhikrFEUnmqogI+Kc06ieI758Pfk2+Wn5jASRmft1IoaBCj5NdtfsWZdeNXLQgu2wSUXiThSC7vOI3ckRXg/6qKDliyk0EZHchv49JdSyfN8LQpIBJWJWzTU+SGwsc6M5fJNo+ufbvsEetxcx3y5fnM2DSqukVFAiye2ZflOJRVK6LaxTm8PAxmUCu8gqPD12Mz+VWEZBCdj56vM/nw+O/vHnj0iA7PfSWLJqZlQ6ThWLGIrsVC1JfFxzUYcYOnp/UNIBQYsiuC8qOekCefEMD2VTVtKARIcw0IDaTn8p7LKs8nV/+1ec3xi5rTHILwmjgEVHbQ1nhStr99osHI2lbG335hQIg+XJNKpjQVV7gJ91g4PIC1+Cej4aghnQVijYW8Twe8uXoGMaIa9qN97pS6HFll6JlkERVmfV+7+ReIjulPvLRJgt1xM7jaFB2zfjsapVi8nLYI0ZJvNU1mMGjeRjITqBBoIZD/ZdvWx3+PJuEbxoYbquVr8/IiYtbXAvVGzpYP/7a4eiMo5JB5FtjB9FeieiTpfCQLRcFC2EksSK5sdT8aLj/TFi12SpppKZ0mlZjSNR5ftJfZip6muyAqWb1s+JLjHVD2wUSogIoryuBZpWdiVSTJb+Olu2zQdGNBZFKCxon/u99flP0aNOuaDxHPl+ehUvS+f94bn+YuM+8czxSfwQSJgOVz27YjB1BqFwNIuXNKDv3UQ0wQhdg0h6+U3/0vLwqcAV4r2WLZ65p3NNkx7lr1WPWSE6tZX+7YIJIB7EKi6ZNhgLwlvUxGpWyq3rojedvc25UTE2O/HOzQdGNBd9RCo2Kj6/eviabtqvSPdmk1TFaf0H339ow8gogNIGCnftPhcqL1vrZvFUbLFVFaguV14377O8rH92ly/sHczHUcC5cI+qTJ4L7aKFTJSKibm+TTsY0SGmRX4nsJDrPVPS8sgPEwCmve4lSpXZRp57EKpxXY4TSbdQRVI+jEeQ1nHc2nrJTbcD/wtSdxRzXEBY3OWsPZ5X3m3etT9+4Z31sh8iMd01Gw+7/Es5FRZ96+3g0Zf3Ws/siYsvktZF2pwgyy+RpkZRuwlzudOi4//19dquzj0n7N5mvjjLk/7w5m8YU40xFIbsMN5RJo3sHk6ddICG5agYtk7aZlbhVcGLL4/M4Gpd9dnlwjjfABWZMBhN/uqaVTBb48yh4BPfwjQPpS7eszopveSggrgwqyGtq4ByLlmoSNdRM2X967Ug8ar104OS5rOg/auhDbRb+lorU5AHpIddO4f4jOhUi7frsDA3vIcorl29bJjyKcaaikF2GwT2QVywJqouzGdgprM7hu8sDt9u4nMvXIOJrcKp8oOw6dUrPdiB8qSrU/BeyWfv1u9eF2rthfV8EeMZCpINklYfs/uypPel7rxxOr+0djCh8u2AR6FOneqVb/kDWCqLrRNn5u9uuXho+zuq6zOxxVWZEBrKTgqJnl4ik3zvRO/KiPjx6JhRet1E7qxspCWetgSXCm2k5clONWgVrpX/z5qURtb3/uoGoxhDNXLOsSlEZfRVddz61tw+evrzpuQ7NVJ8tEt0bLoZWqjBUTdizQ05dI8VuEcMxrYjw2neHsNpR7/y+dr+jgB+4fkVYPTN9XBWyy4hVPt9c7XOshnwUndxU2xu+d+hMTIqC6Q08gBS0HZeb9pVbV6ffvGd9+sJNq6LyIshi+LUjUftOmbLU3d+/eDD93QsHo7HEWD7VscAM1gxVvXOjRcziy5840ryeCEjT+LPwCqS0Atfk+qzkvpxNfC28upV0f6VRyC7DKmjV4o/gt7FpTiNndbPgf/ng8Jnw300VnG+Q9AzOg7oSoHqQCF8t35QGCvLxHrxuRfjy+KoQoTyzkQKJcENoIrNUnf1AfrrzaLT4f3PvqTBJVUQ0QzTn8uu8XnfmRiTp3lJarYxJ5rD30//QBuXNwhxQMhiKLl8DgQmmsLzFmY4yM0ZAiJ3fTo1hJ7lJzNc9x89GKspUwIJfl711mlPV60Ao0pC06/rt+zaEL09FggVQIGssUPNMW2kqf/bU3kx6J2KfCPl6E0FOHUUnqbiR9StoIoDWSvCMuuRHdDRSi2OBCf/Lt60JotOM1mZJswWF7EbAQJc8qUdYJ1FZ+VKCCMwIPzfyw3QT1An/kmz5yWot1SvggHfvJZgrqteZl8/q1quXxSKoPXojzkNqUlEQ3s/eOx4BDI86JEtOHq+pANW2bU1f7HsraZffFXxO5YO9KsrAmlF2l3P28kLLD6gd2HjpMfVnaH1/6+alsfcxotPGiVuHX3O2oMyMEWCqbMoDmuliALYLOXaD2YS12jNzprp7RkHnqEigKjn71ax0JCMjPtHb8XIY7YwmTeWnbx3LCm9f+sHrR6IZp7SSscB8tlkTH5ntE429+vNFQBfMndN0wIwVLOWJK0WTV637x6vVrj/Dpur/6vOb0pduWRWm/HRt69UJerZT8Vjgv7FKv5kHinY77WgylghzRBvzSGfJq7IOu90A8+jprBpGWjt8jpW/cUHsO6HzR0FnoJZdV76q8FllUhCsqHIT87/n1yC2uNfxFxVqX56gQ1UJkWLfVbl6qiKMryBL7+GNMqhxn+HfkJV/9DfGjYoFJvXtWVkKpE0EC+vuo+fSq3sGI/GZsuO/G3mOUJdIXpMVpU4piNxhsyQJ1uMR+kxFUXYjYLAZXAaBqKzBNp6fZjwwJ6g6rYKmMlBRMDmw0bnUFNHar921NlJUmLvGzFjgKxO8UGr2Nz8/kP7x5UNhWgoYjCwH8xYUlmCAtlSacN64YUmYzSp7WulLx0/8wq68IL59PIIeSHPER12G8jlm+pduXh31wg9tXxnfcTb7fIuyG4E6Mic6VjdNZAJw9rYKizYfGmWg0wZTpRM4J4GP57Kyo+5Gjl/nvL7ffgSLozV8p59V8FlQdBY/vlFmn2uOpIyZ6HKTb8hoUvErwtPMVTK4NlGeo/z8vfQm7zHnKq2TKsXnvT1qxy71xaE33eaVVVv2seBz+AaZrk9m5U/Z8SHW1RjIVB2wGtcb1y8NsnbojuL9Le7Uq3OZrShk1wAGjqx2fcUEGtqthDCYTYbr1vWFH7ATMIn2nTgf2+y9sufU8LMVfI6dxG7Mg9ZnWaELJgdMWZUXyMFetpTTvmPn0qWs5MeqfmDaRinh2YuROMyfxmzlm6uapFYEg8uQIJeHhYv/TsAMQSHB2uxtBITLN/iz905EGswHh8/GZ9ZnVKeU3HPNivTVO9ZE+3bKrsqhq0rkvPt4nzHTUciuAazQvBxW4vcOnQ6HcyfQauea1bY1zCaLpbwNIFwBD7t+vb53FNnl1djkqLc6LHsQTB7quuL5+VBtw82xKJuz7ioT0rhpFHw3pkTljSkkpEOyRRUZharLqqryB1Y/h4oUhZ0/N8zlsSohvAe/nE3MEd1LHw6Gz85nSBtByBZaeXPyBvn/dmxYmtZmSwBpU5A+33vPZqKD4rNrAKbK1dlsQB6dZI4L/1OGVnIToRsF3gXTA1Wp2fx077YV6fcf2hTpKX4fr52SYAVzlt9OPt7fv3go3BJ65Ol0MhpMT64QpDcWBEle3T2Yvv/q4fTjN4/GrmQnzlyIGm+pLPYx/tqda9M37t2QfvPu9ZEsjeh0x5nl3PYZFGXXAMaAnamoqfcOng4T0qrcyNE7HrzcgNrQX+21arU2eNsBM4XPTj+1zyq7z0XKDF8dp3ZRdpMPKqhSeVWNrbZZNrKenxdKqq02XRtBErF/E6g4c77a0rFuB+a9PjFrq4jwSNVV5dFVeX1KzJCbzYJ2ZbPV+fDx3bRpWeTLaVCq7lcO38YVi0Lpxbnm1418z15BIbsxYECcySaHnad0MWm3jU9+m+GWS9Wmxu360wrZTU/gCz5TnZDlpyE5Kl5ga7woPG7zGuPLVolyMwWzLIxKF8eDhddCrL+ePL5384JsfLJE7skEpznpIzeuTLdfvTzaMq3K44EpbJz0GsGNRCG7BqhXPasnghnKh420BS1aRX6n8MHMywOZ3w4ZtYNCdlMDKSGUmUe8MBE51GPF4mhBo66WLJoXZIbAdD8ZS+HRclSa6KxgmABH1Mbm/wtejG5GYfwNZitDpkBURuS/UdERuXKbl4VfTuWDMUDFsSTmz62UXK0QexnFZzcO+D207ub8b7dshsliT9YPjpyZlP52Bd0FrhFhHSs/bTzgEmkcX7lldbpvW3/0gOO+mAgshzf3DkVunJy81/YMZiviswurBU96yTsHhuI1SxfOSQ9nBfdb922IfXJ/5fY1EYTYMFDVSCO5gk9QlN14yGPFaq3fGFMhMuIzebU4B+L1fDt8J2oQaxXQCoqymxoguFBXGVUeXPOEUas8f+Ke8OH5e2OG6TnR7mA+VT6lvDwZAP4GWeKsOI3h8YjINCaQkuLR7/NHRVXro+ATFGU3DuRAyXNCIgYVs6CVwV/DIOe/OXjyXNp/oj1zuGDmACHplPLFm1ZHlFY51sq++UFa48Fi9u6hM1FX+02bdb9zPMaNKD4iFOnl892e31sUWEqJSoiJfHwFFQrZNQFtupXySMpst6+XVZqvhQmim23B7IexgvS+cPOq9OVbV0c3ZO2jJoIuJUeGLkQC+V89tz/SU5DeWL6/guZQyK4JiGTZlg7ZycFrB5zeyE4LID4aKQSObiGsnGK1dAFVS3VHhFY7gDw5/eFUK4iQUnkqFkZv0D0aSE2XFH6577x4MNq+a0oxdPajMLHj3ApaRiG7JqDUZvuGJVGS1a7JINJmT1ltvKUaME1adYCPBSTnvJYunFf62XUI90lNtGOs8q9WoeZ088qFUYv66I0r033XrWiqKaZqC80k7Ff7J0/uSU+9cyyacZ4tbpC2UGZGE+AA3rq6L6KyiC9Kd4b/rVlYkVVTaNd++OT5iMwybbuFunkn1VDQPtwneXKOOlDRKSxA8vB0MmHKqmpYu2xB3Kvx1HgovEy6KiT+/oWD6dl3jqf38/jRbj026O7WatkjKGTXBORO6eZqNWaWiIK1q6AEKwzYN/edigaf3YCom9QYuVlF2XUG5CPA4Oi2W0DAiytEz8HoO7i6uZQmpIv4Xs6kZ4Pu598/WZrCtoEyM5qACKzBP9A3L8xZA7Zund0qDNpdmey04ulWoMKk5B9aNP+qSHkoaB+uHnGcb3fL6n0iuEeiqdvWLo4EYGNJ70SBjPFuGwHHpFa6+MQbR9Pzu06EO0QQQ1VPtxTobEchuxaA7JTgXL+uL1bpdmBw7jl2NuoalfgUTC/UxOKYrDiA9lD3XNufHrtxVbpzy/Kmo/zqZ6m5F3adTP/juf3ppQ9ODm/qU8ZRMyhk1wL4xGJjlBG+u1bBT3do8EKU+xwZOh++oVb39fwM8qT0HlRjWeU7g6unN53rOFlXUnRfjtwdW5alu65ZHi3AtEJnLYw3otxalR26X9ucWwMAG/roqhPnW6K046KQXQvQjULOnQRjycYDeYC2WpKjzY/V+eipi9ksORP+u/E2RGkGUhFOna3es5mt+wqmByQEP3DdQPr8DQPhCzaeRtfDNgKFZ8y8+MFg+u4rh2ND9mLOToxCdi0AsWl2aJAanEq/WvWRGY5MJFE2OXdWZupuIljzq4Lu4SdGwIKukPzU2Uuxs1RB+xDhtBg5OiUPSsv7eZ9GuXEUnk4lN29aGk01qb1mLAanJdCl3pr/Tgt2bpETZ6oIclF4jVHIrg2sWjrv8m7x89oMVCgZE5F9dfepSDKeCBzmHNxjKUlJy+cv5QlaBnpH4AqQIuRop6XXSLgTFjbvOV6aiLSUL+xYGQpPaWK9leJ48G4qLZznU28dS9958VBYCZXCq15T8GkUsmsD2llrpaMT7IrFWlu3fhlNgAMnzqcPj54JJ7NC//GUBKJblieBwEijeUA5VKv68BMFbcE1PJPvxUT3oxkgOvdXIMEuY/y03nc0kJuF85as8OrNuOVNTpT6wpxlFdgbVpVF7cM7da6UIzZCIbs2oCEAE9YqrNsIwms1J8tKT90dH6o2YZlIScjHqpowlqLvmQKm8JNZdf3pk3vS3z5/IH52n0ejVu1I7rFourksqmGacZHgY+4LpPqj14+ED2//8fPD/1owEoXs2kDVZmdu1DnautCjttytgGawMttxyqY+cu/G64YiOILw7DIV296NUJNUnb8txeKdI5RdNg+VarWr7PjMpIOob2VavvTBYCgvW2C+snsw7vVIhScpnHtiRV9lMRhTqi20WG+C70JBSlCv27Rzj1CRFGrBJyhk1wHWLJsfbbA5mVuNytYQRbUzlB51+uZNBNvsUZRM2hpMVwEPCrG0j+oMfJ+upQOJtAMcybw8Mng+lLvyLqTHzHzizaPpmXeOJzvFjYbg18CSTHjrl6SHtg8E8TUTnQXErEUUktMl5fl8SEkp+ASF7DrA8kw81661feGiiNC2081YFHXPsXMxGQ6pmc1Kb7y8O2asFZ/Cq0HZGeiHSwlRx5AHWTcCaDf/kYvCbvx8aYhO0wepIroMv5EXNT68t/afjk4mIxOC62j/unx/b8umrK7H67LVYA+TiRCWQiZn580/iFilpGgcUNR+hUJ2HcC+oRvyYAzfXT7sB9Aq+OkMyD15RVZZoQRoPEWhgeOqrCj5DWtQdpQEtVCy6TuDa9+pshMRp7Be2TMYHW5qSBepn0d4Sr4a5Vj2Z3MW0Skni/y7vJA2azdY7LhF5OCFyXzkbOmSMoxCdh2gXonX9y8Ip7JE41aBqEyqegNsq/F4hMWvUyWgfrK3gSlp9UZ4nNVqbjtNm+g1UGOuO7JASlSSe9MK+OqYkxK7daR+9+CZ8KPWYN76t0MnL8Rm1tTX/uPnYn/hkf7B2ie8ZWW17+s1qxdHg4dmPCXehr+RsuS/eyUf9kDx3cZLf+kFFLLrApgaNlhhzrbnuas2XdHKZ2cmvPH8bgrHtfkevc+EyWkiUSSI0+bJBc0jAhP5up8+91H6CNENP98qmL4IUwv+2GQp39fRsBhRdoIWH+bXjGUyb8yL58PDvjupKK34hX3Gyx+ejKTjeiuAXs/BLGTXBSxfXGXCb86mLH9aO+khJohOxnaLP5BX5ZgAastGga9ufZ4E/DpafI/cgd6EOXb6Yp5oF9LZTHwFzcOG1WqW+dWsWHbMv6rF2YFKKCoLFoJBnI1ILNQXhZc/6/X8WvtONPK1clUYT1vzIrojm7Srlza/kZJIfx2wEAV+Y+9QQ5O5l1DIrgtAQLExTzY76gz4VlGZN+fDb8d/x9dDYYyGCUDVIbxNKxZ9KlBhXon+SVYufprWwOwXMHDttPSyYLUaYSecLFgvZUUlMs610OAWXoYFjZp/c39W8w3ITu6dsaTxhIqd9SuaJ7vaPeL72EybwhtqoDJ7CYXsugCTQx4cwrsnm7Pt+O7Aii//an82gZiiVufR8Fkmodw+2fbSX2qIJJpkHNRlj9rWwE8Xyd2nzodaFl1HNq2Az07rfb6yIw2Sh8fEGIQo/07j2LX9C9Idmew25sVN3WwrHEwxOieRYelNlF6vRmcL2XURfCwPXrciFF67COdyXo2VkPHDjQVBkTu2ZrLLZk4Nr48dzPLAZsIUNA/KTuUB01Jnm9VtkV1WdscqskOaEwGZ+Qz11eM1d2LK3rmlP8aV/SxaUZyIzXey77Hz0h6qV/25hey6CDWzSn7UOepRJkF0IugurHnjfdtWpN+6b336Rj4e3r4y3mO8mtuqRfySMHEQH7OrzrfjN7KaM4ttulwwNqpk3ItBCPtOnI1EXPmS0j9a6VfIBBZhdd1FPsdbqGr4HFYA/+v8ce713Kuq6hn32daMWoy1Ct9LW/ed+0/FGGEF9Fp3lEJ2XYTmnvan2LZmcdqxccm4g9I0skAvWTA3XZNf/+D1K9Jv37cx/da9G2IHqusiAjd2oAPZ2cuW85p5431YvdJPYuIeF+g4F0nLBWNDAIHvTFAIUSnx+oTsJp4eCKM2X3UQ3puve7M7xzGX+Xhje8VxVKQqCgtfVZ6Yx1VWna3i+OkLVbR//1B834s23u4tritkNxmg7jRl9Dh6j1A/U3MbBrT1WZX++b3r06/dsTa/fkVe5RdEAIKfphnw39neUWnRSD8hM0VFhry9kXleBZ8FM8+1UnWgvhTpMGFFPpsxYylD7yF515aH8uYmAg6t/YLSlaQuMU8ngui7utl2lB3yZapbCJUnSovp5u52MwGF7CYBfHd3ba32FpAcWisEHGYCKeSXKProjpXp1+9cm75086p01zX9MeipimZ9MpnrsrJbnO4PPyF1UBFrTL7DZyMFQt6dCdlrJstEqBWZnnDIjuI5df5S5LOtzESHUJrZqU2bdHuJ2CJTxJNCnAhzslla+wXrdKVmiFWO5Y3rWQwTu0dGw+0XndV15bWs8OT3tVshMlNRyG4SoKpieSa0a9f0RY2jQapdz5plC9LNm5elr2Yl98/uWR//5jmvbwco0aTh87nt6uXpwawmESYThQkrKmtQW81FGws+gckvGCTqvevQmbQ7KzPqyvVbmq+poEEzaw6/6AuZ5KQMucYjKyHGwuKs7OVlbsmqzuLWLCyco0sFWwUzXVT2g6Nni7Ir6BxWaf67rasXpdu3LEsbs8mq3bZggk1WfummVemLN68eDmK0HvWrIZq3OE8AeXdae9tpnqqk+AxqaQZUy948EYvv7tNQTUD18rV9kInOghAJ2/1VkwVqnJtgLAgGITaBCWVfyI5SaoLrguCMBYTXCtl5rY153HN+vCYNgE9BcEK0Xi6nJGNt/HtF9ReymySYJwIHd27tj/pGLbd/+bbV6cuZ5Az0yuRsY7Q2ALOXf/COLcsjWlebz4IVr+w+lV74YDDIr+ATUGEc9j/eeSxUMPPVNbxmdV9cu4nA/6UUDFG+uOtkJO82C/66Stktjp9bgSHTv2heLGrNnOdoIHkBFB1yotIjK9NeEXiF7CYJaIzi0oRR9rtoq4Nvjo8mlMOIpdnqSi0o1o4j/9zsiovsmMPXr++LaN0N+TOlvfAnya/io6nKl7qwbeMMR/jpssplvjLnlFLZlW1hJh1kp9V+M+V+SsGowtjw/MDpT3U3GQtut6iqSC9fnaBSqy39jZi+4R3uWlGFNQwpyerOV9eVg1mZGmu9gEJ2kwimholjU20kN15tI/OHWjg3fDCJWh2CC7M5bKd5UV4tgjT4lEH/YTZZmFrRILTHN+ZmejLvdQ9+x2TPyobvSuoOtSQVRLR8Ikgx+cnOo7Hng1zGZnx1iI3qlla0evn8GButJAh3E1TpriNnQuEVsivoCHWr7WjG2L8wghXLFo9oy5QHGAWH4CS1OurWQp4PVTdiDPq3wTMXY2KNpfhED6UyMGeRnvw95hkVw2TT34xvCgE2MzlnE1yzMD2zukVyP991IiY7U981orblsU1UJsbH5W8sIFShlBMKupnLqbmAe8JXS5kZG62SnY9x7yr/YPv30HXQdILCa9BvYlaikN0VgnFKUchs37nvdExADmNj32Rj5o506el4K2/uYCarseDl/o4J+9ANA+mrt6+NBpAmFKf0z9+vdrlSA2ri9xLQgmRaE5zKVRzPz0ZtSQNi/ouazx/lXhiNwUwSSJJ7wDVtxnytIYp64/qlsYuYLtftwsJnB7FO7qGWT8YBX25RdgWTAquyjVC0YuJHE82zylqpkRvTV5oKgqIOJQgjRDWN+p/xsxwduhjqbDRqNckkuy6bzndn0/nOrPKoSu/NEf/63sEwvQxyk6UXBjo1ZnJLpK3Neb42e37we7k+knU1Rq2inGOTnUqEnXnBqFqeX4j3nQi4k8nKryowcbXARBN+wdFwv6JB6/DRCdkhTN+FOet9WBRjWQyzBYXsphjUnMRTNYo2RTHp1i6fHz42ycajFV0ov/1D6Zl3j6fvvXooNkSWAa+V+1jw995nTX7fR3esisRlEWEpFYrBn8mqxtZ7zOJeMGdj/4d8zX+eF4vvvHQorjlYVOo9W3dsyGprhJthLOgybNF5/9Dphl1pGoFS5wvku2UuI75mtkkcDa4OjQbc+5qk2oX77u+1lpKO0gvNAQrZTTKslgaWCCAVx1xlSlIGBpr6V/4bJhSVUSs6kVO5W0zXn2Wi09nW31IlklipwrFQKzypCepnqbt7t/WHr8jzyFa77reGFZ6BPhsVHkWnZRaz045bL+bvbJvBY1kZIxvXXPqHKCwSGq8WuYaUIQQp300FRDORW8nKlam89LJPsNmSQODDFUVHdC/kcSAK3Gz97VjwpwLzfMCIUz/F2Y45/y5j+OeCSQIT1eppExTExYxkht569fLoSUfR6Yc3EoiOgnjq7WPpp1nN8TUhRwOc30jqgskzHkwnJhlHuIkp5QERMoXe3F/5CG28zXHuNa1MwJkA35NP7cdvHk3ffuFguALcB9eQr+6WTctjK8ybNi0LsnMLXJ/xgKjWr6githfzG1FHE+Uwuu5KA9VLM2WlubQC40cnZX7Gf3jpYIyFU12KqguYSFlasmhuKP+Jvv9MRiG7SUId/YvIXR6cFIV0ByqDgtu8cnG6ZfOyUBWIjrKy0iKyfXkFtwOV/UWZrKog6pbaVKKf5Wg5jM2xFImBi+xEaQ1kUceaVG3ZGKt7nkjMMURnmJvMM33AW0g0QKh7uCnQp4ik3eSvG0S1aumCaKtF8UZ36TzZm/nerk90RMmPFJv0HrvKCQrZbU6SsNe41u4z03jTgL0kVmZyXRa+Ouq6FTDBBUOeyuPBd0HYzZrQE0EStUR030mLskJ2BS3DUNRFQ8TvyazOfvD6kTBdkZVqCtFSjTfrbhfhQ8kzETHyzyE6LYP8/cjOskjR65SfcabX5WLNICK12fxivq3On8108RnUD7Kj7lbkyTnTFZ7Gp4IRrvs/vHQorjtTDT/4ar6/QIFWWvdc2x9E1zQB5Zd5rcUDScqZo9A39FdbaTJx9aZbunBe/G4x44+VWB4LW/7bVglFytDjrx1Jr+4+lXZnxR/BhOF/6xSCM0oNV2SyLmRX0DIq8+libIj8fCaT59+3YfHpmFQG1715gtn1nSKrI3+iazpnGNg/e/dEemt/tWnLaF+KQW7SaizJvNH2JxRefn4ikjJJmVDMVv483TdMnFoZUguidAi1JuFulbRNJsKnlQ/mJPP/1ayKpdlwG1DUtaLznWyORFHfm1Wd5gkIqBmic50odYsSeC/ERrnxw/HdIQuF+uuWL4x8R34699nuYMxFfr5myKT+PnIi+WmNB4ufVBHma7eIDm7I53bnNcujRnu2m7Gfy+ZWN69dQYZOIyJ+P3zjaPjcTEKD6JduXhWKTp4VVWBc1YPL659480h67r2TQXjUick11s0x0ZhO//KBjek37lqXB+qcUHnNwITl8Eak/IB8WW9kUkB0YKWnRCi9mvSmM0S4XStpOepUpZc4qLnazwmul8Rh10szBhOcQm4GTGOLmPvFTBWoqK+NGeTz+dWQIqKqZxWvAUXNpPV3zUBgxfv9PH+Xn7x5NFwZcX/yc96/m/h6vhZ/+NjV0QCh9unOVhRl10VIWlV+ZMI9nVfiVzVJzCRGHVnxH7x+IN2VV9G6rtHAQjomJOX3k53HQg1GS6Y8sMeD1d+kWJHfC8l5P4GOZuB8+O4oOqRJ2Bjii+d7n6uC5ET7THCEaPw3O1GnEiKJ8hU/OHw2Wo7rJ6c1Ov+WiOV53Xjz63w/PjbRaLmHSvekgbQSlEFejlrpWjBcG+kgzsHz9X1wTakkh+dc5/HUY63kkOmRvMhZfCx4AlRIW2naiTOVGd4t+BpMam3GHswL8NKsSlkLs5nspv+yPYNgoL6eCQ5p/d0LByP5lKnJfBU9ZdZIdTAJavh3yk9aAdNVGVKtsMaDyWHvUX/z051HY3K3C77Du7Np/cD1K/IxkPryhH0zk+5bkSJzOlohTUcI1Khz5eP85rP7IuLKga99kWBPDUSzaN5V6aaNS9OXblkV6Tj8asOxmqaACNy3hXkxQAgWAjvtI1r3nInpvtVmbisIP2xeuKI4f//piB7/+dN70/dfPRz3l0uk25iTv4MFTECFuvW9ZjuKGdsFGOiaPzI1apPjrTxowSSxelIT2jvZEm8kDHIruqjh3z5/IFZ0eXDNEJ41mLOdSfwbd6/Nptnq8Em10/oHqExmkpI0gREBEOVTumzURev1YRMYptzolJnJhGslb06enGuE6HYdPp3ePXimqgpRO5yvWz2ipZcgORsTUXI6OlPWSGuia0RtBXHli+z71oourlF+3v2hLCV9IyMbanuNnEUBJAq5VnT14R28Z82Hfvad+Gu5LSh6loHgigj8UDbDJ2uzc+NEGgwz9vcf3tT2mJlJKGTXBTzzzrGIliEqSb86BZsQIAXhy7esTo/tWJVuvXpphPpHwuV3BwxwipBKYb6YRM0gz6GYvPxQPodq0XigHdRDgSqq1QZz+nhWHNIdKl9VlXIR5lpWBB6nChYFClbQ4dnhII7opAAEEnL6Iwez8i8ug1+9fU36ldvWxM+VX+oTc3QseD/fHUUhTWQF9TWqP4tf8GQ2ZfkL387nsy8vfBS+Rcjn135PB5MZSdZjAzEiOvtWIDcNG3RP5oMcSYqTAYEZ7ce+ePOqqKGeyvt4pVDIrgOoiBBYYDpJ+LRnq5V5JCii3/v8pkxGayNxVUSuEU6cli5RbdryvVcORzcNk7sZs6hWj4IK2jvdvmX5ZTXRCUx4ZjY1xWz7RKFUSifqePNRP88H1M20FeoK4SAUJEI9v5vNasTgWimbip2y8jmOxEAmGab5dWv7QtHpACMCa+FBPuNBrat76N66n/LivI+oN1/caCWLsKhJf+NAWHx4rpn7p1ceQnNVnCXlbCEBP6ussZAwYfluux2AGA0c7z7pjCNgprrGtZmOPtluo5BdB6DAvv/qofTirsFIdzBQR19M/pD//VevTf8qE56BNpYD2G3Aa+plv/ns/mzWavXdfHcSZpN+bH/42JZQMtSIKGAnGDk06p88RZ0gIeeGkHxWHHnCdNOsRbaIYM/Rc1nxHos0Hv4xG1C7VmON3O3r+4Lwma2qFhAWcxYmcsAjULmHdUSXQvvKrWvC36e9fp2mU6O+Rh7Ezl0b5OxvlfhJf2FiC5b4Po3gb8f4Kl0HokNsX7l1dfr9hzaFwhPYmum5lc2gRGPbgG4RFJ38OflPe7ICsIqPHrCITqqDbRKVdo030fwbteQ95MFRdAdP2nD5Ex/UuPCa/PeU5OfywBVkkPfVCZzTZ454vjIDw6eXJw5nP2IN1ecf2wTiQBYijwgC6VDMT71TNT+QcM28FykeCROYGSaXrSY4UVcF/srkKF85heOdm+ttpzF5etKFkBRlh2zDL5fvuXtMRSI83OAYfW1clzlxXeZEAjcy2bZ2SeRCUvV1qZj3Yc42c2u7AV/ddUDYLACNIW7etCzGqPvYyX2bKShk1wJMRoNz//HzUfr1s/eOR4G5yTB60Bo6TCntfAQlJBM3A5NWwAHJieY2a8p6yaWPs9mZiQAZ2P9iXX9VWdHNgey9kBpyC/9dh0Q3Uhn5npJmlUdRzT9680jkKsaCklWuErDRJivCQSAmrUls5zaEJ2FYSRil2YxqocqZm+8cPJP+6dXD4X/1eUzSdw+diXNyT6SwrFqCQH3nrBZHvLXv77NcFzl87j1CkbdIIVKYKNF3YL56jD/P/5n4DDsDokPS29cvDT/dbVn5sgRcu14gOihk1wKkOogC6p7xRJ6EuoYgukZcZPjoTGzQG+zNkh1QByaCAcrw0Tq7dmpPhJoYlYMpV6pJabqCOSzAQMmpenjyrWPR7hzZhJI781klZ266NgIxt2dSQ24CQNSK61wFBlqr8ZX+4/PlR+pKI+I78pIjYz41wQe5kyLwVJ/rbYHyUeORKtIVHKHwnOMN6/rStvzod4085wxbx4ITzd3p5sC1IDCjieuj21emB29YESb52uULI+2kF8zXGsVn1wRqRXfwxPm0M09KRPedlw7GhBgLhtCmMGH60r+4f0NESlsBRzcz6vuvHErfenZ/KIxmFB5QEb92x5ooPleXuXbZgpiM02EFj2uZv4ZdrjQhkC5iwVAS9fP3j0dLK8GHRnD6FKR0GBPVBPYdbVcpsthO+oTzcV0FhL71zL7oMOO6U9SNwORDIBKU+QUFhhCuChYuBAvVRARyIStEDR+Mp/cPn45Irgizz7Ww+XfnZaGrr9cnt776PX7Kj370cZ/cWu6QasEkPBHpxmwp2LT9Szevju09RdGnMmVouqCQXROw2vLnvLZnMBI9ZelLMxgvB8rY64TsRD9F9OrorAaedvlvhvAQgSikiSg6y19oMk4UiZwK1NFLqk1UVWmdDZtNfD5KpE4xjYRriWSYqnxgNq3ZMpyg7RDlFoFlYrYKuXLSVxTZW8DkO9a+uUZAJAiXetSAgauAX1YJoFZRFhpKajy4h4I7Ir+iydSrxY3ZzJT2HKXpZ4fzoX6NQwqfyS3YYUxqM2VT7zp1hJJ3bkrjmPFr1Orm8+Macd1cQ0q/lxRdjUJ2TcBgOzJ4If0kr/p/+czeCE5wpI934QwlK+q2tYsz2W2M6Fc7QHI67NZ97ZDgRHxnlac+dPaQNKoywmC3ojuvqVR4kZybh1g1QfX1M7EvRrSZ2ej7Ke9qBGdZB0G0mt8wwGxddjmVBMn5N+TTKgx71xGp8L0+886J6JLi3raC+ZReNpnl8f3K7WsijxIhtwNkZlwxlZnJ2r4fHTofScuSjusIeBUN/ygNnf0ontOIAImB4Nb6bBpvztfKgrAhE51/74U8uolQyK4JSPh96q08ISLh93jkROVxOS5MP6s+wvm9BzfFRGgHIr8GvRZRf//iwcjlYvZNBFaKaKDmoNoYMfe2ZhWEPNohh3ZhofAdVGRICGai6unH4a9igBlL0TQCwubT0kEkOofka6k33Np8XaknCrbdwAh1paef8rx/fPlQBEFUZIgEt4LK8X9VLGgUPB8t31w7qKs2zmb1yz9MdVLBghmsiPrf60MwykLi82u/rMg0c56St7j52b/3otk6GoXsxoHBxWxg2vzlM/uiwH9/NrWsrM3AhDQ5/+CRzenX71gbiqtdVaVeEtmp0FA5kE9rQijnMvn4lL5x7/owa1VbTGbAwiSsKy/4nuTE8UW9l9WbdkVv50c+Kq9rBJM1CCQTGXOML+4mXVi29AfZOX9KqlNQRupauSbUMdsW0XlPtIiNhkTj/sVz0+9+flP63Qc3xrWdzOtb0D7KXRkHJqwkU7lXjiNZ0Y2VGNoIdq/icJZk6r1anUgjYaIr69HtNlbqJtQZs5FqYhJRU6oQmiXqdkHJ6dphY6Bv/Wxf+tMn96a/fHrfZV+nygSLSCP4SlTRtWv7wsf5e5k8lME9klXplqzu1OhSpt2A66ArzY93Hot7G3s6tHFpmKw2NeKbpUSnUjUXtIZCduOA+WAicKQzu0zkVgjLhOKjYnY6qIl2wT919zXLI42FU14hN5hbtSnFdJENz0muPxmf4bpIQZkXkTtKqy5V6hTep9qiUGH+hcv1ndI2tECXwvGD146kH71xNNJJXtl9KkxGZuLIM0Be/ElUMAc6JSdy+PD2gfSFm1ZF63RtwwUDJmqV1Ayct8VHY1TttORLchNQmq1cGadBOTOxJY0jYwGSQnbTF8WMHQcihRSJiWs3LpHCVqGM62t3VkX6IqQIqB1QQyaq/DNlU8xa1QXeX880OXW65iJBrdURXtWcsvqZ74ujmtnVDTOLM13UkDOdrwuRqV2Vh8hHx/F/MpOKgApVO9YoEzVcvXRBkNwN6/sikLJhxaJMfvNC5TlXEcZuganqGirnkkLEReG5ZvMYa0gzcc1/4+516Xce2BjX3rUtmL4oZNcASMVK/+beofRnT+2N9A/OdM7iVmGyasNOoVArooidQA81KvPx14+kJzLhmXSc0PxbypH4j6gk1RtIjtKr/XTtqA7Dg5r9KNt4lbP84yAwKRFMfEEHio7p6pHKQx5jcQclx9xzzlImkD9T8JbNSyPZVdshJN1t+B7OXYeSx1+trh3fJ39iO+CLlRz81TvWpN+8e31RdDMAhewagF9ONIyJ80dPfBg1mkzaFhf/gEmgLEcC7O88sCE9euOq4X9pD3WeGqLhD/T+kZ6R1Q8zSioEYmPyqVn1e5RM5bnYTnDE8HAtmPB8fnY+4/9TnG8BoOL8exz5NVTceNcJ+eogEoGHTG6UHMKjSKVPxHnn8+82LGCIWWqJQA9lzJxtt1/c/dv605eyWtc9RCpML+atzTQUsmsAxCavSX3mf/3J7kg4bRemgJpIZuRv378hfXF47wNqa7qBaUqV8e2dy4+SXgVZmKR8jsiCElIupfnByfycEqrxUCs5aRB8h+tXLIiuzfxwN21aEr44ZuxkwuIlAKFtu6irfEULWTvQPcUeq6oRfvOedWlTNrmR93SoTikYH4XsGoCKkeEv2VSplsTXTkB9US1qOO/P5qxH0bvphgimDF0MxUg5MkspIX455mllxn4UBOdnJMLEHQ++N9NU2RpTlSOfmuNLDP9hJg9kOJmgOFVl/PXP98fWitF3rg3/K+gaYkeux3asjETx2gdayG76o5BdA0h0FamTaCrh1L6jnSIidysXxUR58IaBiKrysZks+v930wk/FvghpaNQbxJX66RVPjgkhgAo2jgyuQk6OOx/y0fXDHxPqhWZceDzHcriv26dzZiXRHR4ZVZyU+Hj8n2Zr+6fHD/38ok3jkQpWKsBCWer1lTOoiixiLHa2MkwuQsmB4XsGkAQgAn79NvH0493Ho32Qp3Cwi89hM+KqmPGSfLVBVdayVSYtcxTZqlyLXWodXddx4Gs5HRLPnH6UpBh3YZI+gxiGCsJeDQESrSGp+R2ZHKj4nw/u1cJpiAHqTJToYTCJM+H2uLvvlItWiLsRnyrgx45O+/I//v8piiot1hNBWkXdAeF7BoA2T2bVZ2UE/6dbpBdDROGz44PTyoKYkAIIqjyzaKrbn70Op0rkIOKAT+PhltHldVOdr9Tboiq9r/xuwka+N3PzDk+OMrNgfjqn5l7Zy4077A3z5mgWllJvUB08vskQCuT88gnx5S9EuVKfIx2Gvveq4cjhYiZrqC+Hbg/THD7zUo38ftUkXZBd1DIrgGYcZzZlN2P3jwaeWTdgqnBac9sZb4iiDq3DFGop7WjvARhEVYkIhetEVkw0VQk8LHF71l9mcx8jg7dNNSk+j4UnegjsqPYwpQLc47vrTLrqly+eKsJ4XsgYkoVaYs2i65qWOl8Fe5XjT2rWtwrQQo2QhJ1FU1XvVGZtcP/2CJ0NRF91QGZ79GC5BsVsps5KGTXAJJl5WDJr/v2i4fSu2N05egGKKMVmRwU7SMJptFAJkDJwgiO6cev1yi1wZ2T+lEX0iO/UHpZnSE0xHcs/zuCq/1yHicKKowFxFWb4tQp81R7o2i7lFWPyo5KoV7ZwnMKjjn+g9eZr4fT3mNno2KiHSBs11+VxNezouN7FHCZCh9rQXdRyK4BEALF9LP3TkRtp+L7yQIKo3yQmUdzKH4fVgw4zr810g9uHDX2CXlVysUdRXweqRmdMfzsVrerbHw+vyJi3r5uSQQbdFRhqkZnjeEgS3XuV1bxiCBbrP7ptUx2Lx8Oc77VgEQNC49WSY/euDLIDsGrSy6KbuahkF0DqPlkBr68ezDIjhnEDGTu9RKqqoxKxZn0KjJWZVXD3BZhpeg8R8UhuSsNPkclalwQSul0NFEF085d8218Jyb6IztWRsv3O7csi0BLwcxEIbsGcElcFergL57ZFykonN0TJdDONtgngS9O5Nj2hCodmHCVAq2OmuOmg9LR3UXZmmDEt184GAtWu4ouW+zhk/z8DQPp3z56dShZLoUraZ4XdIZCduPg4LApi+x0Ct534nzTKRgzCcwyE5tKY6ZpGGAHLRFjh+fky03XYncldBYiBf6arCryV+DfLtEB3+P2DX3pwesH0i/fuiaug8BSo6h4wcxAIbtxYBJxdOtQ/Cc/3ZPe2Hdq3A4eMxUCCksXzotEZzvE78iPO7KaW5yft2+F+R1Hfu109FUNnqmqPmyBqIeevEFBmk7AfP3aXWvTfdl89XOdB1l8dTMXhezGgXIo5BbNKLOyk2hMNbTaunu6gAW2YG7VrpsvjpJTl6qd0oqsZFQ3iK5ScTaXpmSms9km4Vk/PeV89b3hZz197qO2VV0dHVfgr3GolBPXZrJL2gomH4XsmgDfz5HB85Fz9ydP7ol9FGbKVQsdMqzKpFEo4xJcsBFQnRtnQ23F7OMR2+hhciUVTn0uSti0u9Ig9FvP7osmBQiwk1uj+8p1a5fEJkW/kZWdDXQKZgcK2TWBqES48FF654DcuxPRyFM6ihraTifXZABnVZuuaOg53N9uWaXWqJQ6yur5uqHnRBsmGyZ14vGVjr5GOk0+bKytwuX5909E0rB8w3Z9qr6OxUDlxxdvWp3u2dYfQQn5jwWzA4XsWoDdqHQAEbD4+5cORZ2lCaYUCxFM5ZVENcQVh3n9aMJSXCYtExXB6aVnApu4En/tJSoxeCTGUmmRw5e/VJDLR1XzS99zyYI5sSFO/XlThXqoWnwkTD/9zrH0Z0/vjai56pB2k6VB3z8LwR1blqXffXBTmLE6sjSz10fBzEAhuxZgkkk4jhSHw2did6oPj1YdencdOpNO53+j9KYC0iAiyTcrNBUNWpjXP0fUdJFOwFnd5depXR3I/6ZGNcqcMkHxR3ocL8KoRtj+DMrlmIgqS4yWu6/tjyJ/n+/9pgrI16bQ6l2fy2rOfrr60zlH96aTgcxved+IFlxyCKvUmkJ2swWF7DoAEuAcl3Rs0un5pjSrNrNcWZUM+cfLqqQZmF+IaE4+CIuooPBY/54flZYxQ22IzAcXj8M/r1o2f7i7yKcVnHNwFlWzgI/jfTjea/PVOfs3xGFzIJUIgjM2yxGJVmPrPOypoZ+bml7n4e8nkxTqa2chkTT80gcn0988fyCaqmpg4HzbhbPW4fma1YvSN+7dEHl1kqZL8vDsQyG7DsBBroOIRpdalNcdROrdxKo61Wq/Bh1HmgHioLb6smKq1ZlHCspu7/VzyrO0MK/2oKj2ofBYd00JohwmsRoVmVWpM5/L/5Y/JtRLbYoia99DLz/bDPq9/k4e1dZ66fVrl0SaSr2nhnNyLpOFUHSZhLWF50JQIcFvanMfPfksJu1C2s22NX3Rbkuhv+/lWlosCmYXCtl1EcczKSAGk1CuFz8SoqsVXzNAPibaMoGF4eYAyrWYoDqJ1L+34yujgJCuJpQCEqOjr6pE+CH18Pvh60eimSefZF1nCz7V+VE/v3bH2lBCfIHOqdtmn6HpYyk65/J6JuC/e+FABCOOZZUpLagT8McJ0CDtB7PpesfW/jBfC2YnCtl1EfVmOLWio0Yqk7DqLdcMwlTNHKS9k0CDpN6FmVzmza3aQsVz+fd2yE7taL1Jj1ST0WpMztqpcx+lndlkfS2ru2iN9MFgfJeRxEIR9mV1qQmAdkeP7VgVKSwI2fl2C0jWNTx44nx68u1j4aN7dY+Nts/Htc7/1DbwPDeAHcKQtlQTv9fJwwWzD4XseggUpmCK1unyx8aa2MxyylRahw2uRaApVuk3dQAG1yLkzSsXpl+5bU2651qqqOplJ3GZKd4uDElRXybqkWw+i7baO0LSsO9gQekEmetD2W7fsDSir85fi/WC2Y05/y5j+OeCWQ7+Rb35Lnz0caSljBVJ5e9btGBORHe1N/IoXeXchSpAUAMpUV6itHyUlk3qc/HCOR1VHPAtcgHsPnYuPfHmkfSjN46knftPB+kKrHSyPKNg35uytZfEF7Iq3ZRNV366gtmNQnY9hCND5yMZ+uKlX0QHE+oGRpvEfHkIQRqL8jE1skxer0I0db0sUqKy1A8PZhNZoIAZLkiC9PjERgdJxkNNntppiQK/vPtkKEumNEUXCdwd2iFMeLmHO7LZ/ciNK9OdW/uzwh0/obpgdqCQXQ+BafrC+yezsvtFdBWuJ/lY/j/PzhEZzqpH55PNA4vT1jWadVYkae8LAQ8kdT4TqKCBgIz3rIIsTNrmFR6ypOh0Fv7hG0fTD147knYdORvKMVJ5hl/XCZzPQzcMxMY5CvwFVsa7BgWzB4Xseghakz+/62Qk5trWUaeT2NhnDFWDACghKi8SkzMxVBUYlZmK0ByCJshI+dzpTH5ICzXNu0ogJZu2w2TiUxqRCrL0d9Jb3jowlF768GTs/yH9pepJ5/06B38ikqfoHrhuICKxKkEK0fUGCtn1EA6cPBcm4cWPP47UEQEK/rW5wr9NAPEhOqQX+07kg0mIDBEcwop9L7LJyYeHqIDPT9BiLAWFyOzg9sbeofSD14+kx189Ev46AZFOzdYa+Py2LcuD6O7YujxK6BD2WERfMPtQyK6HsDcTiE2EmJ4CFNX2h7YEnJjskBRi8FpmrTxATQaWZyLzO5VI/UkwDhLJr5duU5ufIwMLIrU16Yny7slmq9w5VSgvZjJ+++Dp8AV2ieciJUbbKpvm2KAcUfveheh6CyX1pIfw9NvH0v/53fcjpUMUUo2ryoF2csvkwEXZWSa0sxcrRRctlwbPR+0qpaae1vCSDG1/XEGBLasXpc0Diy4nNCM4h5y+17LZymfX7fb32sv7bHu+SoIOMzyb3gW9hXLHewDUlSRcAQVEx8R87/DpaGiArNoB5cZfJ7mYH49aumHdknTr5mXprq39kXd3dzYXq71kF8VGPUhVWgvVJtoqjw8BU5ty6QRQukl0AjDqhW/etCxIbtvavlCzheh6E0XZ9QCYk/xndtz6T4/vigYGq7NZJyL5rx/alNb1Lxx+ZfswjAwkxCq1xWfK51PXCortmbfUoBSSn7x1ND3+2pE4F2VqGg9cyH/XTWzNJGuf1y/evDpUHd+io6A3UZa4HgAC4qdTDhYqLxORBF2+sveywtLtV4OAThA+vXxEUvGCOdFyil8QkTpEfX3mq7sH0/dfOxzRVg0H9h4/G+ZvN4lOhQg/3bVZyT1w/UAoTkGVQnS9jUJ2PQAEd/rCpei3pxmnxF11svuOnYsduT44ciaem0xoD+WzbFz9p0/uySbs0XRwMJutmYS7Dd1h1LnquffYjavCT1hQUMiuB4DGPs7CLUzKYU7zo6YA6k3f3DcUqovy65ZXg48Qwb2+ZzD9w8sH83EoPfHG0dgQh9mqmwqT1nl0C7Wi05X5K7eujnrXVUvnFUVXEChk18M4eur8cBR0MO3PBMSc7Bb52Mrw4Mlq390//eme9BdP743NqxErNdfu7l/jQZSVopNH941716c786Ok4dJavQBKgKIHgMSkg9gO8pvP7EvvHjoTz+MAOW/Xr1sSxKB8SiPLenPsZioLpKAwk7WB0mhA3zmK7sCJc2n3sE9QN2f/FrWtw3/XTThNhCbyq1XT3df0R0RYg1PPN/M9CmY/Ctn1AMYiuxpSSHTsRRYK4+/b1h97MTSTdBsBj0xikoPfO3g6yr1e3zuU3j90OgIgqiqMsMkcZAjNd/jqHWvSHz52dRA107U++0J2BVDIrgcwEdnVCs+G2fay2LJqUdq6anG0QZJD59+UitVdTOw0Jq0EkUkCPn76Qvj8+AD1wrMBzrH8nO7M/HKThVrRqXe9dfPS9OD1A+nh7SujuqMouoLRKGTXA5iI7EbDtoISb2/csDTduHFJ1LXqZ+c5JCJ1xa77h0+djy7CFBxl5/kOM1hagnNxXhKGf/v+DWGGr162oKnyt4LeQyG7HkCrZJe5Llo7cfY7/IxYqDu5dExXyu5sVnZDw+pOyZjnp2I01YpOIwL7u951zfLw0yG6iTb7LuhdFLLrAbRKdtMdlKfmA0rS/vm969OOrD6Z2/x2BQVjoYyOghkDik4lhi7LSt1+6eZVsenPskXzQnUWFIyHQnY9ADSAC5igl0OUMwzOn39Ob7zr1valR3dowLkiE9/CqsFAIbuCCVDIrgeACBZns0/Nqq4jMw38c7qV2Jz71+9YF1sfCkZ4bvTetwUFY6GMlB4AsrNvBD/XTFNAce4L56RNWcHderU9arOiu56iW1QUXUFLKGTXA6jJTqRyJpED0abWlV9Om6av3Lom2qn7LoXkClpFIbseAGKw/eGiBVfFfrCiltPZmnVqet9pE7V19aJoCHrvtv4o7Jfo7LsUsitoFYXseggL585Ja5ctSKuW2Hdi+pKFvD57Rty0cVn68i1rYsf+LSsXp/lZ6pUcuoJ2UciuhzB/3lWxfeCKJfNSszuKTSXQGBN1XSY6bZruvbY/jpuzstN8U9laRJQLCtpAIbsegmRcu/zzgyGO6Qamqb0sJAt/6ebVkUun7pXZPQ25uWCGoQyhHoJOIKKa6/sXTptqA0INya3KitN+EbdfvSzdt21F7Hpmgxx+O6knRdEVdIpCdj0Ee7puX780Xbumb9p070Vki7J5rYW6aOuXspr7/PUDaV3/guFXFBR0B4Xsegg6+fKHrc9EsjwTn4jnldJLAiT8c8xURfz3ZjWnj9729UuizZScwIKCbqKQXQ+Bn06CLtOQ2ch3d6VSOOT8rc7nIKVEe6ZHb1wZRGen/oKCyUAhux4Cv5fyqoFMdjqFbFldOf+nEhTltWsWp7uympMofP91K9LNm5amTQOLygbWBZOK0uKpB2GfWO3Tf/TGkfTtFw6mo0MXh/9l8rF9fV/0oGO63n1tf1pS1+xmhVkShQsmE4XsehCnz19KxzPBPfn2sfS3zx9I7x86E23UJ6PLMOXIN2fDbB1KbFgth07kVbS1RFkLpgqF7HoQ9o/VVdgero+/diS9sOtEenX3qWir3m3I6xMQkU7y2I5VsRnOyqXZXJ2rbK3sE1EwdShk18OwWfXb2Zy1t+uTbx2L7Q9thdjJiBDhteHNQN/8qGOV08cfJ/jAT6jRpp3MCskVTDUK2fUwqLuL2XZ9LpPd9145nF7JSs8m1p5vF5TcNWsWh6kqQVhOH7ITBbYRDo5Dc4XsCqYahewK0u6jZ2Mj652Z6HbuP5UV3vl0aPB8bKRjQ51GEEuQPtK3cG4Q3MCSebE5jwL+DVnNbRjIii5M1vkRZS07fhVcaRSyK4hd/Y2CD4+eSe8eOJ1e+nAwvbDrZNp77Fzal03bRpAULFePD456u2F9X7ppw7K0ceXCtDybqlJIKgVXvb4ouYIrjUJ2BZdx8szFdGzoQjpw8nzaf/xcbHLtsOO/rROlhijvkpxcVUDMTUsW8c9VScq2MpSoLPgwHRsNFPQ2CtkVjAvDA+HZFFuLKAEIqm26NBIoKGgWhewKxoXhceFSVnaXfvGpzbJLAnDBTEMhu4KCgp5AsUUKCgp6AoXsCgoKegKF7AoKCnoChewKCgp6AoXsCgoKegKF7AoKCnoChewKCgp6AoXsCgoKegKF7AoKCnoChewKCgp6AoXsCgoKegKF7AoKCnoChewKCgp6AoXsCgoKegKF7AoKCnoChewKCgp6AoXsCgoKegKF7AoKCnoChewKCgp6AoXsCgoKegKF7AoKCnoChewKCgp6AoXsCgoKegKF7AoKCnoChewKCgp6AoXsCgoKegKF7AoKCnoChewKCgp6ACn9/6t9Z6v8EkgbAAAAAElFTkSuQmCC;aspect=fixed;" vertex="1" parent="z5PdbuuOb7pppBxWRpVs-1">
                    <mxGeometry y="0.9799999999999996" width="49" height="45.08" as="geometry"/>
                </mxCell>
                <mxCell id="z5PdbuuOb7pppBxWRpVs-3" value="" style="ellipse;whiteSpace=wrap;html=1;fillColor=none;strokeColor=#074D92;strokeWidth=2;aspect=fixed;" vertex="1" parent="z5PdbuuOb7pppBxWRpVs-1">
                    <mxGeometry x="-1.5232259897857143e-15" y="-0.9800000000000001" width="49" height="49" as="geometry"/>
                </mxCell>
                <mxCell id="-bb0EItI1fjCFMMGgbSS-0" value="" style="rounded=0;whiteSpace=wrap;html=1;align=center;fontStyle=1;verticalAlign=top;strokeColor=#595959;fillColor=none;strokeWidth=2;fontSize=14;fontFamily=Arial;container=1;recursiveResize=0;collapsible=0;fontColor=#595959;" parent="VQPdTUdnhyxC5OtxLJdK-1" vertex="1">
                    <mxGeometry x="1080" y="-2620" width="330" height="220" as="geometry"/>
                </mxCell>
                <mxCell id="-bb0EItI1fjCFMMGgbSS-5" value="&lt;span style=&quot;color: rgb(89, 89, 89); font-family: Arial; font-size: 16px; font-style: normal; font-variant-ligatures: normal; font-variant-caps: normal; font-weight: 700; letter-spacing: normal; orphans: 2; text-align: center; text-indent: 0px; text-transform: none; widows: 2; word-spacing: 0px; -webkit-text-stroke-width: 0px; text-decoration-thickness: initial; text-decoration-style: initial; text-decoration-color: initial; float: none; display: inline !important;&quot;&gt;SAP Cloud Solutions&lt;/span&gt;" style="text;whiteSpace=wrap;html=1;" parent="-bb0EItI1fjCFMMGgbSS-0" vertex="1">
                    <mxGeometry x="15" width="170" height="40" as="geometry"/>
                </mxCell>
                <mxCell id="VQPdTUdnhyxC5OtxLJdK-3" value="&lt;p style=&quot;margin-top: 0pt ; margin-bottom: 0pt ; margin-left: 0in ; direction: ltr ; unicode-bidi: embed ; word-break: normal ; font-size: 11px&quot;&gt;&lt;br&gt;&lt;/p&gt;" style="rounded=0;whiteSpace=wrap;html=1;strokeWidth=1;fillColor=none;align=left;verticalAlign=top;fontSize=11;fontFamily=Arial;container=1;recursiveResize=0;collapsible=0;fontColor=#595959;dashed=1;strokeColor=#595959;spacingLeft=0;" parent="VQPdTUdnhyxC5OtxLJdK-1" vertex="1">
                    <mxGeometry x="52" y="-2560.5" width="136" height="149" as="geometry"/>
                </mxCell>
                <mxCell id="VQPdTUdnhyxC5OtxLJdK-4" value="" style="shape=image;verticalLabelPosition=bottom;verticalAlign=top;imageAspect=0;aspect=fixed;image=data:image/svg+xml,PHN2ZyB4bWxucz0iaHR0cDovL3d3dy53My5vcmcvMjAwMC9zdmciIHZpZXdCb3g9IjAgMCA0OCA0MiI+PGRlZnM+PHN0eWxlPi5jbHMtMXtmaWxsOiM1OTU5NTk7fTwvc3R5bGU+PC9kZWZzPjx0aXRsZT5sYXB0b3A8L3RpdGxlPjxnIGlkPSJMYXllcl8yIiBkYXRhLW5hbWU9IkxheWVyIDIiPjxnIGlkPSJsYXB0b3AiPjxwYXRoIGNsYXNzPSJjbHMtMSIgZD0iTTQ4LDM4LjUzMUEzLjUyMSwzLjUyMSwwLDAsMSw0NC41MzIsNDJIMy40NjlhMy4zMzIsMy4zMzIsMCwwLDEtMi40MzgtMS4wMzFBMy4zMzIsMy4zMzIsMCwwLDEsMCwzOC41MzFMNi44NDQsMzBINDEuMTU3Wk05LDI3YTIuODMzLDIuODMzLDAsMCwxLTIuMTU2LS44OTFBMi45NjEsMi45NjEsMCwwLDEsNiwyNFYzQTIuODg5LDIuODg5LDAsMCwxLDksMEgzOWEyLjk2NiwyLjk2NiwwLDAsMSwyLjExLjg0NEEyLjgzNywyLjgzNywwLDAsMSw0MiwzVjI0YTMuMDQxLDMuMDQxLDAsMCwxLTMsM1ptMC0zSDM5VjNIOVpNMzAsMzlsLTMtM0gyMWwtMywzWiIvPjwvZz48L2c+PC9zdmc+;dashed=1;labelBackgroundColor=none;strokeColor=#0A6ED1;strokeWidth=1;fillColor=#107E3E;fontSize=16;" parent="VQPdTUdnhyxC5OtxLJdK-3" vertex="1">
                    <mxGeometry x="44" y="40" width="48" height="42" as="geometry"/>
                </mxCell>
                <mxCell id="VQPdTUdnhyxC5OtxLJdK-5" value="Web Client" style="text;html=1;resizable=0;autosize=1;align=center;verticalAlign=middle;points=[];fillColor=none;strokeColor=none;rounded=0;shadow=1;fontFamily=Helvetica;fontSize=15;fontStyle=1;fontColor=#000000;" parent="VQPdTUdnhyxC5OtxLJdK-3" vertex="1">
                    <mxGeometry x="18" y="90" width="100" height="30" as="geometry"/>
                </mxCell>
                <mxCell id="VQPdTUdnhyxC5OtxLJdK-6" value="" style="endArrow=block;html=1;strokeWidth=2;fontSize=16;fontColor=#595959;strokeColor=#595959;endFill=1;" parent="VQPdTUdnhyxC5OtxLJdK-1" edge="1">
                    <mxGeometry x="0.6996" y="30" width="50" height="50" relative="1" as="geometry">
                        <mxPoint x="120.51000000000022" y="-2602" as="sourcePoint"/>
                        <mxPoint x="120.5" y="-2562" as="targetPoint"/>
                        <Array as="points">
                            <mxPoint x="120.50999999999999" y="-2562"/>
                        </Array>
                        <mxPoint as="offset"/>
                    </mxGeometry>
                </mxCell>
                <mxCell id="VQPdTUdnhyxC5OtxLJdK-7" value="" style="shape=image;verticalLabelPosition=bottom;labelBackgroundColor=none;verticalAlign=middle;aspect=fixed;imageAspect=0;image=data:image/svg+xml,PHN2ZyB4bWxucz0iaHR0cDovL3d3dy53My5vcmcvMjAwMC9zdmciIHZpZXdCb3g9IjAgMCAzNiA0OCI+PGRlZnM+PHN0eWxlPi5jbHMtMXtmaWxsOiM1OTU5NTk7fTwvc3R5bGU+PC9kZWZzPjx0aXRsZT5wZXJzb24tcGxhY2Vob2xkZXI8L3RpdGxlPjxnIGlkPSJMYXllcl8yIiBkYXRhLW5hbWU9IkxheWVyIDIiPjxnIGlkPSJwZXJzb24tcGxhY2Vob2xkZXIiPjxwYXRoIGNsYXNzPSJjbHMtMSIgZD0iTTI0LDI0YTExLjczMywxMS43MzMsMCwwLDEsNC42NDEuOTM4LDExLjk3LDExLjk3LDAsMCwxLDYuNDIxLDYuNDIxQTExLjczNywxMS43MzcsMCwwLDEsMzYsMzZWNDhIMFYzNmExMS43MTksMTEuNzE5LDAsMCwxLC45MzgtNC42NDEsMTIuMDQ2LDEyLjA0NiwwLDAsMSwyLjU3OC0zLjg0MywxMi4xNzgsMTIuMTc4LDAsMCwxLDMuOC0yLjU3OEExMS42MzEsMTEuNjMxLDAsMCwxLDEyLDI0SDI0Wm05LDEyYTguOTYzLDguOTYzLDAsMCwwLTktOUgxMmE4LjY4Miw4LjY4MiwwLDAsMC02LjM3NSwyLjYyNUE4LjY4MSw4LjY4MSwwLDAsMCwzLDM2djlIMzNaTTMwLDEyYTExLjYzMSwxMS42MzEsMCwwLDEtLjkzOCw0LjY4OCwxMi4xNzgsMTIuMTc4LDAsMCwxLTIuNTc4LDMuOCwxMi4wMTksMTIuMDE5LDAsMCwxLTMuODQzLDIuNTc4LDEyLjA2NywxMi4wNjcsMCwwLDEtOS4zMjksMCwxMi4yMjQsMTIuMjI0LDAsMCwxLTYuMzc0LTYuMzc0QTExLjYxNCwxMS42MTQsMCwwLDEsNiwxMmExMS43MTksMTEuNzE5LDAsMCwxLC45MzgtNC42NDFBMTIuMDQ2LDEyLjA0NiwwLDAsMSw5LjUxNiwzLjUxNmExMi4xNzgsMTIuMTc4LDAsMCwxLDMuOC0yLjU3OCwxMi4wNjcsMTIuMDY3LDAsMCwxLDkuMzI5LDAsMTEuOTcsMTEuOTcsMCwwLDEsNi40MjEsNi40MjFBMTEuNzM3LDExLjczNywwLDAsMSwzMCwxMlpNMTgsMjFhOC42ODEsOC42ODEsMCwwLDAsNi4zNzUtMi42MjVBOC42ODIsOC42ODIsMCwwLDAsMjcsMTJhOC42ODUsOC42ODUsMCwwLDAtMi42MjUtNi4zNzVBOC42ODUsOC42ODUsMCwwLDAsMTgsM2E4LjY4Miw4LjY4MiwwLDAsMC02LjM3NSwyLjYyNUE4LjY4MSw4LjY4MSwwLDAsMCw5LDEyYTguNjc4LDguNjc4LDAsMCwwLDIuNjI1LDYuMzc1QTguNjc4LDguNjc4LDAsMCwwLDE4LDIxWiIvPjwvZz48L2c+PC9zdmc+;strokeColor=#053B70;strokeWidth=4;fillColor=#FFFFFF;fontColor=#595959;align=center;fontFamily=Arial;fontSize=15;fontStyle=1;spacingTop=10;" parent="VQPdTUdnhyxC5OtxLJdK-1" vertex="1">
                    <mxGeometry x="109.06" y="-2642" width="21.88" height="30" as="geometry"/>
                </mxCell>
                <mxCell id="VQPdTUdnhyxC5OtxLJdK-8" value="&lt;font face=&quot;Arial&quot;&gt;&lt;span style=&quot;font-size: 15px;&quot;&gt;&lt;b&gt;User&lt;/b&gt;&lt;/span&gt;&lt;/font&gt;" style="text;whiteSpace=wrap;html=1;align=center;fontColor=#000000;" parent="VQPdTUdnhyxC5OtxLJdK-1" vertex="1">
                    <mxGeometry x="30" y="-2677" width="180" height="50" as="geometry"/>
                </mxCell>
                <mxCell id="VQPdTUdnhyxC5OtxLJdK-10" value="&lt;b style=&quot;border-color: var(--border-color); font-family: Helvetica; font-size: 16px;&quot;&gt;&lt;font color=&quot;#000000&quot;&gt;&amp;nbsp;SAP SuccessFactors&lt;/font&gt;&lt;/b&gt;" style="rounded=0;whiteSpace=wrap;html=1;align=left;fontStyle=1;verticalAlign=top;strokeColor=#0F828F;fillColor=none;strokeWidth=2;fontSize=14;fontFamily=Arial;container=1;recursiveResize=0;collapsible=0;fontColor=#595959;" parent="VQPdTUdnhyxC5OtxLJdK-1" vertex="1">
                    <mxGeometry x="1130" y="-2580" width="250" height="160" as="geometry"/>
                </mxCell>
                <mxCell id="VQPdTUdnhyxC5OtxLJdK-11" style="edgeStyle=orthogonalEdgeStyle;rounded=0;orthogonalLoop=1;jettySize=auto;html=1;exitX=0.5;exitY=1;exitDx=0;exitDy=0;dashed=1;fontSize=15;" parent="VQPdTUdnhyxC5OtxLJdK-10" edge="1">
                    <mxGeometry relative="1" as="geometry">
                        <mxPoint x="140.0000000000001" y="125" as="sourcePoint"/>
                        <mxPoint x="140.0000000000001" y="125" as="targetPoint"/>
                    </mxGeometry>
                </mxCell>
                <mxCell id="VQPdTUdnhyxC5OtxLJdK-12" value="&lt;b&gt;Employee Central&lt;/b&gt;" style="rounded=0;whiteSpace=wrap;html=1;fillColor=none;horizontal=1;align=center;verticalAlign=top;strokeColor=#0F828F;dashed=1;dashPattern=1 1;" parent="VQPdTUdnhyxC5OtxLJdK-10" vertex="1">
                    <mxGeometry x="50" y="50" width="150" height="100" as="geometry"/>
                </mxCell>
                <mxCell id="VQPdTUdnhyxC5OtxLJdK-13" value="" style="shape=image;verticalLabelPosition=bottom;verticalAlign=top;imageAspect=0;aspect=fixed;image=data:image/svg+xml,PHN2ZyB4bWxucz0iaHR0cDovL3d3dy53My5vcmcvMjAwMC9zdmciIHZpZXdCb3g9IjAgMCAzOC42IDQ4Ij48ZGVmcz48c3R5bGU+LmNscy0xe2ZpbGw6IzU5NTk1OTt9PC9zdHlsZT48L2RlZnM+PHRpdGxlPmRhdGEtc3RvcmU8L3RpdGxlPjxnIGlkPSJMYXllcl8yIiBkYXRhLW5hbWU9IkxheWVyIDIiPjxnIGlkPSJkYXRhLXN0b3JlIj48cGF0aCBjbGFzcz0iY2xzLTEiIGQ9Ik0xOS4zNSw0OHEtOC41MjIsMC0xMy44MzYtMi4yQTkuOTU5LDkuOTU5LDAsMCwxLDEuNSw0My4yLDUuMDEyLDUuMDEyLDAsMCwxLDAsMzkuN1Y4LjRBNS4zNjYsNS4zNjYsMCwwLDEsMS41LDQuOCw5Ljk4LDkuOTgsMCwwLDEsNS41MTQsMi4yUTEwLjgyNywwLDE5LjM1LDBxOC40MjMsMCwxMy43MzUsMi4yQTExLjUsMTEuNSwwLDAsMSwzNy4yLDQuOGE1LjU4Myw1LjU4MywwLDAsMSwxLjQsMy42VjM5LjdhNS40NjUsNS40NjUsMCwwLDEtMS40LDMuNSwxMS40ODcsMTEuNDg3LDAsMCwxLTQuMTEyLDIuNlEyNy43NzEsNDgsMTkuMzUsNDhaTTE5LjMsMy40cS03LjksMC0xMiwxLjdUMy4yLDguNGEyLjQsMi40LDAsMCwwLDEuMSwxLjcsMTAuNDE0LDEwLjQxNCwwLDAsMCwzLDEuNiwyOS4zNDIsMjkuMzQyLDAsMCwwLDUuNCwxLjI1LDQ1Ljk2Myw0NS45NjMsMCwwLDAsNi42LjQ1LDQ1Ljk4NCw0NS45ODQsMCwwLDAsNi42LS40NSwyOS4zODEsMjkuMzgxLDAsMCwwLDUuNC0xLjI1LDEwLjQ0MSwxMC40NDEsMCwwLDAsMy0xLjYsMi40MDYsMi40MDYsMCwwLDAsMS4xLTEuN3EwLTEuNi00LjEtMy4zVDE5LjMsMy40Wk0zLjIsMTMuNHY1LjUzQTIuMzA3LDIuMzA3LDAsMCwwLDQuMywyMC42YTEzLjUzNiwxMy41MzYsMCwwLDAsMywxLjY3NCwyOS4wMjYsMjkuMDI2LDAsMCwwLDUuNCwxLjI2N0E0NS4zNjksNDUuMzY5LDAsMCwwLDE5LjMsMjRhNDUuMzg5LDQ1LjM4OSwwLDAsMCw2LjYtLjQ1NiwyOS4wNjUsMjkuMDY1LDAsMCwwLDUuNC0xLjI2NywxMy41ODIsMTMuNTgyLDAsMCwwLDMtMS42NzQsMi4zMSwyLjMxLDAsMCwwLDEuMS0xLjY3M2wuMDkyLTUuNTNhMTMuMTgsMTMuMTgsMCwwLDEtMi42NTgsMS4zNSwyMi42NzUsMjIuNjc1LDAsMCwxLTMuMzU5Ljk1LDQzLjYyNCw0My42MjQsMCwwLDEtMTAuMTI4LDEuMSw0NS43LDQ1LjcsMCwwLDEtNS40MTctLjMsNDUuOTU0LDQ1Ljk1NCwwLDAsMS00LjcxMy0uOCwyMi42NCwyMi42NCwwLDAsMS0zLjM1OS0uOTVBMTMuMTI4LDEzLjEyOCwwLDAsMSwzLjIsMTMuNFptMCwxMC40djUuNGEyLjQsMi40LDAsMCwwLDEuMSwxLjcsMTIuMjc4LDEyLjI3OCwwLDAsMCwzLDEuNywyNi45ODgsMjYuOTg4LDAsMCwwLDUuNCwxLjIsNTEuNTU3LDUxLjU1NywwLDAsMCw2LjYuNCw1MS41OCw1MS41OCwwLDAsMCw2LjYtLjQsMjcuMDE5LDI3LjAxOSwwLDAsMCw1LjQtMS4yLDEyLjMxNiwxMi4zMTYsMCwwLDAsMy0xLjcsMi40MDYsMi40MDYsMCwwLDAsMS4xLTEuN2wuMDkyLTUuNGEyMS43ODEsMjEuNzgxLDAsMCwxLTYuNzcsMi41LDQ0LjUyOCw0NC41MjgsMCwwLDEtOS4zNzUuOSw0NS43LDQ1LjcsMCwwLDEtNS40MTctLjMsNDUuOTU0LDQ1Ljk1NCwwLDAsMS00LjcxMy0uOCwzMy42NzQsMzMuNjc0LDAsMCwxLTMuMzU5LTEuMDVBMTcuNjI1LDE3LjYyNSwwLDAsMSwzLjIsMjMuOFptMCwxMC40djUuNTI5QTIuMzA2LDIuMzA2LDAsMCwwLDQuMyw0MS40YTEzLjUzNiwxMy41MzYsMCwwLDAsMywxLjY3NCwyOS4wMjYsMjkuMDI2LDAsMCwwLDUuNCwxLjI2Nyw0NS4zNjksNDUuMzY5LDAsMCwwLDYuNi40NTYsNDUuMzg5LDQ1LjM4OSwwLDAsMCw2LjYtLjQ1NiwyOS4wNjUsMjkuMDY1LDAsMCwwLDUuNC0xLjI2NywxMy41ODIsMTMuNTgyLDAsMCwwLDMtMS42NzQsMi4zMDksMi4zMDksMCwwLDAsMS4xLTEuNjc0VjM0LjJhMTguODI2LDE4LjgyNiwwLDAsMS02LDIuNCwzOC4yODgsMzguMjg4LDAsMCwxLTQuNy43NXEtMi41LjI1MS01LjQuMjV0LTUuNC0uMjVhMzguMjI3LDM4LjIyNywwLDAsMS00LjctLjc1QTE4LjgwOCwxOC44MDgsMCwwLDEsMy4yLDM0LjJaIi8+PC9nPjwvZz48L3N2Zz4=" parent="VQPdTUdnhyxC5OtxLJdK-10" vertex="1">
                    <mxGeometry x="105.5" y="90" width="39" height="48" as="geometry"/>
                </mxCell>
                <mxCell id="VQPdTUdnhyxC5OtxLJdK-16" style="edgeStyle=orthogonalEdgeStyle;rounded=0;orthogonalLoop=1;jettySize=auto;html=1;fontColor=#FFFFFF;strokeColor=#595959;endArrow=block;endFill=1;strokeWidth=2;endSize=3;exitX=1;exitY=0.5;exitDx=0;exitDy=0;entryX=0.5;entryY=1;entryDx=0;entryDy=0;" parent="VQPdTUdnhyxC5OtxLJdK-1" source="VQPdTUdnhyxC5OtxLJdK-41" target="VQPdTUdnhyxC5OtxLJdK-10" edge="1">
                    <mxGeometry relative="1" as="geometry">
                        <mxPoint x="1155" y="-2040" as="targetPoint"/>
                        <mxPoint x="1130" y="-2080" as="sourcePoint"/>
                        <Array as="points">
                            <mxPoint x="1255" y="-2152"/>
                        </Array>
                    </mxGeometry>
                </mxCell>
                <mxCell id="VQPdTUdnhyxC5OtxLJdK-17" value="&lt;p style=&quot;margin-top: 0pt; margin-bottom: 0pt; margin-left: 0in; direction: ltr; unicode-bidi: embed; word-break: normal; font-size: 11px;&quot;&gt;&lt;br&gt;&lt;/p&gt;" style="rounded=0;whiteSpace=wrap;html=1;strokeColor=#074D92;strokeWidth=2;fillColor=none;align=left;verticalAlign=top;fontSize=11;fontFamily=Arial;container=1;recursiveResize=0;collapsible=0;fontColor=#595959;" parent="VQPdTUdnhyxC5OtxLJdK-1" vertex="1">
                    <mxGeometry x="751" y="-2370" width="270" height="294" as="geometry"/>
                </mxCell>
                <mxCell id="VQPdTUdnhyxC5OtxLJdK-38" value="&lt;span style=&quot;border-color: var(--border-color); font-weight: bold;&quot;&gt;Workflow Service App&lt;br style=&quot;border-color: var(--border-color);&quot;&gt;&lt;/span&gt;&lt;span style=&quot;border-color: var(--border-color);&quot;&gt;Node.js&lt;/span&gt;&lt;span style=&quot;font-size: 11px; font-weight: bold;&quot;&gt;&lt;br style=&quot;font-size: 11px;&quot;&gt;&lt;/span&gt;" style="rounded=0;whiteSpace=wrap;html=1;strokeColor=#0F828F;strokeWidth=2;fillColor=none;align=left;verticalAlign=top;fontSize=11;fontFamily=Arial;dashed=1;dashPattern=1 1;fontColor=#595959;" parent="VQPdTUdnhyxC5OtxLJdK-17" vertex="1">
                    <mxGeometry x="40" y="59" width="182.02" height="105" as="geometry"/>
                </mxCell>
                <mxCell id="VQPdTUdnhyxC5OtxLJdK-43" value="" style="shape=image;verticalLabelPosition=bottom;verticalAlign=top;imageAspect=0;aspect=fixed;image=data:image/svg+xml,PHN2ZyB4bWxucz0iaHR0cDovL3d3dy53My5vcmcvMjAwMC9zdmciIHZpZXdCb3g9IjAgMCA0MC45NjkgNDcuODEzIj48ZGVmcz48c3R5bGU+LmNscy0xe2ZpbGw6IzU5NTk1OTt9PC9zdHlsZT48L2RlZnM+PHRpdGxlPnByb2R1Y3Q8L3RpdGxlPjxnIGlkPSJMYXllcl8yIiBkYXRhLW5hbWU9IkxheWVyIDIiPjxnIGlkPSJwcm9kdWN0Ij48cGF0aCBjbGFzcz0iY2xzLTEiIGQ9Ik00MC45NjksMTAuMzEyVjM3LjVMMjAuNDg0LDQ3LjgxMiwwLDM3LjVWMTAuMzEyTDEwLjIxOSw1LjE1NiwzMC43NSwxNS4zNzVWMjUuNTk0bC0zLjQ2OSwxLjY4N1YxNy40MzhMMTAuMjg2LDksMy40NjksMTIuMjgxdjIzLjI1bDE3LjAxNSw4LjQzOEwzNy41LDM1LjUzMVYxMi4yODFMMjAuNDYxLDMuODQ0LDE3LjgzOSw1LjE1NiwxNCwzLjE4OCwyMC40ODQsMFpNNi44NTksMjkuMDYybDEwLjE0OSw1LjA2M3Y0LjIxOUw2Ljg1OSwzMy4zNzVaIi8+PC9nPjwvZz48L3N2Zz4=;strokeColor=#0a6ed1;" parent="VQPdTUdnhyxC5OtxLJdK-17" vertex="1">
                    <mxGeometry x="110.50999999999999" y="99" width="41" height="48" as="geometry"/>
                </mxCell>
                <mxCell id="NAzWER6JhkUFQK4if2xH-1" value="&lt;b style=&quot;color: rgb(5, 59, 112); font-family: Arial; font-size: 14px; font-style: normal; font-variant-ligatures: normal; font-variant-caps: normal; letter-spacing: normal; orphans: 2; text-align: left; text-indent: 0px; text-transform: none; widows: 2; word-spacing: 0px; -webkit-text-stroke-width: 0px; text-decoration-thickness: initial; text-decoration-style: initial; text-decoration-color: initial;&quot;&gt;Subaccount&lt;/b&gt;" style="text;whiteSpace=wrap;html=1;fontSize=14;" parent="VQPdTUdnhyxC5OtxLJdK-17" vertex="1">
                    <mxGeometry x="5" y="-3" width="110" height="40" as="geometry"/>
                </mxCell>
                <mxCell id="NAzWER6JhkUFQK4if2xH-2" value="" style="shape=image;verticalLabelPosition=bottom;labelBackgroundColor=none;verticalAlign=top;aspect=fixed;imageAspect=0;image=data:image/png,iVBORw0KGgoAAAANSUhEUgAAANYAAAAeCAYAAABQWOD3AAAQuUlEQVR4Ae1cC7RVxXk++KiRtDaJbZJiTEmkQC964dx99p7/Mftw5D4Ag7Y20nfTpImmqzElUZtlUmzq0lRqFKJBDC5RqaJI1NgFwZVYpVpDtEHlYZSHKK+gEsFC8BFBd9d33HPdZ9+9zzn3wpV11zpnrVmzZ+aff2b+Pd88/v/fp1Bo/VoSaEngvZGAMeYjzHw2M88QkQuCIPgLZh6V17ox5oRSqXRGXnl/8plZmPl8Zr5CRL5ljDnP9/0JzfAQkQkdHR3tzdCWSqUKM5+Upg2CgJl5SjKUSqWpvu+XPc/7eJq+UXrUqFHH+b4vfhM/VS1NnTr1uEY8gyCYLCI3MPMeEYmY+TUiuiMIgumFQuHoRvWJqAPdMcZ49WjPO++8Y123S6XSmCxazBXf9yeqqs0qd3mq+nFjzOmg9X3/ky7fxZ7nDY/Ly5B1Ikxk5kBEft/RNoqNMW14vwkevfyYeSLGr6q/lcenWCz+LhFV66NPY8aMyaUFjyAISq4tEZnUh2+xWGwTkYfCMIzCMFzLzEtF5D+ttT8VkbdFZIPv+53pihj4xIkTo3R+f9LxRN6uqq+JyMNEdCczf99a+6i1NlLVHR0dHZPr8TTGLFfV2+rRuDIi2m2M+TuXdrG19nFVfdVai77sSITdkIuI7PZ9f0ahUBjm6tSLsSB1dnZCnk2FIAhG5/HzPM8y8y8gDwAqHeL8V0ul0qfzeCBfVd8CrbX24PTp03OB2N7e/jHXb1V9NIsnEX2hXC5Xx0ZE87JokOf7/qWYI+DHzN9N06nquEqlUldGzPwqEV3d3t7+4XT9ZFpElro+uf4nY5TFsvpxEASfSNbFs+d5x4rILtSJaX+SpnFpLBKON2iZ+VJXVo2NMX+OAiK6vq2t7TdqCuMEEV2gqm8GQXB1shwrbblcPpDM68fzMCL6V2vt28aYy/LqEdFlGAB2sTwaZr5bVW/OK0/mG2O2BUHwmWQenjGBVLVWODER5GKM+QeATkRexGqdrp9Oi8gpmDBpEGSlwzB8HfRpHkjjRJAEFDNjsfklMz+nqi8w81uOJ+iI6NosPshT1V/FtHvrAatYLI5wPFV1RRY/IvqsqvaOz/f9M3Po/hn9Ai0zz07TENEfxu+3l5drOyN+EztSmodLqyrmQS8fPCdDkh/a9DzvNFc3joeJiB9vJlUQ5o1LRHY6fkT00xo+2O4AqmKx2FVTkJHwPO/3mLlm5zgUYBlj/qZcLr+B7TmjuZosHKkgIGPM52oK4sThAhYzX5nFP5lHRP+DIxgzH5/MTz8ngcXMe3FkI6IlOeGOLLDiqJEElarez8w1kwHHVOzyInIALxpyIqKZ6f4gPZjAwm6YtQsQUdPAIqJdxpg5RHSNMQZhgYjg1ISFpwoYtDN+/PhxOeOrAgsywJwQkcuxILtARDdhYUzw2o0je5oXEc0Cj5hub5rGGHNlgsdBHCFreIjIviAIvlGT2Y/EQIEVBMGJqvrrIAjOb7Y5HD3CMNyLe126znsJLLSNnYuIbkn3I5lOAktVNyTLmnlub29/PzO/EL/At4Mg+OI79aJhPHv78Wffs+PEM+fvHF4oRNWjKe6DzPxr0OMU4Hne2HQ7gwmsuJ+vp+8l/QEWMz+R7jPS48ePPwnXETeZReSpLDq3Y2GzCMPwnCyaQqFwFDO/Al6gK5VKQRadMeZ50MQgvd3RYAF0ixgWvSAIprmyamyM+bS19pWazH4mBgos3HGstS/2pzmsGtZaHH363I/ea2AFQTAekxcLRN4YksCy1gJYTd3NHD/f9//arZqqegXyOxfuOPGMe3Z854y7tr1+1tJd0bQfbD9w5r0v3TxtyfaqMgaLj5t8RHR/us1BBBbux26FfzJ5zOwPsEQkE1gYO3YFZn4D7eCOCCWDk5WLmwRWgZmxw7vd/c9c/WTs+/44VYV+AXRvqSqUOMNw102M9fvJOtVnZl5ERIv6FPQjY6DAUlUciW7qR1NVUiK6jplXpuu918DCqofd0/O809N9cekMYLmihjEmJjOvcC/V87zfNtduOuFTd+/cOWXxlmjK4ueiqXc+/05YsiU6a+mufVMXbzoFd0ER2Yp6AP6ECRM+kGxssIDFzN9R1d1uwuEY59o9XMACPyL6pltsmHm+a8PFzQKLiJbHMsJi8EeufjoWkZluTBifMeZCl2bm/W1tbb+ZroPz9v5Yy9WnrNmMgQALL99a+xQR/WOz7Tg6qJWxa7m0i48AsLDqbe6jCXIdKhQKSWCp6laouKFFTQciMqBNVIV2arg71jHzRpR13/rsnVNufy7quXVT1HPbs9UwedHmaPLtm6Mq2JZsrWqwoITC5MPlHKtuku9gAYuIZp966qknq+pBN/F83/9TtH2YgVXB8Q1tMPN/J8eG5ySwiOhP0uVI447KzNU7G7SVaRml6mCB2+TG5GLI1xiTbd7B+TBPGZBinpscCLBGjhz5PlV9HseWXMY5BaVSqTsMw13p4iMBLCJahR003ReXTgIrfiHQ3vUJ8QpcYyqArSXOxySqAqZn4XMbu2/ZGHXfsqEaehZujHr+490w7d4XX5i6PDqOmb+EurHSw3f9QTyYwAJ/TGY3+UTkIDMXjTFfR1/Qpya0grlHQfCHXdMBK8sM4IAVyw5mIyh7/isO9+OdufsR+snMjyaPrUlZuWfY4ZKa17jev7nyPrGqvnQoigswHAiwYlvBz7CS9elUgwyoeJl5e5rsSABLRH7BzBen++LSaWDhZWcFTDpm7r0coz6OGFCrx5N0NfJ6btq4suvG9VHXjU9H3QueeSfctD7qRrh5QzRl0dbNoCOiy9FOvGPVGNgdsFR1X70JBaOsA4iqPujGlIyT6nbsWK5MROYl6u4KguDfDxewYCB3qnmAxbXpYgcs135eDPkw89N9tHmOUSr2fT95BHwZczhF8m7SGPM9Irrv3Zz+Pw0EWGhFROaLyLL+tigidxHRPel6xpi7mrVjEREWlEw7VjPqdrRdqVSOKZfLrxljKN0Xl04CC/YmKGyI6Nx0YOYvBkFQY7WP70rr44nxGl7kxOvWnNm9YP2Bzu+ti7puQPh5b5i8cHPUteCZc9G2iDyJepiA0Ka5/iBm5pfdZMPJIVmWfIaXhKNT1cx7eB6wYq0bdga3MFQ1lfFk7gWgay9lx6q7Y6nqXPAFLxiMHQ8Xp4D1srV2GwIz9x5RjTE7jTHn1Bu/4+diY8wfoE20HSuFXFHf2Pf9LhDjJfYtbS5noMCCt0UYhm/Ucy9J94CZP2St3W+M6UmXwXCNCYWXmi5LpuP73etEpMl8PONo0SywiOhvcZ+o1/8ksKy169PtNUoz87+4SQQNLugnzX3qC53z1h7ovG5N1DlvbdQ5b03UdcPTUdf8p6u7f6lUKjrjJnb29K7EzKvwzgE6Y0zupd0Yc68DBgzjWX2tA6zCqFGjTlDVXnuRG8ehHAWhFk9o6Q5k3Y0csHBchJ20Uql8AAoc3/c/54ChqrCdZhqzs8aJPGgEXf2snbJPPVyMYVzsU9BkxiEA63gReYaZFzbZFI4416rqpkKh0Gcbhp8ghOn7/sn1+DHzWGvtW7ARpemaBVZbW9tHwzDcn2eEdXxTwBqIuv3kxH3gV84uNemaJ2d3zV0bdV77RNR9/bro9Lmrq/cz2FeYudf2knV5N8Zc4iaIqm72ff+jrr8u9jyvQ0TeBBgg046Ojkxf0XrAAi8oa1S1arRuFlhZdiwsqABJcrfNm9xJYKXtWLjrubFbawGuPourk0E67jewoNmIBw93oVzfMTQEjRzUnclGBwqsmB9j12Lmf0ryzHqGmhM7RD1hiMj/wlcs7/wLw6WIbMRxMquNZoAFAEPDx8xQKNSV16ECC300xlzkJgOMotAW9nx7zfu7vrvm5UlzVkVdc1cfKF/2WNXnjYh+7GhV9ZH0bgV+2LFVdZub6CICQ/c3YeTEDkZEV0FbjHIEXP6zZIW8RsCKac5N9An86h4FiWhfSuGwEvJ2/Yl57UwfcV0f6wELNMxcPUrG49+Xtes5Xsm438BC5fg8Dd+zx4IgOBsuMjjixF7HWAXhwQxXkT1BEHw+2SBcbsrl8kG4O8GdJS/k7SRBEPyxqv4f7luxBgleFZiwR1lrPwhXJhG5FzSxB3ey+Zrn0aNHn4SXoKoPwFM9HsOx4APXLVVdJyLrRowYMbymYpyIgXU9xu/GAUdL3AFE5FNEdDMchYno7qwdL83zcACrUCgcE7db1fIRUdWY2XnVqmVds1dF3desrvqoxbuD07yt9zzvd9L9cWl4rcOtJznh8exCPOkArA3jxo37kKuXjpsBFurAG9+11QhYDkDp2PUNc9Tt3On+IN0IWLGB9weOP3wui8ViQ+/5AQELHcKRwFp7NazK8QrxDBH93Fq7GauaiCzI8r6Gnx/8/VR1i7V2a17AbpIlCOThswRr7SLYp+D6Y4x5nJkfF5FnMQGstXfUE2aSL7yfVXUheInIeiJaLSKbYt5z0u42ybrQfllrf5kaAzzdYWnfAYDjbpisU++ZiEbGstljrf1ZPdoGZUfBe1xVYXupWvo7Z/3k6p7ZT0STZq2sKhaYuXrMwcQaO3ZsrjeIayfW+t2mqrsSQAKY3oaixVp7HYzSjj4rJqK/gueOqr4C37osGuThBKGqD4vIXmbuo6bG+y+Xy+CzJyPswtxi5h8x82cqlUquwgVticitWITDMIQnSOYdEh48ULO7tph5TZabXHI8UF7EY91DREuTZU09YyXGNy34xsRaW4HrzmmnnfbBvMr4hggrOoRTL2R9h5PmiZUDOwtWZQRjjMVOmKZrJq2qI7ATM/M0fHIRhmGtk2QGE9grssYAgOAynlGlUdYx+HQEu1/ejt2IQbIcx24i+jJW3cqlD83qunJVNOnyR6oe/dZafDdX4yCdrJv3jCMVXIOgJTXGwIUqzLp3ZdWHSSAe2ydxD8qicXlY0DzPOyWLDsDD7u5OCS7GnDHGfKwRwF0biHHPRD3IHSeuZFnyGX0HHdoCaBoBFn109M3KJ9le63mISMDOXDFr0hWPRZVLH6rrCDxEhtPqZksCR1YCOMZMLxSOtjNXXHX6ZSsjO/OB6lEw/VnDke1lq/WWBIaABHDcxlElVlCsM177ReElj8wJZz4UlS95eIkUx5xjrV0NnQTuCrFipa49bwgMu9XFlgQGTwJBEPx9GIZQ6uA/LuBneFf7KR/5sF78wK168YNR+PUHfzSiUBiuqrDxwXSxP3Zb6vUuH7zetTi3JDA0JYC/LlgMrZ0xBuaG0YXC9KN1xn2fl68u36IX3hfJhfe9JBf88ILKZ1e8Dyp2Zl4LeiLaBkXM0Bx2q9ctCQySBIjoG0mXIGPMVWiqPGPpNZWL7o/CGcsi+5V3wsSvPRjpV5cvQTk+1Yi92qE6fxPGYPg1DlI3W2xbEhhSEhgGUwMz35gwrO4vFosljEK+9MNyZcayWeUvL10cfmX5nPD8ZZO9+dGx8Y61xRk/4TEPA34j/8khJZlWZ1sSOFQJwCUJrlMOKLHfID63ubxEpbMC1RCfURDR1+KvjV91tPE/X2V/iHeoHWvVb0lgKEsg9mqp+uzheAePdLeDpWMACuUugJ6I1rR2q6E8A1p9HzQJxN4js/GJD9Tp8EjBp+IOWAAUQIQ7GHwtJ0yYMBK+gMz8l42chAet0y3GLQkMVQmICHwg3Q6W+0emQ3V8rX63JNCSQEsCNRL4f826WDz1IoxRAAAAAElFTkSuQmCC;" parent="VQPdTUdnhyxC5OtxLJdK-17" vertex="1">
                    <mxGeometry x="8" y="23" width="99.88" height="14" as="geometry"/>
                </mxCell>
                <mxCell id="VQPdTUdnhyxC5OtxLJdK-18" value="&lt;span style=&quot;caret-color: rgba(0, 0, 0, 0); color: rgba(0, 0, 0, 0); font-family: monospace; font-size: 0px; font-style: normal; font-variant-caps: normal; font-weight: 400; letter-spacing: normal; text-align: start; text-indent: 0px; text-transform: none; word-spacing: 0px; -webkit-text-stroke-width: 0px; background-color: rgb(248, 249, 250); text-decoration: none; float: none; display: inline !important;&quot;&gt;%3CmxGraphModel%3E%3Croot%3E%3CmxCell%20id%3D%220%22%2F%3E%3CmxCell%20id%3D%221%22%20parent%3D%220%22%2F%3E%3CmxCell%20id%3D%222%22%20value%3D%22%26lt%3Bp%20style%3D%26quot%3Bcaret-color%3A%20rgb(0%2C%200%2C%200)%3B%20color%3A%20rgb(0%2C%200%2C%200)%3B%20margin-top%3A%200pt%3B%20margin-bottom%3A%200pt%3B%20margin-left%3A%200in%3B%20direction%3A%20ltr%3B%20unicode-bidi%3A%20embed%3B%20word-break%3A%20normal%3B%26quot%3B%26gt%3B%26lt%3Bspan%20style%3D%26quot%3Bcolor%3A%20rgb(89%2C%2089%2C%2089)%3B%20font-size%3A%2016px%3B%20font-weight%3A%20700%3B%26quot%3B%26gt%3BSAP%20Data%20Warehouse%26amp%3Bnbsp%3BCloud%26lt%3B%2Fspan%26gt%3B%26lt%3Bbr%26gt%3B%26lt%3B%2Fp%26gt%3B%22%20style%3D%22rounded%3D0%3BwhiteSpace%3Dwrap%3Bhtml%3D1%3BstrokeColor%3D%23B3B3B3%3BstrokeWidth%3D2%3BfillColor%3Dnone%3Balign%3Dleft%3BverticalAlign%3Dtop%3BfontSize%3D11%3BfontFamily%3DArial%3Bcontainer%3D1%3BrecursiveResize%3D0%3Bcollapsible%3D0%3BfontColor%3D%23595959%3B%22%20vertex%3D%221%22%20parent%3D%221%22%3E%3CmxGeometry%20x%3D%22600%22%20y%3D%22560%22%20width%3D%22400%22%20height%3D%22435%22%20as%3D%22geometry%22%2F%3E%3C%2FmxCell%3E%3CmxCell%20id%3D%223%22%20style%3D%22edgeStyle%3Dnone%3Brounded%3D0%3BorthogonalLoop%3D1%3BjettySize%3Dauto%3Bhtml%3D1%3BentryX%3D0%3BentryY%3D0.5%3BentryDx%3D0%3BentryDy%3D0%3Bdashed%3D1%3BstartArrow%3Dclassic%3BstartFill%3D1%3BendArrow%3Dclassic%3BendFill%3D1%3BstrokeColor%3D%23C0399F%3BstrokeWidth%3D1%3BfontSize%3D16%3B%22%20edge%3D%221%22%20parent%3D%222%22%3E%3CmxGeometry%20relative%3D%221%22%20as%3D%22geometry%22%3E%3CmxPoint%20x%3D%22377%22%20y%3D%2277%22%20as%3D%22sourcePoint%22%2F%3E%3CmxPoint%20x%3D%22377%22%20y%3D%2277%22%20as%3D%22targetPoint%22%2F%3E%3C%2FmxGeometry%3E%3C%2FmxCell%3E" style="rounded=0;whiteSpace=wrap;html=1;strokeColor=#B3B3B3;strokeWidth=2;fillColor=none;align=left;verticalAlign=top;fontSize=11;fontFamily=Arial;container=1;recursiveResize=0;collapsible=0;fontColor=#595959;" parent="VQPdTUdnhyxC5OtxLJdK-1" vertex="1">
                    <mxGeometry x="240" y="-2566" width="780" height="160" as="geometry"/>
                </mxCell>
                <mxCell id="VQPdTUdnhyxC5OtxLJdK-19" style="edgeStyle=none;rounded=0;orthogonalLoop=1;jettySize=auto;html=1;entryX=0;entryY=0.5;entryDx=0;entryDy=0;dashed=1;startArrow=classic;startFill=1;endArrow=classic;endFill=1;strokeColor=#C0399F;strokeWidth=1;fontSize=16;" parent="VQPdTUdnhyxC5OtxLJdK-18" edge="1">
                    <mxGeometry relative="1" as="geometry">
                        <mxPoint x="370" y="78.5" as="sourcePoint"/>
                        <mxPoint x="370" y="78.5" as="targetPoint"/>
                    </mxGeometry>
                </mxCell>
                <mxCell id="VQPdTUdnhyxC5OtxLJdK-20" value="&lt;font size=&quot;1&quot; color=&quot;#053b70&quot; style=&quot;&quot;&gt;&lt;b style=&quot;font-size: 15px;&quot;&gt;SAP Analytics Cloud&lt;/b&gt;&lt;/font&gt;" style="text;whiteSpace=wrap;html=1;align=center;spacing=0;fontSize=18;" parent="VQPdTUdnhyxC5OtxLJdK-18" vertex="1">
                    <mxGeometry x="288.75" y="26" width="202.5" height="30" as="geometry"/>
                </mxCell>
                <mxCell id="VQPdTUdnhyxC5OtxLJdK-22" value="&lt;span style=&quot;border-color: var(--border-color); font-weight: bold;&quot;&gt;Headcount Request App&lt;br style=&quot;border-color: var(--border-color);&quot;&gt;&lt;/span&gt;&lt;span style=&quot;border-color: var(--border-color);&quot;&gt;Analytical App&lt;/span&gt;&lt;span style=&quot;font-size: 11px; font-weight: bold;&quot;&gt;&lt;br style=&quot;font-size: 11px;&quot;&gt;&lt;/span&gt;" style="rounded=0;whiteSpace=wrap;html=1;strokeColor=#0F828F;strokeWidth=2;fillColor=none;align=left;verticalAlign=top;fontSize=11;fontFamily=Arial;dashed=1;dashPattern=1 1;fontColor=#595959;" parent="VQPdTUdnhyxC5OtxLJdK-18" vertex="1">
                    <mxGeometry x="70.00000000000003" y="49.5" width="182.02" height="105" as="geometry"/>
                </mxCell>
                <mxCell id="VQPdTUdnhyxC5OtxLJdK-23" value="" style="shape=image;verticalLabelPosition=bottom;verticalAlign=top;imageAspect=0;aspect=fixed;image=data:image/svg+xml,PHN2ZyB4bWxucz0iaHR0cDovL3d3dy53My5vcmcvMjAwMC9zdmciIHZpZXdCb3g9IjAgMCA0MC45NjkgNDcuODEzIj48ZGVmcz48c3R5bGU+LmNscy0xe2ZpbGw6IzU5NTk1OTt9PC9zdHlsZT48L2RlZnM+PHRpdGxlPnByb2R1Y3Q8L3RpdGxlPjxnIGlkPSJMYXllcl8yIiBkYXRhLW5hbWU9IkxheWVyIDIiPjxnIGlkPSJwcm9kdWN0Ij48cGF0aCBjbGFzcz0iY2xzLTEiIGQ9Ik00MC45NjksMTAuMzEyVjM3LjVMMjAuNDg0LDQ3LjgxMiwwLDM3LjVWMTAuMzEyTDEwLjIxOSw1LjE1NiwzMC43NSwxNS4zNzVWMjUuNTk0bC0zLjQ2OSwxLjY4N1YxNy40MzhMMTAuMjg2LDksMy40NjksMTIuMjgxdjIzLjI1bDE3LjAxNSw4LjQzOEwzNy41LDM1LjUzMVYxMi4yODFMMjAuNDYxLDMuODQ0LDE3LjgzOSw1LjE1NiwxNCwzLjE4OCwyMC40ODQsMFpNNi44NTksMjkuMDYybDEwLjE0OSw1LjA2M3Y0LjIxOUw2Ljg1OSwzMy4zNzVaIi8+PC9nPjwvZz48L3N2Zz4=;strokeColor=#0a6ed1;" parent="VQPdTUdnhyxC5OtxLJdK-18" vertex="1">
                    <mxGeometry x="140.51000000000002" y="95.5" width="41" height="48" as="geometry"/>
                </mxCell>
                <mxCell id="VQPdTUdnhyxC5OtxLJdK-40" style="edgeStyle=orthogonalEdgeStyle;rounded=0;orthogonalLoop=1;jettySize=auto;html=1;strokeColor=#595959;fontColor=#FFFFFF;endArrow=block;endFill=1;strokeWidth=2;labelBackgroundColor=#ffffff;endSize=3;startSize=3;jumpSize=3;fontSize=10;dashed=1;" parent="VQPdTUdnhyxC5OtxLJdK-18" target="VQPdTUdnhyxC5OtxLJdK-22" edge="1">
                    <mxGeometry relative="1" as="geometry">
                        <mxPoint x="880" y="116" as="targetPoint"/>
                        <Array as="points">
                            <mxPoint x="640" y="102"/>
                        </Array>
                        <mxPoint x="640" y="186" as="sourcePoint"/>
                    </mxGeometry>
                </mxCell>
                <mxCell id="VQPdTUdnhyxC5OtxLJdK-39" value="&lt;font style=&quot;font-size: 11px;&quot;&gt;HC Request&lt;/font&gt;" style="rounded=1;whiteSpace=wrap;html=1;arcSize=50;fillColor=#595959;fontColor=#FFFFFF;strokeColor=#595959;fontFamily=Helvetica;fontSize=11;autosize=1;absoluteArcSize=1;strokeWidth=2;labelBackgroundColor=none;" parent="VQPdTUdnhyxC5OtxLJdK-18" vertex="1">
                    <mxGeometry x="450" y="90.5" width="80" height="23" as="geometry"/>
                </mxCell>
                <mxCell id="MpweEYEIhxzVzXR0h_ej-0" value="" style="group;labelBackgroundColor=none;fillColor=none;" parent="VQPdTUdnhyxC5OtxLJdK-18" vertex="1" connectable="0">
                    <mxGeometry x="366.5" y="-21" width="47" height="47.000000000000114" as="geometry"/>
                </mxCell>
                <mxCell id="MpweEYEIhxzVzXR0h_ej-1" value="" style="shape=image;verticalLabelPosition=bottom;labelBackgroundColor=default;verticalAlign=top;aspect=fixed;imageAspect=0;image=data:image/svg+xml,PHN2ZyB4bWxucz0iaHR0cDovL3d3dy53My5vcmcvMjAwMC9zdmciIHZpZXdCb3g9IjAgMCA1NiA1NiIgaWQ9ImNsb3VkLWZvci1hbmFseXRpY3MiPjxkZWZzPjxzdHlsZT4uY2xzLTF7ZmlsbDojMGE2ZWQxO30uY2xzLTJ7ZmlsbDojMDUzYjcwO308L3N0eWxlPjwvZGVmcz48dGl0bGU+Y2xvdWQtZm9yLWFuYWx5dGljczwvdGl0bGU+PHBhdGggZD0iTTI5LDMzLjQ3MSw0MS45NDcsNDYuNDIyQTIzLjMsMjMuMywwLDAsMSwyOSw1MS44NTdhMjguMTA1LDI4LjEwNSwwLDAsMS0zLjg5NCwwQTIzLjA3OCwyMy4wNzgsMCwwLDEsNi44MDgsMzkuOSwyMi41NDcsMjIuNTQ3LDAsMCwxLDQsMjguOTQzLDIyLjc0NSwyMi43NDUsMCwwLDEsOS40MzQsMTMuOTA5YTM2LjU3LDM2LjU3LDAsMCwxLDIuNzE3LTIuNjI2QTIyLjc2LDIyLjc2LDAsMCwxLDI1LjEsNS44NDlWMjkuNjY4WiIgY2xhc3M9ImNscy0xIi8+PHBhdGggZD0iTTUwLjY0MSwyMC41MjEsMzAuMzU1LDI5LjQ4Nyw0NC41NzMsNDMuOGwxLjQ0OSwxLjI2OEEyNC4wMywyNC4wMywwLDAsMCw1MiwyOC45NDMsMjYuNDQ4LDI2LjQ0OCwwLDAsMCw1MC42NDEsMjAuNTIxWiIgY2xhc3M9ImNscy0yIi8+PHBhdGggZD0iTTQ5LjAxMSwxNi45ODlBMjQuODA5LDI0LjgwOSwwLDAsMCwyOSw0LjAzOFYyNS44NjRMNDcuMiwxNy44WiIgY2xhc3M9ImNscy0yIi8+PC9zdmc+;fillColor=none;" parent="MpweEYEIhxzVzXR0h_ej-0" vertex="1">
                    <mxGeometry width="47" height="47" as="geometry"/>
                </mxCell>
                <mxCell id="MpweEYEIhxzVzXR0h_ej-2" value="" style="ellipse;whiteSpace=wrap;html=1;fillColor=none;strokeColor=#074D92;strokeWidth=2;aspect=fixed;labelBackgroundColor=none;" parent="MpweEYEIhxzVzXR0h_ej-0" vertex="1">
                    <mxGeometry y="1.1368683772161603e-13" width="47" height="47" as="geometry"/>
                </mxCell>
                <mxCell id="VQPdTUdnhyxC5OtxLJdK-41" value="Destination Service" style="shape=image;verticalLabelPosition=bottom;verticalAlign=top;imageAspect=0;aspect=fixed;image=data:image/png,iVBORw0KGgoAAAANSUhEUgAAAdMAAAHTCAYAAAB8/vKtAAAACXBIWXMAAFxGAABcRgEUlENBAAAgAElEQVR4nO3db04bydbH8Zqrq5ElXpC7gmQ2AMz7kWA24DArgCwAmawgZAUYeQGBHQAbCEh5P8AGLqzgiV8gobzJo8o9nekQG7q7TnWfqvp+JDT/MsYYu39dVadO/fL161cHAAC6+xevHQAAYQhTAAACEaYAAAQiTAEACESYAgAQiDAFACAQYQoAQCDCFACAQIQpAACBCFMAAAIRpgAABCJMAQAIRJgCABCIMAUAIBBhCgBAIMIUAIBAhCkAAIEIUwAAAhGmAAAEIkwBAAhEmAIAEIgwBQAgEGEKAEAgwhQAgECEKQAAgQhTAAACEaYAAAQiTAEACESYAgAQiDAFACAQYQoAQCDCFACAQP/mBQT6NxrPthZ80xfOuY0WT+azc+5qwb+/fTjfu+XXCvTnl69fv/JyA4FG49mGhOEr+XISjC9qf7860Ot8LcHrJHw/14P44XzvYqDnBWSDMAUaktFkFZYbtZHkUCGp7VIe76IWtoxygQYIU+ARCc2NWmjmFJhd+aC9lS8ftlcP53uf43wrID2EKYpWC87qa73016SFuYxeL+SvV4xiUSrCFMUYjWd+pFmF5xbBGcVdLWAvHs73FhVIAdkhTJGtWnhWXy/5bQ/ishauFDshS4QpsjEaz3xB0Dbhad4ZI1fkhjBF0mRLyrZ8MW2bnjsJ1tOH873T0l8MpIswRXJG49l2bQTK6DMvftR6KuFKtTCSQZgiCbUA3WabSjF8s4ljCVaqhGEaYQqzCFDU+GCdMmKFVYQpTJE10H0CFE84k1A95kWCFYQpBidbWLYlRFkDRVNzWV+dUhWMoRGmGIxM4+46517zW0CgO5kGPmYaGEMgTNErGYXuyhejUMRwIqFKgwj0hjBFL6QHrg/QHV5x9ORapoBZW0V0hCmiGo1nu7IWSkOFf9TPF62EjKLqZ6hWNsOeYlbmMgU8ZQoYsRCmUCdt/fYLnMqtnwfqakeWDXoAd+3gcieNLlztPNZXhf2O/BTwAftWoY0whZpaiO5nvK2lfq6nryD9nMPaXC1wt2qHnud8juuZjFRZV4UKwhTBpKjoILP10Oooseo4sdsSRzNyg1Q/7/VVZlPIlzJSJVQRhDBFZxmF6Lx2wPWFHHLN2toTZCS7ldGh6oQqghCmaC2DEK1OKqmOAWP9LJCMYOtnx6YaroQqOiFM0VjCa6JVpxzCsycZhCuhilYIUzwr0RC9rAKUVnPDk9mMrdrReam8j6j+RSOEKZ4k+0QPEtg+UR99crKIcdLEozoRKIWtOUcSqryvsBBhioXkYjc1Pj03rx0kfWrg+aADKWbaTSBY5xKoUwPPBcYQpviBTMdNDTefJ0Azlkiw+gK2XdZTUUeY4pvauug7o6/IWS1EmWorQAJn215KqLKeCsIU349CmxocCVTHap1ywSqbrN1vG50xef9wvndg4HlgQIRpwQxP6XKEFhYyfIQfU7+FI0wLNRrP9qVK18r0GYc7oxUZre4aa294JqHKe7gwhGlhZB1qaugCdCkNxykmQicGO3LNJVB5TxeEMC3IaDw7MFRgdCIhSkMFqDDYXIQCpYIQpgWQ0eixgT2jc3keUy4wiMlQsxH2phaCMM2ckdHoXKaWp6wloU+GQpW11MwRppmSdaTjgddGCVGYYCRUWUvNGGGaIblwTAdcNyJEYZKRUKXPb4YI04xIAcbxgPtGCVEkwUCoXssolQK8TBCmmZAio9MBLw4cVYXkGNhv/ZbipDwQphmQC8LhQD8J5f9ImoEtNRQnZYAwTdjA07q0T0NWBm7+4D9P20z7poswTdSA07rsm0PWBj7L983D+d4x77D0EKYJGrBa16+L7jMdhRIMuJ7K5yxBhGliRuOZD9FJz8/6Wj7cTOmiKLKUMh1g6td/5rYI1HQQpomQD/Vpz00Y5rLNhbMaUTSZ+j3ueVllLoHKOmoCCNMEDNRblypd4JGB2nOyjpoAwtQ4uSM+7XHdhgIj4AkD3dwePZzv7fN7sYswNUwKjT70+AwZjQINDTBKZT+qYYSpUaPx7LjHogdGo0AHA4xSKUwyijA1ZoDqQUajQKCeq+xp8GAQYWqIBOlFj3e576nUBXT0XN9Apa8x/yr9BbCi5yD1d7a/E6SAHtmH/UrWNmPzgX0hdRUwgJGpAT23BqSIAYis58Mn2DpjAGE6MAnSi56mhjjuCehJzzfJBOrAmOYdUI9BWk3rEqRAT2Q9c6Onad8PslUHA2FkOpAeg/RSKv+Y1gUG0uOe1JOH8z3WUQdAmA6gxyClawpgRI/VvgTqAJjm7ZlU3/0d+QM1lzUUghQwQqp9t6TxQkw70vQFPWJk2qOe2gOy/wwwTLbB+bB7HflZMkLtEWHaE5na/Tvyd6PVGJCInromEag9YZq3B7U10phOCFIgHbIM8ybyE2bKtyeMTCPrqdiIu08gUT0VJlGMGBlhGlFPQcpmbSBxXCvSxzRvJHw4ADRVa/AQs9L3A71842FkGoFU611FbCNGxS6QoZ4OvOAmPALCVFkPHwaCFMiYXEP8GupmxJ/yd64hughTRQQpAC1ShbsT6QXlWqKMNVNd04hB6tdSNnjzA2WQCv2TSD9sdR7qC95OOghTJZHvIqtmDLe9/2AABkOgpoMwVSAVcrGDlGYMQIEiB+q6rM8iEGEaSDZcx+q3S5ACiB2om3RJCkeYBqidpB8DQQrgu8iB6tsO0iEpANW8HUWu3CVIASwUuT7jTzkqDi0xMu3uNFKQ+pL1bYIUwCKRR6inMuOGlgjTDuTopBgbqudU7QJ4jgTqWYQXylf4HlPh2x5h2pJU7sY4g5BN1ADa2I3Uy3ddDi9HC4RpCzL9MY308AQpgMZkKWgrUqC+Ho1nB/w2mqMAqaHIzetpPA2gk8jXJgqSGmJk2twxQQrAGhmhbstSkbZT1k+bIUwbkP1XryM89AlBCiCULBFtRXghV+mQ1Axh+gxZJz2M8NAnUpEHAMEkUN9EeCU3WT99HmH6hNq5gtp8wQDdRgCokpmu9xFe1XfSOhVLEKZPi7FOOqe7EYBYHs73DiI1dWD99AmE6RKyn1R7nZQgBdCH/QhbZlbZf7ocW2MWGI1nr6TUfFX5oancBdALGUXeRriOvX0434u13z5ZjEwXO47wBjwiSAH0pdbUQduBDDhQQ5g+IlVr2n13Lx/O9yg4AtCrSBW+bJdZgDCtkW0w75Qf9k42VANA72RGTLsgaZ3tMj8iTH8UYxqW49QADC1GQdI7jmv7B2Eq5C5L+3zStzSvBzA0uaHfjdBykDoQQZjGm949o+INgBVyY69du8F0ryBM/0c79O7kLhAAzIi0fuqne4uv7i0+TKWJvXb1LuukAKyKsX5a/HRv0WEqd1PaUxTvWScFYFVt/VTTpgxMilX6yHSq3JzhUvpiAoBZcsP/Vvn5HZTcu7fYMB2NZ9vKvXfnrJMCSIUUSF4qPt3VCPUnySgyTOXuSfuXfvBwvner/JgAEJP2dpmdUo9qK3Vkuq98tNol22AApEYGANpLU0VeC4sLUyk60txTyvQugGRFmO5dL7EY6d8GnkPfmN7FQr/+8fZFhE3t+Jn/vNx++XR4wWtjxq7ysZO+GOm4pC2CRZ1nKnP5HxUf0k/vFrk+kBsJ0osILSWx3FxOHzkmWIcno8lDxSdyVNJpWaWF6ZXixdJfCDYYlaaPIDXBd+XZ//LpkGYnAxqNZxfKTWx+K+UaWcya6Wg821W+WE4J0vQRpGbs+N/Dr3+85RSSYWnXfxTTGamIkalshblSrOC9fjjf40OfOILUJD/j84oR6nCkcb1mkeafD+d72U/jlzIy1d4KQ5FK4ghSs1bl94KBSBe3O8XvXsRWmezDVEalmuF3UsJdVs4IUvPWf/3jLW05h6U53bsuy2xZK2Fkuq9Y7j1nVJo2gjQZ+/K7wgBkwHCm+J2zvznKOkylQYNm+B1wtFq6CNKkrNIMZXD7iq0GX+Y+Os19ZHqgOCq9o2VgugjSJBGmA5LdCprXvKxHp9mGqYxKdxQfkg92ogjSZPH7Gt5UsRgp69FpziNTzbugS4qO0kSQpu3XP97SYWxAsqyleS3NdnSaZZgyKoUjSAEVD+d7vvHCtdLDZTs6zbXRvebdzwmdjtLTY5BeU+Hd2K7yTS76s6/Y1/wgx85I2YWp7CvV+sDOSyjpzk3PI9LPNGlvhinbdPllrtF4dqnUt/fb6FRGvNnIcZpXc5RA/93EMLULRMPa6ROyClPlbkfzUk+MTxVBCsQjRZgnSt8gu7XT3Eammt2OpjRoSAdBCvRCc0RJmBqm9cthVJoQghTohyx7aY1ON0fjWTbr6NmEqUwZaJ0Mw6g0EQQp0DvN0Wk2lfA5jUxZKy0MQQr0T3l0+lr6AiQvizCVqQKtCyqj0gQQpMCgGJ0+ksvIlLXSghCkwLBkdKp1RNuu7MRIWvJhqtw68JhRqW0EKWCG1sDD78DYTv3XmsPIVLO8mlGpYQQpYIfsO71UekLJN3HIoZ2gVpjSg9cwgjQLtx0uvswU2TZVbDG4lfLpXEmH6Wg829bcDqP0OFBGkObhy6fD4xwbnJfs4XzvdDSe+fNONa7Du/I5T1Lq07xao1J/XumV0mNBEUEKmKc1RbuTciFSsmEqhUevlR6OUalBBCmQhFPZCaEh2RaDKY9Mtaq/7vxUhdJjQQlBCqRBdkBoTd8TpgPQ2ujLqNQYghRIjtZ1dH00nm2k+AIkGabyYmsVHlEQYQhBCqRHdkJobZNJcnSa6shUa1R6QpMGOwhSIGlao9MkGzikGqZaLzajUiMIUiBtUntyp/BDvJRtj0lJLkzlRdY4APwu5Q3COSFIgWxoFXMSpj3QepEpPDKAIAWyUuxUb8lhynaYgRGkQF4UC5FWU5vqTSpMFad4z+jDOyyCFMiWVi0KYRoRo9IMEKRA1opcNy0xTOeE6XAIUiBvst3wROGHTGqqN5kwVZziPWVv6TAIUqAYxY1OUxqZMsWbMIIUKIfsOdVofk+YRrCl8JBzmtr3jyAFiqRxrfVTvRrX/uiSCFPFXrwEac8IUqBYRU31pjIyZYo3QQQpUC7FqV5GpopUqniZ4u0PQQpAaQDjj2V7Zf3FNB+mo/HshdIFmSDtCUEKQGhdd82PTlMYmWpN8dLUvgcEKYAareuu+XXTFMJU646EkWlkBCmAOtnTf6bwojAyVaDxIl7SqCEughTAEhqj01XZ1WGW6TCVRWe2xKSBIAWwSBFbZKyPTLWG9qyXxkeQAviJnNB1p/DKmJ7qLSFM/ZaYK4XHAQB0ozE63bT82pcQpkzxIiZmPYDnqXxOLLcWNBumiuulXOwQE7MewPO0rsOEaQesl8K6+ZdPh8x8AM+Q3RTXCq+T2Yrefxt4DstovGh3svgNxDCN/aquTG78DE1wK7X7ozVuKjE0jYp/syNTy2Gq8aJxAUEs8xhhKuG5LV9qBRcrkxsnFZX+M3FMuGIA/j03Cfy2fr/pK4uDJMthqrHVggsGYtn+8ulQrRHIyuTmhYTzTsTn/FIef2dlcuOn3PYJVfRIc9302NovzuSaqWLFFhcKxPDmy6dDtffWyuTGL2ncRg7Sx/zN6seVyU30qWrAFbBuarUASePFmrNeCmV+avevL58O1e6KVyY3u865v/301UC/rMnK5MbcXT6ypXETSpi2wHoprLn0H2LN6l0ZkX4w8HPuEKjoicZWMpPNG6yGqcZBsOz/QyhfsHPinPv9y6fDrS+fDtVmOmSN1NINnw/UfQPPA3nTat5gbnRqtQCJ4qP8fSuAMfxT3mqG5wLTAad2lznwI9T7ozVOWEIUfultNJ7NFd77G9YGTObCVLH4iJGpbZ81i3hSIttf+iw2ampVbnAOkn6BYd2VwlStxuylKovTvFrNGri7hlWWj5JiqhexadxEm2veYHGal/VSJEEKiPyH+sWjD/eFbHW5uD9aWzRVbDlMV/3PdX+09tNnaGVysyU/Z70r023tZ2VpBU1oXJ9ZM21A40UiTBGNbGc5eOIghu9TWNIcYXp/tHa86L8btVV9hmRK+kBuABatc1U/y7uVyc1cTmk6WHITATi5+QrlOyG9sDQDmWuYcocMdTIyO255mpEvpvsglbI+hFNYfngh1cYHLdu/rdY6LB3dH60xZYyf+POlR+OZxguzYelabzFMNSocuSuGKhmNhuwJXZfmDCcd/t+TwPZpH1v++ao3cEhV/aSaFqY6GAtcKszQEKbLaFXy0vkImhSCtK5LFe9tyHqkNLlvQ2NrmpPHufChSqDikVuFMH1h6UW1Vs2rUXx0qfAYwDfKQVqiKlBNXfgwOI0Bj6mK3hzDlFEpVBCkaghUPKYxPcvI9AkaxUeEKYIRpOoIVNRpTPtrLUeosBamGh80tsUgCEEaDYGKb3xFr8Yr4Q8Kt/KK5jgypdABnRGk0RGoqNwpvBKE6RLB22IezvfYY4pOCNLeEKhwSktyhOljFo/UQTkI0t4RqNCY6iVMF9D4ULEtBq0pBumcV78VArVsGktyZt47lsLU3JE6yJ9ikJ7Ie/i6kLeNv3F4r/A4BGq5smp4n1uYsl6KxjSD9P5obVe6/GxFCNTQtSWNQo+6ubQJ9L173yg8HoFapqyKRS2eZwpEtzK52dYM0uofFAP1TkZ+vz06caa1+6M1f6P6l9IyiP+5XlVHtMlze6vwuOty4gzKoVGAxMh0ARo2oBcyAgoKKPFDkFYCA9UH3l8+AP3IT+sos/ujtdP7ozX/nH5zzh11XN+9XNS4/v5obdqxgf9jmyuTmwOFx0EClHqoaxyMoiK3AiTCFE1MFT6EC4O00jJQ5xJwfhTqwyraCM2Hsz8a7f5o7YVM0TYN/BN5bgun5uS10AjUfaZ7kSKmeVEUuVB3Obml7skgrTQI1GsJtFcScL3eDPop2vujNT8j9PszQfi+4c+7qzCVvCrnvqIMwfUFWqeNhcpqmpeGDWhgO/BFahSklSWB6oPrdx9kEmiDFmL49U/5mf4j65/1gqU3UmjU1LbCBZIwLUc2RUiWwtTM3DeyFnIX2ypIK7VA9UH1H6n8NddD2j9Pv/5ZK1j6s23xk1IB1jpTvUiNqcPBgR50nQHpFKQVCZlpKr/gkHVb/7NKtfRVwE3yBlvdinClcEi4iR4FOa2ZlrJZHmG6HNsUFKQlkvXfrYCuUIxMy6AxzUuYVpQWkDktBrEwQupAprK7frbp1Y2kUM0LPO+DdEtCe7cdOzCxzQ1JIUxRmq7LAQRqS1JE5Ef1Lzv874RpGcwV4nVFmKI0IRdpArWhWpB2WaN2hGkxNJbnTCwJ5BSmrGuhidDuQgTqMxSC9K7vBhZImoliNStbY6jcQ19OFRrc+0B1oQ3o25KQ2qgV9Twu7rmtfV0NsZdVIUidUt9koFdWwpTKPfRC9kCeKLQU7CVQVyY3G9IRaKtBQP2wX29lcjOXm4fTmP1+a99PI0gdYYoU0bQBJTqQtnehXbd8oH6OEVQylbwfGEyrctOwI8Hqm0ZMY7QvVAzSI6Z4kSIKkFAcuVhrHfWlukSxMrnZWpnc3MpUdGgw1flgfeengf0xZxHa9R0rPN87xd8L0CvCFEWSMzjPAn/2udY0rw+3lcmNH+F+7LiVpKkqVK98cCs+buj6rB85bw/d9B/oimleFEFGYtuy9rihNOpT6bUroXba82EPPrA/rkxu3rc8FWaZYwnprvzP/rdMR1/V1nqZ8kUSGJkiazLiO5Aq1w+yhqg1fRo8KpW10Y8Dnpr0zo+IQ6d9JfQ0DgdflUKqQ+fcf1cmNxdShAWYRpgiW3IRvpIRk3ZYnYWOmiRIQ7fpaHjti4cU1lFjVOFuyoiVtVSYRpgiSxJUf0dcfwya4jUUpJX10MYn90drFx378DbhR9BsmYFZhCmyI2uQMYPqToKjkx6eX1frCoEVcwS5Q6DCKsIUWVmZ3LxSaBn4nM6j0p6eX4idwHaJpwFnmDaxw5QvLCJMkZtpD8U8IaOj4wGLjZqaSui3JltbYt8svOv6/IBYrIQpe8sQTAqOXkd+JU+67oWUEd9mgz86tNXAGwaVLUPPYHQKU6yEaTZn2mFQ+z18805BIZWyGiEzly0ob5xzf94frf3iv5xzv/l/9u34lIqANrs2dZAG+5cKz+EpOxG6OAGd5dS0gWkfbEd+Ba4DTmLZD5zefbK3rmzTuZWK3H0ZBR8EVjMfLDiZpqnjHkbh2zTFhxU5rZkSpgWTKd7Ya5EhI8uQop5r37XJdypqOsUsbQ43AhsphIxOjyMXIjlOm4IwcZY1BUjIRewpv859eFcmN9sBI0QfhltdGkT44L0/WtsNDNSQm4DYa6eEafqy+R3Smxe56PqhvG5YABdSodp1+vlawjCIfwx/9mrHM1xDps6Pa9PEKRReoX/ZrHtbCVOaWSNU1w/lfkgDhoa6BNI8YL3yJxKoXRr8r/qRdZczW2U0/dPPINta6ssyG/L7C2mUDwzKRJg+nO/djsaz0IfhzhfmyJpjl7Xc/QjHkW13rC1QvdmtFUtVvt3MrExuCFN0YWJrJdO8QFxdpp/vtM5JrVsQYsDQNNZMTWytpAAJiKvLxcJyu0FAUzZrppbC9Dr0AUbjGdV9sKbLtCphCiTGUphqzHvTEQXJ66EgCrCCaV4AjbQtjFNpdECrPSQiuNHKw/keBUiPXClU5G5Z6YYBdBR8ly1nfm74SuIIFcExvW/52BRTJWw0nmV1w2cpTDk5Bjmat7z7Dpr2kiCtmjNcpBSovl2igaeB/mhM8cY+UKGx3NZMKUCCNW1Hmqtdp2gfBamTBg0XTPkC8VkKU41FZC4ayEHrzkcLgrRCoMIqjQ5fZqb6cytA4uQYWNPlJrFV+8EngrRCoCJXhOljD+d7GoVDIWc3AjF0+bA3Pvi6QZBWCFRYozEyNVMPkF07Qd+44eF8z8S+IyCgunz63PFnK5Obg5YnwaxrFCVJIG8suRj6z95twCHqQBtm3mfWwvRSYXsMd95oY7fhAdi3Xfrl+lBZmdy0reh1Mjo9fea0lqlMCbc5CaZToMqJM7vy/Z6dAZKf2T/3534GlEvjcBJGphGx17RMXddOmo7s5hJuXT68px3PEj2W0Ft49+2fi9wIXMQKVHn8gw4XvlX5mf1NwZ1/jBjN+5EmrT2mlmYhrRUgaYQgI9MyxS5EWA04KLtriKxWobfsD0gYbnXobf3kGqr/97Ie+1FhBOFHsh9WJjdXMsIFNN4Hd5ZeRWthyl5TdNXHHeqTa5jLSK/drgc5+ED9KOujC2kHqgTeVcfR9HPf7++Vyc2+8uMiPRrXaVMdsKyFqcYFkTAtkARK8MlDz9hcmdx03X41DfzeTx6crRWoK5ObXZkhilkZfyijXpRLYxujqSI3a2GqcaexmlvPRzTWR6FLp1GVrBdGDXuFQPU/2weN5uMN7BCoRdMY9Jhqk2kqTB/O97SG7YxOyzTVOnXlCV3XTV3XIG4jMFAPYz+/RwjUcmlco00VmlrsgKTRuJgwLZAESeh06nNerkxuOgWqrJ0exf7NBATqEAjUwsjMocbsB2umz9B4gQjTQsnJI7FDpFMhkujj+RGosEzl+qw4k6mCMEWOtiJP977uWogkIbfbw3R0H4F64px745z7s/b1Rv5925+PQC2HRhtBM0evVSyGqcY8eJsN7MhMLURi7kPrvHYqTRhiB371vWIEqp+q/s/90dquL6zy09e1L//Pu1Kt2fawbwK1DNlti3FGw1Sl3Nn36NV4HKRJAsu/B84i/QBBxUSJBqp/rn/dH63tP9c5yf93mXL/veXPSKDmT+PabK73s7kwfTjf+6x0gdGYSkDC5IK+LVOQ2tNCLxv29F1qoEDtOlr3z3GrbZ/djj8jgZopKT7S2MNMmDZE8waokSlIf0H/zTn3VkarlwojtZBCpG8kbF71tAbUqEn9AlWQdvpcEqio0So+Mtd/3WqYarxQhCl+cH+05k9+mcpoNWS/aGVb43xQGUFvSdBHGaXKKPpDh/81KEgrBCqExoyhyQr1nEem63RCwhOOlQrV1N5jPuhllHqi9Zjun167XbpDqQRpzUbHo+gI1HxohKnJs3JzDlPHuikWkVHa68AXpwoa1apCGaXuypT0e6WK5OMOIaYapNLzt8vI2BGoWdE4w5QwbUo242pcRAhTLLL0BJaGtEdsP5EpaX8GqB+p/tW1c5KcNtN2BG4pSCsEauIUd1iYDFPLh4NfKVR9Eab4gUx5htwdRw/Sx6SCtvU0razntt3CYzFIKz5QnYzckR6V67HF4iNneJrXaTVvYN0Uj4QUHvUepIH2W07vWg7SCiPUdGXZ+aiSe5g6Rqd4pOv7IbUgdS237qQQpJUdeXykJdviI2c5TB/O9yhCQgxdeuomF6Qynd1mmcRCkLbZNvNBfkYkQNZLNU6KMTnF64yPTJ3SkJ4wRV2XdfjtxEakruV09lsDQfqmwz5UpnvTobGv2xGm3Wmtm3Y64QMQU43mDD1rehN5Kftbg4UEqTTIb9vYYZ3p3mSoNGuQdrMmlRCmjtEparp0GPJbSy4SC9SmN5Aqo7vQIK3+oUOghm5zQmRSBKqxv9TsqNRZD1PFEmitKQakr+t0ZnCg+sDpcSTVaDq7HmRdaQVp7TldtfjMBh84gOi0fj+EaSCNI7T4sKES0rGoc6DWAscXztwamZ4MrknQDtKKP5ygRaMKpnpty3691CUSphov4OpoPCNQ4Tr2qK1rHagLAuelsVDtJFaQ1jSdwuWzbZtGmF5aXi91BYWpY6oX7p9uQqEnszQOVGkwsCxwkg3VHoK0OoO1ycyUn+qlyNCgErbEVMyHqew31ejTS5iiolG96gP16qm9jhKkOw0eqwrVK8X1v2gHjvcRpDVNL6KEqU1aN4mhM0rRpTAydUp3JS8VGy0jbVOlG7SXMkL94X3lR6wtgrTOB/THlcnNhUKoNim0al1h2XOQuhYFY3y2bdIYxJL5/z4AABGySURBVMwVm/hEk0qYat2VUKiAavpQa6ZitR6oMvV70SFI6zYVQrXRxWdlctP4dRggSNugB7cxMngJPazEpTAqdamE6cP5ntaLyVQvvpHtF2+UXo0qULckSDUOHXe1UG178otrMZvT6LGNByls0hq8mF8vdQmNTJ3SFhmmevGdXOQ1A/WjYpDWtR51tSi02nxudDpwkPJ5TZfW4IWRqTKmeqFOOVCtafqZOV5WSGVgRNp0mjtk/zCUKU7xnlnfElMpMUyZ6sUPMg7Upvs0V5cUUg0apLLd5XXDP06Y2lJMFW8lmTCVu5NrhYdiqhc/yTFQ74/WfMCcNPzjjwupLKyRNt7CJB2TYEcRXY/qUhqZOsUjl7oUdCBzmY5Q91vsOa0C9WDoIJUwbzoq1bjJhpLReLatNMXrT4lJZsYhtTBlqhdR5Raosg2ozZSbD9R3Hb6VdpC2CXOqhW3Rur4m9XtNKkzlLkXjLtT36qUQCQtlGKinLZrGdzFkkLqU1tVyJ8etFVXFW0ltZOqUWsE5Rqd4SoaBut9i/bSNoYP0RNaGYcO2Ui/ey5SmeF2iYap1t/J6NJ7RzxNLZRiou8qBOnSQOg4HN0erHiW5qfvkwlSqejUaODj2nOI5RgJ1y3dB8h2W5Ktz6zzFQLUQpEeMSu2QXRJaTUuSm7pPcWTqaOCAPklo/KVwEov//992+P98W8FD6bDkv/5vZXLzdWVy81n697ba6qUQqBaC9JpRqTlao9JkGjXUJRmmD+d7x0pHTL2kEAlNSBGPD63Lji/YiRwTpnnHvSpB26XdYNdAfW8gSP1nf1cqlWGAcuFRktXZqY5MHaNT9M1PKd4frfn2dn82XGqYS2D97sPLX/xlWjLaWaNtdAzU/bYj4UUCg3RLDiqAHVqFR3PFg0169e8Un7SYBh5zVdn0hUipVY5hONJt51tnFjkp5nH/WD9iunqiK89Fi4YEUflAXZncuBafpe8n5HQNtIAg9bYJUpO0ptyT3TOcbJj6w2JH49mdUqeNA0ao6KIerC2cWglT13OgBgapN5XvyxSvEaPxzN9MalyHneLWx96lPM3rFF/4HZnzB6KTNUcTU72VDlO+VaA2LjoJaFNYty7fl8+rHVqj0uT2ltalHqaaUwL060WfzFWidgzUQ6ko3l0UcP7fyX+77dimcBEC1QjZq++L4DQk3RYy6TCV8mmtTeiEKXpzf7Q2DagMjqZjUdKmjDj9lp0rCVf/5aeA/0/+m9Y0YIVAtUHrpnAuuzSSlfrI1CnezdCvF33btjbd68L3oa5LuG4qbuB/6nsRqAORUalGEajL4bCC5MP04XzvQvEIJjaBozdSRLOVYaD2iUAdjubgI9nCo0oOI1On+IugiQN6JdWwrzKa8g0173BzTKD2TAo2NTseJb81MYswVeyI5Bidom/SzGFLegDfWfoF9ByocxmpbxGo5u0rNWlwOYxKXUYjU8foFKnzW2buj9ZeSR/gE8XliyASqO8jf5vvnY1q098EqkHKo9I7WapLXsodkB6bKpbeH3B6P4YifYBNtVS7P1o7kOrcY8URSeVSOht9b8Tg/166S120LGRarzWUoLFDHJqj0mxmArMZmSpvk2F0CjwiIf9K8XN2JyfQLAw+Rqj2KI9Kk98OU5fTNK9Tvsth7RR4RNZ3/Y3mb/480Y61CtcSoq+eO4GGQDWHtdIlfvn69avJJ9bVaDzT7Hv6Jqc7p5h+/eNt2zfS5ZdPh48bxCNBtWb/W3Ic3ONpWT+N66s1/TTxaZcDvSUU2075OglhpnwVyKj0Vut0GD/LkeK5pcvktGZamSqGKWunwDM6NvtvhTVUE1RHpTkFqctwmrdq4qC1Z8+vndJmEDCAKd/hSLcjrQJPl+MgJbtpXvfPkUAflR4uu+mIGDpM81r155dPh1mU6ueKKd/+jcazY8XWgScP53vZFXhmNzJ1+qPTVZrgA3YwQu3XaDzbUAxSl2txZ5ZhKjR/YfsyzYHlzLXDQ74I1F5pVt2e5NA6cJFswzTC6JStMk/L8gMCuwjU+Ebj2bbieaUu5+toziNTp/yL25G1WCxmqmMPykCgRseotKGsw1R5dOpy22Ss6cunw1OLR4khfwRqHKPx7EDxUPd57rUnuY9MnfLodJ2tMk9iKhyDCAhULCA1IprXuuz2lT6WfZjK6FTzCKkD6QSCR758OpxyMcNQOgQqW2WWmyo2aJiXMKtXwsjUKY+YVpnufdIW070YSotAJUiXkNoQrS5yroRRqSslTGXR+0jxISlGWuLLp0Om2zCoBoFKkC4hs26a3Yn8eaVFLP+UMjJ1MjrVHDHRs3eJL58Or+RidmbyCSJ7TwQqQfo0zaIjV1IdRTFhKtMMmr/Yl1LthgX8CPXLp0O/R+1PGjpgCAsClSB9gnQ6mig+5GVJp25l2Zv3KaPx7Fb5zuv3h/O9K/1nmpdf/3jrqwO35XDpDcM/3L6MrJEJ2fri6xz2CdLlRuPZVYd+x0/5UwpAi1BimGo2wfeuH873LIcDADxJZtk0T4XJspn9U0paM/0mQiOHdaZ7AaRKpnc1gzT7Bg2LFBemQvuO6Z28IQEgNdrrmgclHllZZJjKVpn3yg9LdS+ApMismuY6qV/2KnIffqkjUyd7n+4UH9JP99LMAUASpH5Ec3rXlXz2c7FhKrSneyc0cwBgXYTmDN5RSdW7jxUdpvKL124scErvXgDGTZW3CM5LP+ii9JGpk9GpZmekVdZPAVg1Gs/8NW9H+entllh0VFd8mMobQHu69zVHtQGwRnYdaNd2nD2c752W/ssuPkzd/wL1NELLu0O2ywCworZOqnW0mit1T+kihOk/tKd7HeunAAyZKm+DcbKn1G81LB5hKuQNoX2H9ZL1UwBDi7ROelnqntJFCNMaOeFAu7r3Ne0GAQwl0jrpXA6ugCBMfxZjuvcd+08B9E2WmU6V10kd1bs/I0wfiVTd62T9lIIkAH06Vd5P6qjeXYwwXUDeKEfKD/tt/ykFSQD6IO1NN5W/1V2kwUbyCNPlDmon9GtZpyAJQGxScDSJ8G2Y3l2CMF0i4nTvaxriA4hFlpM+RHj49yX33n0OYfqEh/O9K+fc2wgPPZE7RwBQI0EaI/Au5aQtLEGYPkP2UWlvl/E+UOELQEukDkeObTDNEKbN7CqffVqhwhdAMAnSiwgdjrxt1kmfR5g2IG+kGHdm/g7yYjSevYrw2ADKEaNVoGOdtDnCtCFZP30T4aFX6eELoKvReHYcoVWgY520HcK0BWk3eBLhoddlhEqgAmhMWpXGCNI71knbIUxbejjf242w/9RJoNJVBEAjsiPgXYRXa846aXuEaTdbEfr3epsyZQMAS0mQxthL6u3LshZaIEw7kDu2WNtadghUAMtEDtIjWc5CS4RpRxELkhyBCmCRyEHqG9hrn+lcDMI0gNzBaTfErxCoAL6LHKTXNLAP88vXr19Tfv4mjMYzXzj0OtJzOZGiJwCFihykvv5j4+F875b3V3eMTHXEqvB1jFCBsvUQpFsEaTjCVEGtIClGy0FHoAJlihykjspdPYSpklrLwRhbZhyBCpSlhyB9Q+WuHtZMldWOQNI+uaFyxgG9QN56CNIjKnd1MTJVJlMmMd+kr2k9CORLWgTGDNITglQfI9NIerizvJbCAUaoQCYiNq2vsDsgEkamkchaRKymDk56+V5xHiqQPj/T1EOQXkeeNSsaI9PIZMomRjPqSlXaTkUekKDIB3tXmMmKjJFpZHIeYIxj2yq+0OlvmVYGkJBawSJBmjjCtAeyRhEzUL0PMgoGkACCNC9M8/aohzURJ6G9z4cHsKuHAkVHkPaLMO1ZT4HKhwgwajSeTZ1zk8jPjmtAzwjTAfQUqBQmAYZIoZE/FGMz8rMiSAfAmukAelpDpTAJMELWR68I0nwxMh1QT9M9jnVUYDhyQzuN2GK0QpAOiDAdWE+FCK46/JdpX6AfMq077WFJxxGkwyNMDegxUOcyQuWkCCAimdY9jrztpUKLQAMIUyN6DFTHtC8QT4/Tuo4gtYMwNaSH49vqmPYFFPU8res4Rs0WwtSYngPVe/twvjdN5gUCDBqNZ1syrfuyp2fHwd7GEKYG9dT4uu5SRqm3Kb5ewJB6OMyijroHowhTo3rc4F3xH9IDRqlAMz0XGTkasdhGmBrXU7ekOkapwDN6Ho06qXHY5nNpF2GagNF45osMDnt8poxSgQUGGI16Z3KDS/W9YYRpIqTA4bTHwiTHKBX4H1l2OeipY1kdFbuJoDdvIh7O93xB0pZM9/TFr9f+l3NSUTK5kb3qOUjnUrFLkCaCkWli5A7ZTzO97vmZ38ko9SL5FxFoYDSevZJ9o0N81rYpNEoLYZqoAQogKmdSms/UL7Iln6/9npdVnCytbLM+mh7CNGEDraM6mYLyd+xTPvTIyWg825b3dl/NF+reP5zvsaSSKMI0cQPsR627k6pfNpAjaVKlOx3oczSX0ShLKAkjTDMx4LSvk6KofS4GSI2six70vJe7jmndTBCmGRlw2rdyKSNVQhWmyYzO/oA3oI5p3bwQppkZsNq37kRClSIlmFIL0SGKiypUxmeIMM2UdE06GPCC4QhVWGEkRB3djPJFmGZM1oNOe259tgihikEYCtG5hOgp74Q8EaYFGLg4qe5MttMwvYWo5EZy10CIOoqMykCYFmKgBt3LXEqocpcOVQaqc+s4MKIghGlhDI1SXbVP1U9Fc9eOEFLJfjDQPtFF6BRWGMK0QHL3fmzowjOX5zPl4oOmZD10W0J0iI5Fi7A2WijCtGBGKn4f83f0x1yMsIwsWexLkFp67x7JtC6zLAUiTAsnd/dTI2tMdXdSicxoFfVR6L6Rdf86OoCBMMX/yJrT1OCFyknB0jFrq+WRxvPbBkehjgIj1BGm+IHRqd+6EwlVpoEzJdO4uxKgVtZCHzuR0Sg3d/iGMMVPZErNB+rE8Kszl2lggjUDiQSoo/80liFMsZTBqt9lvgerc+6C0UIaEgpQx3GDeA5himcZX09dxFcEX8ioleIlI2TGY8vwGugicymC43QXPIkwRWOj8WzX2J6+Jqqq4AtGrf2T0ee2hKj1GY66udxATnnPoAnCFK0lGqqV6ypYCVd9Ep5bta8URp+PUVyE1ghTdJZ4qFaqcL2ScGVauCGZtq2HZ0ojz0U43QidEaYIlkmoVuZVsMpfbx/O965sPLXhPArODfnK4fftCFFoIEyhJrNQfcxvibiVLx+0n3MM2Vpo+q9Xtb9Pcbr2KdWa6DEhCg2EKdRJqO5mMO3XxJ0ErA/Wz7W/3lq8SNfC0skos/7XEn5fFBYhCsIU0ciWGt9R6XXhr/K1BKyrha1b8s+L+P/+osH32Xj05+r/nOPosg32iSIqwhTRSfOHfRmtlnxBR//OZBRKxyJERZiiN0bPn0R+OB8XvSNMMQiZAt41ePQb0nUpBUVM5aJ3hCkGJaPVqmAplXaFsINRKEwgTGFGYo3PMawzGYVyYhBMIExhkvFDoTEMDomHWYQpzCNYi3ZdC1CmcWEWYYqkEKxFOKudTUuAIgmEKZIlFcHV8V4UL6VrXjsmjylcJIkwRRakMUQ9XBm12nZZC8/iDxJA+ghTZCnhQ6lzxTmyyBphiiLIlPBW7RgxRq5xXdaOsiM8kT3CFEWqTQtXR4wxeu3uWoLz2xd9cFEiwhQQMjVcneO5xUkrC13WjpwjOAFBmAJPeHRY9gsJ2ReZVw8/PqP1wur5rIAVhCnQkUwV17/qB29bHtVeyl9v5ev7oeZU1gLdEKZAZFL8VKnCt+7xod5dPJ5urQKyckUREBAPYQoAQKB/8QICABCGMAUAIBBhCgBAIMIUAIBAhCkAAIEIUwAAAhGmAAAEIkwBAAhEmAIAEIgwBQAgEGEKAEAgwhQAgECEKQAAgQhTAAACEaYAAAQiTAEACESYAgAQiDAFACAQYQoAQCDCFACAQIQpAACBCFMAAAIRpgAABCJMAQAIRJgCABCIMAUAIBBhCgBAIMIUAIBAhCkAAIEIUwAAAhGmAAAEIkwBAAjhnPt/xKM/wZFYfpoAAAAASUVORK5CYII=;fontStyle=1;fontColor=#053b87;" parent="VQPdTUdnhyxC5OtxLJdK-1" vertex="1">
                    <mxGeometry x="917" y="-2182" width="60" height="60" as="geometry"/>
                </mxCell>
                <mxCell id="VQPdTUdnhyxC5OtxLJdK-42" style="edgeStyle=orthogonalEdgeStyle;rounded=0;orthogonalLoop=1;jettySize=auto;html=1;fontColor=#FFFFFF;strokeColor=#595959;endArrow=block;endFill=1;strokeWidth=2;endSize=3;entryX=0.401;entryY=-0.036;entryDx=0;entryDy=0;entryPerimeter=0;" parent="VQPdTUdnhyxC5OtxLJdK-1" edge="1">
                    <mxGeometry relative="1" as="geometry">
                        <mxPoint x="815.248" y="-2180.2532376470594" as="targetPoint"/>
                        <mxPoint x="815" y="-2202" as="sourcePoint"/>
                        <Array as="points"/>
                    </mxGeometry>
                </mxCell>
                <mxCell id="VQPdTUdnhyxC5OtxLJdK-44" value="" style="group;aspect=fixed;" parent="VQPdTUdnhyxC5OtxLJdK-1" vertex="1" connectable="0">
                    <mxGeometry x="790" y="-2176.4900000000007" width="48" height="48.98" as="geometry"/>
                </mxCell>
                <mxCell id="VQPdTUdnhyxC5OtxLJdK-45" value="" style="shape=image;verticalLabelPosition=bottom;verticalAlign=top;imageAspect=0;aspect=fixed;image=data:image/svg+xml,PHN2ZyB4bWxucz0iaHR0cDovL3d3dy53My5vcmcvMjAwMC9zdmciIGZpbGw9Im5vbmUiIHZpZXdCb3g9IjAgMCA1NiA1NiIgaGVpZ2h0PSI1NiIgd2lkdGg9IjU2Ij4mI3hhOzxnIG9wYWNpdHk9IjAuOTYiPiYjeGE7PHJlY3QgZmlsbD0id2hpdGUiIGhlaWdodD0iNTYiIHdpZHRoPSI1NiIvPiYjeGE7PHBhdGggZmlsbD0iIzA1M0I3MCIgZD0iTTM0LjQ1OTUgMTUuNDY5N0MzNS42MzY2IDE0LjQyMzMgMzcuNDU4NCAxNC41MDgxIDM4LjUyODUgMTUuNjU5MUw0OC4yNDEyIDI2LjEwNThDNDkuMjQgMjcuMTggNDkuMjQgMjguODIwNiA0OC4yNDEyIDI5Ljg5NDlMMzguNTI4NSA0MC4zNDE2QzM3LjQ1ODQgNDEuNDkyNSAzNS42MzY2IDQxLjU3NzQgMzQuNDU5NSA0MC41MzFDMzMuMjgyNCAzOS40ODQ3IDMzLjE5NTYgMzcuNzAzNCAzNC4yNjU3IDM2LjU1MjRMNDIuMjE3IDI4LjAwMDNMMzQuMjY1NyAxOS40NDgzQzMzLjE5NTYgMTguMjk3MyAzMy4yODI0IDE2LjUxNiAzNC40NTk1IDE1LjQ2OTdaIiBjbGlwLXJ1bGU9ImV2ZW5vZGQiIGZpbGwtcnVsZT0iZXZlbm9kZCIvPiYjeGE7PHBhdGggZmlsbD0iIzBBNkVEMSIgZD0iTTIxLjYwMjggMTUuNDY5N0MyMi43Nzk5IDE0LjQyMzMgMjQuNjAxNyAxNC41MDgxIDI1LjY3MTggMTUuNjU5MUwzNS4zODQ1IDI2LjEwNThDMzYuMzgzMyAyNy4xOCAzNi4zODMzIDI4LjgyMDYgMzUuMzg0NSAyOS44OTQ5TDI1LjY3MTggNDAuMzQxNkMyNC42MDE3IDQxLjQ5MjUgMjIuNzc5OSA0MS41Nzc0IDIxLjYwMjggNDAuNTMxQzIwLjQyNTcgMzkuNDg0NyAyMC4zMzg5IDM3LjcwMzQgMjEuNDA5IDM2LjU1MjRMMjkuMzYwMyAyOC4wMDAzTDIxLjQwOSAxOS40NDgzQzIwLjMzODkgMTguMjk3MyAyMC40MjU3IDE2LjUxNiAyMS42MDI4IDE1LjQ2OTdaIiBjbGlwLXJ1bGU9ImV2ZW5vZGQiIGZpbGwtcnVsZT0iZXZlbm9kZCIvPiYjeGE7PHBhdGggZmlsbD0iIzBBNkVEMSIgZD0iTTguMTQ0MTggMTUuNTYzMUM5LjU4ODYyIDE0LjI3OTEgMTEuODE5MSAxNC4zODEzIDEzLjEzNSAxNS43OTY3TDIyLjI5NjYgMjUuNjUwNUMyMy41MzMyIDI2Ljk4MDUgMjMuNTMzMiAyOS4wMTg1IDIyLjI5NjYgMzAuMzQ4NUwxMy4xMzUgNDAuMjAyM0MxMS44MTkxIDQxLjYxNzcgOS41ODg2MiA0MS43MTk5IDguMTQ0MTkgNDAuNDM1OUM2LjY4OTA2IDM5LjE0MjUgNi41Nzk0NSAzNi45MzAzIDcuOTA1MyAzNS41MDQzTDE0Ljg4MjggMjcuOTk5NUw3LjkwNTMgMjAuNDk0N0M2LjU3OTQ1IDE5LjA2ODcgNi42ODkwNiAxNi44NTY1IDguMTQ0MTggMTUuNTYzMVpNMTEuOTI2MSAxNi45MjA2QzExLjIyMzMgMTYuMTY0NyAxMC4wMTcxIDE2LjEwNjggOS4yNDA4NSAxNi43OTY4QzguNDc1MzIgMTcuNDc3MyA4LjQyMTI4IDE4LjYyNTUgOS4xMTQyIDE5LjM3MDhMMTYuNjE0MiAyNy40Mzc1QzE2LjkwODcgMjcuNzU0MyAxNi45MDg3IDI4LjI0NDcgMTYuNjE0MiAyOC41NjE1TDkuMTE0MiAzNi42MjgyTDguNTA5NzUgMzYuMDY2Mkw5LjExNDIgMzYuNjI4MkM4LjQyMTI4IDM3LjM3MzUgOC40NzUzMiAzOC41MjE3IDkuMjQwODUgMzkuMjAyMkw4LjY5MjUyIDM5LjgxOTFMOS4yNDA4NSAzOS4yMDIyQzEwLjAxNzEgMzkuODkyMiAxMS4yMjMzIDM5LjgzNDMgMTEuOTI2MSAzOS4wNzg0TDIxLjA4NzcgMjkuMjI0NkMyMS43MzUyIDI4LjUyOCAyMS43MzUyIDI3LjQ3MSAyMS4wODc3IDI2Ljc3NDRMMTEuOTI2MSAxNi45MjA2WiIgY2xpcC1ydWxlPSJldmVub2RkIiBmaWxsLXJ1bGU9ImV2ZW5vZGQiLz4mI3hhOzwvZz4mI3hhOzwvc3ZnPg==;fontSize=12;strokeColor=#074D92;strokeWidth=2;fillColor=none;" parent="VQPdTUdnhyxC5OtxLJdK-44" vertex="1">
                    <mxGeometry x="0.9411764705882352" y="0.9600230591856536" width="47.058823529411754" height="47.058823529411754" as="geometry"/>
                </mxCell>
                <mxCell id="VQPdTUdnhyxC5OtxLJdK-46" value="" style="ellipse;whiteSpace=wrap;html=1;fillColor=none;aspect=fixed;strokeWidth=2;strokeColor=#074D92;" parent="VQPdTUdnhyxC5OtxLJdK-44" vertex="1">
                    <mxGeometry width="48" height="48.978823529411756" as="geometry"/>
                </mxCell>
                <mxCell id="VQPdTUdnhyxC5OtxLJdK-47" style="edgeStyle=orthogonalEdgeStyle;rounded=0;orthogonalLoop=1;jettySize=auto;html=1;fontColor=#FFFFFF;strokeColor=#595959;endArrow=block;endFill=1;strokeWidth=2;endSize=3;exitX=1;exitY=0.5;exitDx=0;exitDy=0;entryX=0;entryY=0.5;entryDx=0;entryDy=0;" parent="VQPdTUdnhyxC5OtxLJdK-1" edge="1">
                    <mxGeometry relative="1" as="geometry">
                        <mxPoint x="920" y="-2153" as="targetPoint"/>
                        <mxPoint x="841.0000000000016" y="-2153.000588235295" as="sourcePoint"/>
                        <Array as="points">
                            <mxPoint x="863" y="-2153"/>
                            <mxPoint x="863" y="-2153"/>
                        </Array>
                    </mxGeometry>
                </mxCell>
                <mxCell id="VQPdTUdnhyxC5OtxLJdK-48" value="&lt;font size=&quot;1&quot; color=&quot;#053b70&quot;&gt;&lt;b style=&quot;font-size: 12px;&quot;&gt;SAP Build Process &lt;br&gt;Automation&lt;/b&gt;&lt;/font&gt;" style="text;whiteSpace=wrap;html=1;align=center;spacing=0;" parent="VQPdTUdnhyxC5OtxLJdK-1" vertex="1">
                    <mxGeometry x="712.75" y="-2122" width="202.5" height="40" as="geometry"/>
                </mxCell>
                <mxCell id="VQPdTUdnhyxC5OtxLJdK-49" style="edgeStyle=orthogonalEdgeStyle;rounded=0;orthogonalLoop=1;jettySize=auto;html=1;exitX=1;exitY=0.5;exitDx=0;exitDy=0;fontColor=#FFFFFF;strokeColor=#595959;endArrow=block;endFill=1;strokeWidth=2;endSize=3;entryX=0;entryY=0.5;entryDx=0;entryDy=0;" parent="VQPdTUdnhyxC5OtxLJdK-1" source="VQPdTUdnhyxC5OtxLJdK-3" target="VQPdTUdnhyxC5OtxLJdK-22" edge="1">
                    <mxGeometry relative="1" as="geometry">
                        <mxPoint x="455" y="-2460" as="targetPoint"/>
                        <mxPoint x="330" y="-2460" as="sourcePoint"/>
                    </mxGeometry>
                </mxCell>
                <mxCell id="VQPdTUdnhyxC5OtxLJdK-50" style="edgeStyle=orthogonalEdgeStyle;rounded=0;orthogonalLoop=1;jettySize=auto;html=1;exitX=0;exitY=0.5;exitDx=0;exitDy=0;fontColor=#FFFFFF;strokeColor=#595959;endArrow=block;endFill=1;strokeWidth=2;endSize=3;" parent="VQPdTUdnhyxC5OtxLJdK-1" edge="1">
                    <mxGeometry relative="1" as="geometry">
                        <mxPoint x="567" y="-2150" as="targetPoint"/>
                        <mxPoint x="781" y="-2258.5" as="sourcePoint"/>
                        <Array as="points">
                            <mxPoint x="781" y="-2260"/>
                            <mxPoint x="720" y="-2260"/>
                            <mxPoint x="720" y="-2150"/>
                            <mxPoint x="567" y="-2150"/>
                        </Array>
                    </mxGeometry>
                </mxCell>
                <mxCell id="VQPdTUdnhyxC5OtxLJdK-51" style="edgeStyle=orthogonalEdgeStyle;rounded=0;orthogonalLoop=1;jettySize=auto;html=1;fontColor=#FFFFFF;strokeColor=#595959;endArrow=block;endFill=1;strokeWidth=2;endSize=3;entryX=0.995;entryY=0.679;entryDx=0;entryDy=0;entryPerimeter=0;" parent="VQPdTUdnhyxC5OtxLJdK-1" edge="1">
                    <mxGeometry relative="1" as="geometry">
                        <mxPoint x="494.1098999999999" y="-2440.205" as="targetPoint"/>
                        <mxPoint x="543" y="-2315" as="sourcePoint"/>
                        <Array as="points">
                            <mxPoint x="543" y="-2440"/>
                        </Array>
                    </mxGeometry>
                </mxCell>
                <mxCell id="VQPdTUdnhyxC5OtxLJdK-53" value="SAP Cloud Identity Services" style="shape=image;verticalLabelPosition=bottom;verticalAlign=top;imageAspect=0;aspect=fixed;image=data:image/svg+xml,PHN2ZyB4bWxucz0iaHR0cDovL3d3dy53My5vcmcvMjAwMC9zdmciIGlkPSJzYXAtY2xvdWQtaWRlbnRpdHktc2VydmljZSIgdmlld0JveD0iMCAwIDU2IDU2Ij48ZGVmcz48c3R5bGU+LmNscy0xe2ZpbGw6IzBhNmVkMTt9LmNscy0ye2ZpbGw6IzA1M2I3MDt9LmNscy0ze2ZpbGw6IzA3NGQ5Mjt9PC9zdHlsZT48L2RlZnM+PHRpdGxlPnNhcC1jbG91ZC1pZGVudGl0eS1zZXJ2aWNlX2NpcmNsZTwvdGl0bGU+PHBhdGggY2xhc3M9ImNscy0xIiBkPSJNMjYuOTIyLDI5LjQwOWEyLjIwOSwyLjIwOSwwLDAsMC0uNy0uNDcsMi4xNTcsMi4xNTcsMCwwLDAtLjg0Ni0uMTcxSDIzLjE4OGEyLjEzNywyLjEzNywwLDAsMC0uODU1LjE3MSwyLjIyNiwyLjIyNiwwLDAsMC0uNjkyLjQ3LDIuMTkzLDIuMTkzLDAsMCwwLS40Ny43LDIuMTM5LDIuMTM5LDAsMCwwLS4xNzEuODQ2djIuMTg3aDYuNTYyVjMwLjk1NmEyLjE1NiwyLjE1NiwwLDAsMC0uMTctLjg0NkEyLjIwOSwyLjIwOSwwLDAsMCwyNi45MjIsMjkuNDA5WiIvPjxwYXRoIGNsYXNzPSJjbHMtMSIgZD0iTTI1LjgyOCwyOC4xMjhhMi4yMzEsMi4yMzEsMCwwLDAsLjQ3LS42OTMsMi4xMTUsMi4xMTUsMCwwLDAsLjE3MS0uODU0LDIuMTM5LDIuMTM5LDAsMCwwLS4xNzEtLjg0NiwyLjE4LDIuMTgsMCwwLDAtMS4xNzEtMS4xNzEsMi4xNTcsMi4xNTcsMCwwLDAtLjg0Ni0uMTcxLDIuMTM1LDIuMTM1LDAsMCwwLS44NTQuMTcxLDIuMjI2LDIuMjI2LDAsMCwwLS42OTIuNDcsMi4xNzYsMi4xNzYsMCwwLDAtLjQ3LjcsMi4xMzksMi4xMzksMCwwLDAtLjE3MS44NDYsMi4xMTUsMi4xMTUsMCwwLDAsLjE3MS44NTQsMi4yLDIuMiwwLDAsMCwuNDcuNjkzLDIuMjI2LDIuMjI2LDAsMCwwLC42OTIuNDcsMi4yMSwyLjIxLDAsMCwwLDEuNywwQTIuMjA5LDIuMjA5LDAsMCwwLDI1LjgyOCwyOC4xMjhaIi8+PHBhdGggY2xhc3M9ImNscy0xIiBkPSJNMzQuODI5LDMwLjExYTIuMTgsMi4xOCwwLDAsMC0xLjE3MS0xLjE3MSwyLjE1LDIuMTUsMCwwLDAtLjg0Ni0uMTcxSDMwLjYyNWEyLjEzMiwyLjEzMiwwLDAsMC0uODU0LjE3MSwyLjIsMi4yLDAsMCwwLTEuMTYzLDEuMTcxLDIuMTM4LDIuMTM4LDAsMCwwLS4xNy44NDZ2Mi4xODdIMzVWMzAuOTU2QTIuMTM5LDIuMTM5LDAsMCwwLDM0LjgyOSwzMC4xMVoiLz48cGF0aCBjbGFzcz0iY2xzLTEiIGQ9Ik0zMy4yNjUsMjguMTI4YTIuMjE0LDIuMjE0LDAsMCwwLC40Ny0uNjkzLDIuMTE1LDIuMTE1LDAsMCwwLC4xNzEtLjg1NCwyLjEzOSwyLjEzOSwwLDAsMC0uMTcxLS44NDYsMi4xODMsMi4xODMsMCwwLDAtMS4xNy0xLjE3MSwyLjIsMi4yLDAsMCwwLTEuNywwQTIuMiwyLjIsMCwwLDAsMjkuNywyNS43MzVhMi4xMzksMi4xMzksMCwwLDAtLjE3MS44NDYsMi4xMTUsMi4xMTUsMCwwLDAsLjE3MS44NTRBMi4yMjYsMi4yMjYsMCwwLDAsMzAuODY0LDI4LjZhMi4yMTIsMi4yMTIsMCwwLDAsMS43LDBBMi4yLDIuMiwwLDAsMCwzMy4yNjUsMjguMTI4WiIvPjxwYXRoIGNsYXNzPSJjbHMtMiIgZD0iTTM4LjQwNywyNC45NTVhNC45NTEsNC45NTEsMCwwLDAtNy40NTctMy4zMzMsNi43NDMsNi43NDMsMCwwLDAtNi4yMTEtNC4yMjljLTYuODY0LDAtNi42LDcuNTc3LTYuNiw3LjU3N0E1Ljk4Myw1Ljk4MywwLDAsMCwyMCwzNi42NDNIMzUuODc1YTYuMTE2LDYuMTE2LDAsMCwwLDIuNTMyLTExLjY4OFptLTIuNTMyLDkuOTM4SDIwYTQuMjMzLDQuMjMzLDAsMCwxLTEuMzE3LTguMjYxbDEuMzMtLjQ0OC0uMTM1LTEuMzk0YTYuMTI2LDYuMTI2LDAsMCwxLDEuMTcyLTQuMDksNS4xLDUuMSwwLDAsMSwzLjcyMi0xLjU1Niw1LjM3Miw1LjM3MiwwLDAsMSw0LjY2MywzLjExNWwuNjg3LDEuNjc1LDEuNDEzLS43NjlhNC40MzIsNC40MzIsMCwwLDEsMS45NzgtLjUyMiwzLjIzNSwzLjIzNSwwLDAsMSwzLjE3NSwyLjYzNmwuMTY4Ljg5MS44MjUuMzc3YTQuMzY2LDQuMzY2LDAsMCwxLTEuOCw4LjM0NloiLz48cGF0aCBjbGFzcz0iY2xzLTMiIGQ9Ik0yOCw2LjAxOGEyMiwyMiwwLDEsMS0yMiwyMiwyMi4wMjUsMjIuMDI1LDAsMCwxLDIyLTIybTAtMmEyNCwyNCwwLDEsMCwyNCwyNCwyNCwyNCwwLDAsMC0yNC0yNFoiLz48L3N2Zz4=;fontSize=15;fontStyle=1;fontColor=#053B70;spacingTop=-10;" parent="VQPdTUdnhyxC5OtxLJdK-1" vertex="1">
                    <mxGeometry x="682" y="-2017" width="56" height="56" as="geometry"/>
                </mxCell>
                <mxCell id="-bb0EItI1fjCFMMGgbSS-9" style="rounded=0;orthogonalLoop=1;jettySize=auto;html=1;fontColor=#FFFFFF;endArrow=block;endFill=1;strokeWidth=2;labelBackgroundColor=#ffffff;endSize=6;startSize=6;jumpSize=3;strokeColor=#C0399F;startArrow=none;startFill=1;entryX=1;entryY=0.5;entryDx=0;entryDy=0;" parent="VQPdTUdnhyxC5OtxLJdK-1" source="-bb0EItI1fjCFMMGgbSS-10" target="VQPdTUdnhyxC5OtxLJdK-53" edge="1">
                    <mxGeometry relative="1" as="geometry">
                        <mxPoint x="685" y="-1972" as="targetPoint"/>
                        <mxPoint x="1132.4299999999998" y="-2192" as="sourcePoint"/>
                        <Array as="points"/>
                    </mxGeometry>
                </mxCell>
                <mxCell id="-bb0EItI1fjCFMMGgbSS-10" value="&lt;font style=&quot;font-size: 11px;&quot;&gt;&lt;font style=&quot;font-size: 11px;&quot;&gt;trust&lt;/font&gt;&lt;br style=&quot;font-size: 11px;&quot;&gt;&lt;/font&gt;" style="rounded=1;whiteSpace=wrap;html=1;arcSize=40;fontColor=#FFFFFF;fontFamily=Helvetica;fontSize=11;strokeWidth=2;autosize=1;absoluteArcSize=1;labelBackgroundColor=none;fillColor=#C0399F;strokeColor=#C0399F;" parent="VQPdTUdnhyxC5OtxLJdK-1" vertex="1">
                    <mxGeometry x="985.43" y="-1999" width="40" height="20" as="geometry"/>
                </mxCell>
                <mxCell id="-bb0EItI1fjCFMMGgbSS-11" value="" style="rounded=0;orthogonalLoop=1;jettySize=auto;html=1;fontColor=#FFFFFF;endArrow=none;endFill=1;strokeWidth=2;labelBackgroundColor=#ffffff;endSize=6;startSize=6;jumpSize=3;strokeColor=#C0399F;startArrow=block;startFill=1;" parent="VQPdTUdnhyxC5OtxLJdK-1" target="-bb0EItI1fjCFMMGgbSS-10" edge="1">
                    <mxGeometry relative="1" as="geometry">
                        <mxPoint x="694.0000000000002" y="-1972" as="targetPoint"/>
                        <mxPoint x="1280" y="-2400" as="sourcePoint"/>
                        <Array as="points">
                            <mxPoint x="1280" y="-2400"/>
                            <mxPoint x="1280" y="-2270"/>
                            <mxPoint x="1280" y="-2000"/>
                            <mxPoint x="1280" y="-1990"/>
                        </Array>
                    </mxGeometry>
                </mxCell>
                <mxCell id="-bb0EItI1fjCFMMGgbSS-12" style="rounded=0;orthogonalLoop=1;jettySize=auto;html=1;fontColor=#FFFFFF;endArrow=block;endFill=1;strokeWidth=2;labelBackgroundColor=#ffffff;endSize=6;startSize=6;jumpSize=3;strokeColor=#C0399F;startArrow=block;startFill=1;exitX=0.461;exitY=1;exitDx=0;exitDy=0;exitPerimeter=0;entryX=0.5;entryY=0;entryDx=0;entryDy=0;" parent="VQPdTUdnhyxC5OtxLJdK-1" source="VQPdTUdnhyxC5OtxLJdK-17" target="VQPdTUdnhyxC5OtxLJdK-53" edge="1">
                    <mxGeometry relative="1" as="geometry">
                        <mxPoint x="460" y="-1880" as="targetPoint"/>
                        <mxPoint x="410" y="-1960" as="sourcePoint"/>
                        <Array as="points">
                            <mxPoint x="874" y="-2050"/>
                            <mxPoint x="710" y="-2050"/>
                        </Array>
                    </mxGeometry>
                </mxCell>
                <mxCell id="-bb0EItI1fjCFMMGgbSS-16" value="" style="edgeStyle=orthogonalEdgeStyle;rounded=0;orthogonalLoop=1;jettySize=auto;html=1;exitX=0;exitY=0.5;exitDx=0;exitDy=0;fontColor=#FFFFFF;strokeColor=#595959;endArrow=none;endFill=1;strokeWidth=2;endSize=3;entryX=0;entryY=0.5;entryDx=0;entryDy=0;dashed=1;" parent="VQPdTUdnhyxC5OtxLJdK-1" edge="1">
                    <mxGeometry relative="1" as="geometry">
                        <mxPoint x="315.98" y="-2162.5" as="targetPoint"/>
                        <mxPoint x="1174" y="-2480" as="sourcePoint"/>
                        <Array as="points">
                            <mxPoint x="1114" y="-2480"/>
                            <mxPoint x="1114" y="-2060"/>
                            <mxPoint x="274" y="-2060"/>
                            <mxPoint x="274" y="-2163"/>
                        </Array>
                    </mxGeometry>
                </mxCell>
                <mxCell id="-bb0EItI1fjCFMMGgbSS-6" value="Update HR data" style="rounded=1;whiteSpace=wrap;html=1;arcSize=50;fillColor=#595959;fontColor=#FFFFFF;strokeColor=#595959;fontFamily=Helvetica;fontSize=11;autosize=1;absoluteArcSize=1;strokeWidth=2;labelBackgroundColor=none;" parent="VQPdTUdnhyxC5OtxLJdK-1" vertex="1">
                    <mxGeometry x="500" y="-2073" width="100" height="23" as="geometry"/>
                </mxCell>
                <mxCell id="-bb0EItI1fjCFMMGgbSS-18" style="rounded=0;orthogonalLoop=1;jettySize=auto;html=1;fontColor=#FFFFFF;endArrow=none;endFill=0;strokeWidth=2;labelBackgroundColor=#ffffff;endSize=6;startSize=6;jumpSize=3;strokeColor=#C0399F;startArrow=none;startFill=1;" parent="VQPdTUdnhyxC5OtxLJdK-1" source="-bb0EItI1fjCFMMGgbSS-13" edge="1">
                    <mxGeometry relative="1" as="geometry">
                        <mxPoint x="710" y="-2050" as="targetPoint"/>
                        <mxPoint x="708" y="-2406" as="sourcePoint"/>
                        <Array as="points"/>
                    </mxGeometry>
                </mxCell>
                <mxCell id="-bb0EItI1fjCFMMGgbSS-13" value="&lt;font style=&quot;font-size: 11px;&quot;&gt;&lt;font style=&quot;font-size: 11px;&quot;&gt;trust&lt;/font&gt;&lt;br style=&quot;font-size: 11px;&quot;&gt;&lt;/font&gt;" style="rounded=1;whiteSpace=wrap;html=1;arcSize=40;fontColor=#FFFFFF;fontFamily=Helvetica;fontSize=11;strokeWidth=2;autosize=1;absoluteArcSize=1;labelBackgroundColor=none;fillColor=#C0399F;strokeColor=#C0399F;rotation=90;" parent="VQPdTUdnhyxC5OtxLJdK-1" vertex="1">
                    <mxGeometry x="690" y="-2220" width="40" height="20" as="geometry"/>
                </mxCell>
                <mxCell id="-bb0EItI1fjCFMMGgbSS-20" value="" style="rounded=0;orthogonalLoop=1;jettySize=auto;html=1;fontColor=#FFFFFF;endArrow=none;endFill=0;strokeWidth=2;labelBackgroundColor=#ffffff;endSize=6;startSize=6;jumpSize=3;strokeColor=#C0399F;startArrow=block;startFill=1;" parent="VQPdTUdnhyxC5OtxLJdK-1" target="-bb0EItI1fjCFMMGgbSS-13" edge="1">
                    <mxGeometry relative="1" as="geometry">
                        <mxPoint x="710" y="-2050" as="targetPoint"/>
                        <mxPoint x="708.0000000000002" y="-2406" as="sourcePoint"/>
                        <Array as="points">
                            <mxPoint x="710" y="-2250"/>
                        </Array>
                    </mxGeometry>
                </mxCell>
                <mxCell id="-bb0EItI1fjCFMMGgbSS-21" value="&lt;font style=&quot;font-size: 11px;&quot;&gt;&lt;font style=&quot;font-size: 11px;&quot;&gt;trust&lt;/font&gt;&lt;br style=&quot;font-size: 11px;&quot;&gt;&lt;/font&gt;" style="rounded=1;whiteSpace=wrap;html=1;arcSize=40;fontColor=#FFFFFF;fontFamily=Helvetica;fontSize=11;strokeWidth=2;autosize=1;absoluteArcSize=1;labelBackgroundColor=none;fillColor=#C0399F;strokeColor=#C0399F;rotation=0;" parent="VQPdTUdnhyxC5OtxLJdK-1" vertex="1">
                    <mxGeometry x="780" y="-2060" width="40" height="20" as="geometry"/>
                </mxCell>
                <mxCell id="Mkzos9A2GUHMK8xCdFD2-2" value="&lt;span style=&quot;font-weight: 700; font-size: 22px;&quot;&gt;&lt;font style=&quot;font-size: 22px;&quot;&gt;SAP Business Technology Platform&lt;/font&gt;&lt;/span&gt;" style="text;html=1;align=center;verticalAlign=middle;resizable=0;points=[];;autosize=1;fontSize=22;fontColor=#595959;fontFamily=Arial;" parent="VQPdTUdnhyxC5OtxLJdK-1" vertex="1">
                    <mxGeometry x="230.00000000000045" y="-2638.5" width="400" height="40" as="geometry"/>
                </mxCell>
                <mxCell id="Mkzos9A2GUHMK8xCdFD2-5" value="&lt;font style=&quot;font-size: 11px&quot;&gt;SSL&lt;/font&gt;" style="rounded=1;whiteSpace=wrap;html=1;arcSize=50;fontColor=#FFFFFF;fontFamily=Helvetica;fontSize=11;autosize=1;absoluteArcSize=1;strokeWidth=2;labelBackgroundColor=none;fillColor=#0F828F;strokeColor=#0F828F;rotation=0;" parent="VQPdTUdnhyxC5OtxLJdK-1" vertex="1">
                    <mxGeometry x="1036" y="-2160.51" width="40" height="19" as="geometry"/>
                </mxCell>
                <mxCell id="VQPdTUdnhyxC5OtxLJdK-15" value="&lt;font style=&quot;font-size: 11px;&quot;&gt;Vacany creation&lt;/font&gt;" style="rounded=1;whiteSpace=wrap;html=1;arcSize=50;fillColor=#595959;fontColor=#FFFFFF;strokeColor=#595959;fontFamily=Helvetica;fontSize=11;autosize=1;absoluteArcSize=1;strokeWidth=2;labelBackgroundColor=none;" parent="VQPdTUdnhyxC5OtxLJdK-1" vertex="1">
                    <mxGeometry x="1146" y="-2164.51" width="100" height="23" as="geometry"/>
                </mxCell>
                <mxCell id="NAzWER6JhkUFQK4if2xH-6" style="edgeStyle=orthogonalEdgeStyle;rounded=0;orthogonalLoop=1;jettySize=auto;html=1;exitX=1;exitY=0.5;exitDx=0;exitDy=0;fontColor=#FFFFFF;strokeColor=#595959;endArrow=none;endFill=0;strokeWidth=2;dashed=1;endSize=3;fontSize=18;entryX=0.5;entryY=0;entryDx=0;entryDy=0;" parent="VQPdTUdnhyxC5OtxLJdK-1" target="VQPdTUdnhyxC5OtxLJdK-28" edge="1">
                    <mxGeometry relative="1" as="geometry">
                        <mxPoint x="440" y="-2190" as="targetPoint"/>
                        <mxPoint x="440" y="-2190" as="sourcePoint"/>
                    </mxGeometry>
                </mxCell>
                <mxCell id="NAzWER6JhkUFQK4if2xH-7" value="&lt;font style=&quot;font-size: 11px&quot;&gt;SSL&lt;/font&gt;" style="rounded=1;whiteSpace=wrap;html=1;arcSize=40;fontColor=#FFFFFF;fontFamily=Helvetica;fontSize=11;autosize=1;absoluteArcSize=1;strokeWidth=2;labelBackgroundColor=none;fillColor=#0F828F;strokeColor=#0F828F;rotation=0;" parent="VQPdTUdnhyxC5OtxLJdK-1" vertex="1">
                    <mxGeometry x="1040" y="-2071" width="40" height="19" as="geometry"/>
                </mxCell>
                <mxCell id="bx-7zqutepP741Jw1wOw-0" style="rounded=0;orthogonalLoop=1;jettySize=auto;html=1;fontColor=#FFFFFF;endArrow=block;endFill=1;strokeWidth=2;labelBackgroundColor=#ffffff;endSize=6;startSize=6;jumpSize=3;strokeColor=#C0399F;startArrow=block;startFill=1;entryX=0.5;entryY=0;entryDx=0;entryDy=0;exitX=0.5;exitY=1;exitDx=0;exitDy=0;" parent="VQPdTUdnhyxC5OtxLJdK-1" source="VQPdTUdnhyxC5OtxLJdK-24" target="VQPdTUdnhyxC5OtxLJdK-53" edge="1">
                    <mxGeometry relative="1" as="geometry">
                        <mxPoint x="719.9999999999998" y="-2007" as="targetPoint"/>
                        <mxPoint x="885.4699999999998" y="-2066" as="sourcePoint"/>
                        <Array as="points">
                            <mxPoint x="440" y="-2040"/>
                            <mxPoint x="710" y="-2040"/>
                        </Array>
                    </mxGeometry>
                </mxCell>
                <mxCell id="bx-7zqutepP741Jw1wOw-1" value="&lt;font style=&quot;font-size: 11px;&quot;&gt;&lt;font style=&quot;font-size: 11px;&quot;&gt;trust&lt;/font&gt;&lt;br style=&quot;font-size: 11px;&quot;&gt;&lt;/font&gt;" style="rounded=1;whiteSpace=wrap;html=1;arcSize=40;fontColor=#FFFFFF;fontFamily=Helvetica;fontSize=11;strokeWidth=2;autosize=1;absoluteArcSize=1;labelBackgroundColor=none;fillColor=#C0399F;strokeColor=#C0399F;rotation=0;" parent="VQPdTUdnhyxC5OtxLJdK-1" vertex="1">
                    <mxGeometry x="630" y="-2050" width="40" height="20" as="geometry"/>
                </mxCell>
                <mxCell id="z5PdbuuOb7pppBxWRpVs-4" value="&lt;font color=&quot;#053b70&quot;&gt;&lt;span style=&quot;font-size: 15px;&quot;&gt;&lt;b&gt;SAP Datasphere&lt;/b&gt;&lt;/span&gt;&lt;/font&gt;" style="text;whiteSpace=wrap;html=1;align=left;spacing=0;" vertex="1" parent="VQPdTUdnhyxC5OtxLJdK-1">
                    <mxGeometry x="315.48" y="-2358.04" width="202.5" height="30.06" as="geometry"/>
                </mxCell>
            </root>
        </mxGraphModel>
    </diagram>
</mxfile>